<svg id="Capa_1" data-name="Capa 1" xmlns="http://www.w3.org/2000/svg" viewBox="0 0 239.63 222.92"><defs><style>.cls-1{fill:#bcedea;}.cls-2{fill:#10cfc9;}.cls-3{fill:#1d224c;}</style></defs><title>ACCESORIOS</title><circle class="cls-1" cx="114.95" cy="116.08" r="79.6"/><path class="cls-2" d="M98.82,93.13,81.36,113.18c.36,0,.57.06.78.06,4,0,8-.07,12,0a38,38,0,0,1,5.72.6,37.45,37.45,0,0,1,4,1.19,1,1,0,0,0,.69,0,22.42,22.42,0,0,1,5.12-1.74,20.58,20.58,0,0,1,5.86-.37,20.94,20.94,0,0,1,6.7,1.62,11.14,11.14,0,0,0,1.24.51,1.61,1.61,0,0,0,.78-.06c1-.3,1.93-.69,2.92-.93,4.35-1.06,8.79-.85,13.21-.85,1.84,0,3.69,0,5.53,0a5.3,5.3,0,0,0,.58-.09L129,93.14l-1.22,1.75c-.9,1.32-1.76,2.67-2.71,4a3.54,3.54,0,0,1-5.88-.12,3.27,3.27,0,0,1,0-4c1.37-2.11,2.8-4.18,4.25-6.24a7.73,7.73,0,0,1,2.1-2.39,5.78,5.78,0,0,1,6.4,0,17.75,17.75,0,0,1,3.63,3.56q5.7,6.5,11.39,13c3.69,4.23,7.34,8.49,11,12.73.72.84,1.43,1.67,2.12,2.53a2.21,2.21,0,0,1,.64,1.8,3.72,3.72,0,0,0,0,1,2.28,2.28,0,0,1-.58,1.69,2.31,2.31,0,0,0-.36.76c-.24,1-.36,2.08-.68,3.08a26.08,26.08,0,0,1-1.48,3.73,29.8,29.8,0,0,1-7,8.88,27.18,27.18,0,0,1-6.78,4.44A16.58,16.58,0,0,1,136,145a18.06,18.06,0,0,1-7.88-2.29A20.08,20.08,0,0,1,118,123.81a17.57,17.57,0,0,1,.41-2.26c.06-.25,0-.4-.21-.49-.81-.25-1.59-.56-2.41-.76a6.53,6.53,0,0,0-2.1-.24,26.56,26.56,0,0,0-3.17.64c-.33.08-.64.26-1,.37s-.26.23-.2.46a14.69,14.69,0,0,1,.26,6.46,25.29,25.29,0,0,1-1,4,19.21,19.21,0,0,1-3.85,6.53,19.5,19.5,0,0,1-5.23,4.21,14.75,14.75,0,0,1-4.81,1.77,28,28,0,0,1-4.17.44A15,15,0,0,1,85,143.76a27.6,27.6,0,0,1-9.08-6,28.39,28.39,0,0,1-5.46-7.16,32.09,32.09,0,0,1-1.76-4.24,12.09,12.09,0,0,1-.59-2.73,5.59,5.59,0,0,0-.88-2s-.06,0-.06-.07a10.27,10.27,0,0,1,.12-2.73,6.57,6.57,0,0,1,1.44-1.94c1.77-2.11,3.54-4.22,5.34-6.31q4.16-4.81,8.33-9.6,3.93-4.5,7.88-9c1.32-1.49,2.63-3,4-4.47a6.9,6.9,0,0,1,3.66-2.21,5.54,5.54,0,0,1,4.36.86,5.69,5.69,0,0,1,1.63,1.72c1.46,2.16,3,4.28,4.42,6.44a6.49,6.49,0,0,1,.85,1.83,3.66,3.66,0,0,1-1.8,3.74,3.71,3.71,0,0,1-4.92-1.39c-1.07-1.66-2.21-3.27-3.32-4.9C99.06,93.46,99,93.34,98.82,93.13Z"/><path class="cls-3" d="M100.82,95.13,83.36,115.18c.36,0,.57.06.78.06,4,0,8-.07,12,0a38,38,0,0,1,5.72.6,37.45,37.45,0,0,1,4,1.19,1,1,0,0,0,.69,0,22.42,22.42,0,0,1,5.12-1.74,20.58,20.58,0,0,1,5.86-.37,20.94,20.94,0,0,1,6.7,1.62,11.14,11.14,0,0,0,1.24.51,1.61,1.61,0,0,0,.78-.06c1-.3,1.93-.69,2.92-.93,4.35-1.06,8.79-.85,13.21-.85,1.84,0,3.69,0,5.53,0a5.3,5.3,0,0,0,.58-.09L131,95.14l-1.22,1.75c-.9,1.32-1.76,2.67-2.71,4a3.54,3.54,0,0,1-5.88-.12,3.27,3.27,0,0,1,0-4c1.37-2.11,2.8-4.18,4.25-6.24a7.73,7.73,0,0,1,2.1-2.39,5.78,5.78,0,0,1,6.4,0,17.75,17.75,0,0,1,3.63,3.56q5.7,6.5,11.39,13c3.69,4.23,7.34,8.49,11,12.73.72.84,1.43,1.67,2.12,2.53a2.21,2.21,0,0,1,.64,1.8,3.72,3.72,0,0,0,0,1,2.28,2.28,0,0,1-.58,1.69,2.31,2.31,0,0,0-.36.76c-.24,1-.36,2.08-.68,3.08a26.08,26.08,0,0,1-1.48,3.73,29.8,29.8,0,0,1-7,8.88,27.18,27.18,0,0,1-6.78,4.44A16.58,16.58,0,0,1,138,147a18.06,18.06,0,0,1-7.88-2.29A20.08,20.08,0,0,1,120,125.81a17.57,17.57,0,0,1,.41-2.26c.06-.25,0-.4-.21-.49-.81-.25-1.59-.56-2.41-.76a6.53,6.53,0,0,0-2.1-.24,26.56,26.56,0,0,0-3.17.64c-.33.08-.64.26-1,.37s-.26.23-.2.46a14.69,14.69,0,0,1,.26,6.46,25.29,25.29,0,0,1-1,4,19.21,19.21,0,0,1-3.85,6.53,19.5,19.5,0,0,1-5.23,4.21,14.75,14.75,0,0,1-4.81,1.77,28,28,0,0,1-4.17.44A15,15,0,0,1,87,145.76a27.6,27.6,0,0,1-9.08-6,28.39,28.39,0,0,1-5.46-7.16,32.09,32.09,0,0,1-1.76-4.24,12.09,12.09,0,0,1-.59-2.73,5.59,5.59,0,0,0-.88-2s-.06,0-.06-.07a10.27,10.27,0,0,1,.12-2.73,6.57,6.57,0,0,1,1.44-1.94c1.77-2.11,3.54-4.22,5.34-6.31q4.16-4.81,8.33-9.6,3.93-4.5,7.88-9c1.32-1.49,2.63-3,4-4.47a6.9,6.9,0,0,1,3.66-2.21,5.54,5.54,0,0,1,4.36.86,5.69,5.69,0,0,1,1.63,1.72c1.46,2.16,3,4.28,4.42,6.44a6.49,6.49,0,0,1,.85,1.83,3.66,3.66,0,0,1-1.8,3.74,3.71,3.71,0,0,1-4.92-1.39c-1.07-1.66-2.21-3.27-3.32-4.9C101.06,95.46,101,95.34,100.82,95.13Z"/></svg>