<svg id="Capa_1" data-name="Capa 1" xmlns="http://www.w3.org/2000/svg" viewBox="0 0 239.63 222.92"><defs><style>.cls-1{fill:#bcedea;}.cls-2{fill:#10cfc9;}.cls-3{fill:#1d224c;}</style></defs><title>AUTOMOTRIZ</title><circle class="cls-1" cx="118.46" cy="111.46" r="79.6"/><path class="cls-2" d="M117.44,142.32H94c-1,0-1,0-1,1,0,1.27,0,2.55,0,3.82a4.78,4.78,0,0,1-1.83,4,4.4,4.4,0,0,1-2.65,1c-3.6,0-7.2,0-10.8,0a4.37,4.37,0,0,1-4-3,10.35,10.35,0,0,1-.34-2.47q0-16.17,0-32.34a5,5,0,0,1,0-.67c0-.55-.17-.74-.73-.78a4.36,4.36,0,0,1-4.09-4.11c-.08-1.89,0-3.78-.06-5.67,0-2.88,1.81-4.79,5-4.85.47,0,.95,0,1.42,0a.74.74,0,0,0,.86-.61c.17-.68.34-1.35.5-2l1.8-7.48c.38-1.57.74-3.15,1.15-4.72a18.91,18.91,0,0,1,3-6.33,19.5,19.5,0,0,1,6.75-5.89,16.83,16.83,0,0,1,6.16-2c1.51-.15,3-.29,4.54-.29,12,0,24,0,36,0A21.88,21.88,0,0,1,143.19,70a19.66,19.66,0,0,1,9.1,6.65,20.68,20.68,0,0,1,3.54,7.31c.47,1.76.83,3.55,1.26,5.33s.87,3.58,1.3,5.38c.19.78.39,1.55.54,2.34.2,1.1.33,1.22,1.42,1.23a7.87,7.87,0,0,1,3.56.55,3.92,3.92,0,0,1,2.39,3.35,53,53,0,0,1,0,6.9,4.24,4.24,0,0,1-3.9,3.83c-.86.13-.87.09-.87,1q0,16.42,0,32.83a5.86,5.86,0,0,1-.72,3.26,4.64,4.64,0,0,1-2.34,1.88,5.66,5.66,0,0,1-2.22.3c-3.33,0-6.67.05-10,0a4.44,4.44,0,0,1-4-3.21,19.75,19.75,0,0,1-.28-5c-.05-1.79.17-1.57-1.6-1.57Zm0-39.18h31.34c.25,0,.5,0,.74,0,.44,0,.56-.21.47-.58-.13-.58-.28-1.16-.42-1.74-.45-1.83-.89-3.66-1.34-5.49-.29-1.24-.58-2.48-.88-3.72-.44-1.79-.9-3.57-1.31-5.37a9.66,9.66,0,0,0-1.37-3.33,9.48,9.48,0,0,0-8.28-4.27H98.58A9.81,9.81,0,0,0,93.5,79.9a9,9,0,0,0-4.22,5.15c-.33,1.08-.58,2.18-.85,3.28q-.68,2.74-1.33,5.5c-.3,1.23-.59,2.47-.89,3.71-.41,1.67-.83,3.34-1.24,5-.09.37,0,.61.46.59.23,0,.45,0,.68,0Zm-19.55,22a7.33,7.33,0,1,0-7.33,7.3A7.45,7.45,0,0,0,97.84,125.19Zm39.23-.06a7.33,7.33,0,1,0,14.66.05,7.33,7.33,0,1,0-14.66-.05Z"/><path class="cls-2" d="M117.39,103.14H86.11c-.23,0-.45,0-.68,0-.43,0-.55-.22-.46-.59.41-1.67.83-3.34,1.24-5,.3-1.24.59-2.48.89-3.71q.66-2.76,1.33-5.5c.27-1.1.52-2.2.85-3.28A9,9,0,0,1,93.5,79.9a9.81,9.81,0,0,1,5.08-1.26h37.76a9.48,9.48,0,0,1,8.28,4.27A9.66,9.66,0,0,1,146,86.24c.41,1.8.87,3.58,1.31,5.37.3,1.24.59,2.48.88,3.72.45,1.83.89,3.66,1.34,5.49.14.58.29,1.16.42,1.74.09.37,0,.6-.47.58-.24,0-.49,0-.74,0Z"/><path class="cls-2" d="M97.84,125.19a7.33,7.33,0,0,1-14.66-.06,7.33,7.33,0,1,1,14.66.06Z"/><path class="cls-2" d="M137.07,125.13a7.33,7.33,0,1,1,7.27,7.36A7.45,7.45,0,0,1,137.07,125.13Z"/><path class="cls-2" d="M69,110.46A15.75,15.75,0,0,0,72.28,114l1.25-5.54-3.26-1.13Z"/><path class="cls-2" d="M73.92,149.61a9,9,0,0,0,3.84,3.92L79.24,151l-4.67-4.33Z"/><path class="cls-2" d="M142.39,149.37s.51,2.19,4.28,4.32l3.77-4.32-6.87-1.89Z"/><path class="cls-2" d="M163.91,98.76s3.23,1.44,4.08,4l-3.25,2.34L163,99.21Z"/><path class="cls-3" d="M119.44,144.32H96c-1,0-1,0-1,1,0,1.27,0,2.55,0,3.82a4.78,4.78,0,0,1-1.83,4,4.4,4.4,0,0,1-2.65,1c-3.6,0-7.2,0-10.8,0a4.37,4.37,0,0,1-4-3,10.35,10.35,0,0,1-.34-2.47q0-16.17,0-32.34a5,5,0,0,1,0-.67c0-.55-.17-.74-.73-.78a4.36,4.36,0,0,1-4.09-4.11c-.08-1.89,0-3.78-.06-5.67,0-2.88,1.81-4.79,5-4.85.47,0,.95,0,1.42,0a.74.74,0,0,0,.86-.61c.17-.68.34-1.35.5-2l1.8-7.48c.38-1.57.74-3.15,1.15-4.72a18.91,18.91,0,0,1,3-6.33,19.5,19.5,0,0,1,6.75-5.89,16.83,16.83,0,0,1,6.16-2c1.51-.15,3-.29,4.54-.29,12,0,24,0,36,0A21.88,21.88,0,0,1,145.19,72a19.66,19.66,0,0,1,9.1,6.65,20.68,20.68,0,0,1,3.54,7.31c.47,1.76.83,3.55,1.26,5.33s.87,3.58,1.3,5.38c.19.78.39,1.55.54,2.34.2,1.1.33,1.22,1.42,1.23a7.87,7.87,0,0,1,3.56.55,3.92,3.92,0,0,1,2.39,3.35,53,53,0,0,1,0,6.9,4.24,4.24,0,0,1-3.9,3.83c-.86.13-.87.09-.87,1q0,16.42,0,32.83a5.86,5.86,0,0,1-.72,3.26,4.64,4.64,0,0,1-2.34,1.88,5.66,5.66,0,0,1-2.22.3c-3.33,0-6.67.05-10,0a4.44,4.44,0,0,1-4-3.21,19.75,19.75,0,0,1-.28-5c-.05-1.79.17-1.57-1.6-1.57Zm0-39.18h31.34c.25,0,.5,0,.74,0,.44,0,.56-.21.47-.58-.13-.58-.28-1.16-.42-1.74-.45-1.83-.89-3.66-1.34-5.49-.29-1.24-.58-2.48-.88-3.72-.44-1.79-.9-3.57-1.31-5.37a9.66,9.66,0,0,0-1.37-3.33,9.48,9.48,0,0,0-8.28-4.27H100.58A9.81,9.81,0,0,0,95.5,81.9a9,9,0,0,0-4.22,5.15c-.33,1.08-.58,2.18-.85,3.28q-.68,2.74-1.33,5.5c-.3,1.23-.59,2.47-.89,3.71-.41,1.67-.83,3.34-1.24,5-.09.37,0,.61.46.59.23,0,.45,0,.68,0Zm-19.55,22a7.33,7.33,0,1,0-7.33,7.3A7.45,7.45,0,0,0,99.84,127.19Zm39.23-.06a7.33,7.33,0,1,0,14.66.05,7.33,7.33,0,1,0-14.66-.05Z"/><path class="cls-1" d="M119.39,105.14H88.11c-.23,0-.45,0-.68,0-.43,0-.55-.22-.46-.59.41-1.67.83-3.34,1.24-5,.3-1.24.59-2.48.89-3.71q.66-2.76,1.33-5.5c.27-1.1.52-2.2.85-3.28A9,9,0,0,1,95.5,81.9a9.81,9.81,0,0,1,5.08-1.26h37.76a9.48,9.48,0,0,1,8.28,4.27A9.66,9.66,0,0,1,148,88.24c.41,1.8.87,3.58,1.31,5.37.3,1.24.59,2.48.88,3.72.45,1.83.89,3.66,1.34,5.49.14.58.29,1.16.42,1.74.09.37,0,.6-.47.58-.24,0-.49,0-.74,0Z"/><path class="cls-1" d="M99.84,127.19a7.33,7.33,0,0,1-14.66-.06,7.33,7.33,0,1,1,14.66.06Z"/><path class="cls-1" d="M139.07,127.13a7.33,7.33,0,1,1,7.27,7.36A7.45,7.45,0,0,1,139.07,127.13Z"/></svg>