<svg id="Capa_1" data-name="Capa 1" xmlns="http://www.w3.org/2000/svg" viewBox="0 0 239.63 222.92"><defs><style>.cls-1{fill:#bcedea;}.cls-2{fill:#10cfc9;}.cls-3{fill:#1d224c;}</style></defs><title>BELLEZA</title><circle class="cls-1" cx="117.46" cy="110.71" r="79.6"/><rect class="cls-2" x="104.43" y="104.65" width="24.22" height="13.09" rx="2.32" ry="2.32" transform="translate(233.09 222.39) rotate(-180)"/><path class="cls-2" d="M107.71,100V62.76a2.32,2.32,0,0,1,3.63-1.91l12.88,8.91a2.32,2.32,0,0,1,1,1.9V100a2.32,2.32,0,0,1-2.32,2.32H110A2.32,2.32,0,0,1,107.71,100Z"/><path class="cls-2" d="M131,122.47v33.91a2.31,2.31,0,0,1-1.64,2.22,41.9,41.9,0,0,1-12,1.39,56.35,56.35,0,0,1-13.65-1.5,2.31,2.31,0,0,1-1.76-2.24V122.47a2.32,2.32,0,0,1,2.32-2.32h24.38A2.32,2.32,0,0,1,131,122.47Z"/><path class="cls-2" d="M102.18,157.24s.43,1.61,3.53,2.25l1-3.41-4.5-1.76Z"/><path class="cls-2" d="M128.65,120.15a5.42,5.42,0,0,1,3.79,1.86l-1.47.46Z"/><path class="cls-2" d="M126.34,104.65a4.65,4.65,0,0,1,4.21,2.62l-4.21.2Z"/><path class="cls-2" d="M105,117s.59,1,3.27,1.75l.59-1.45-2.17-1.4Z"/><path class="cls-2" d="M107.93,101s.7,2.33,4.1,2.33l1.06-3.24-5.16-2Z"/><path class="cls-2" d="M110.38,60.46a11.77,11.77,0,0,1,3.44,1.72l-1.72.29-1.72-1.55Z"/><rect class="cls-3" x="106.43" y="105.65" width="24.22" height="13.09" rx="2.32" ry="2.32" transform="translate(237.09 224.39) rotate(-180)"/><path class="cls-3" d="M109.71,101V63.76a2.32,2.32,0,0,1,3.63-1.91l12.88,8.91a2.32,2.32,0,0,1,1,1.9V101a2.32,2.32,0,0,1-2.32,2.32H112A2.32,2.32,0,0,1,109.71,101Z"/><path class="cls-3" d="M133,123.47v33.91a2.31,2.31,0,0,1-1.64,2.22,41.9,41.9,0,0,1-12,1.39,56.35,56.35,0,0,1-13.65-1.5,2.31,2.31,0,0,1-1.76-2.24V123.47a2.32,2.32,0,0,1,2.32-2.32h24.38A2.32,2.32,0,0,1,133,123.47Z"/></svg>