<svg id="Capa_1" data-name="Capa 1" xmlns="http://www.w3.org/2000/svg" viewBox="0 0 239.63 222.92"><defs><style>.cls-1{fill:#bcedea;}.cls-2{fill:#10cfc9;}.cls-3{fill:#1d224c;}</style></defs><title>CAFETERÍAS</title><circle class="cls-1" cx="117.07" cy="112.99" r="79.6"/><path class="cls-2" d="M112.3,91.87h22.57a4.62,4.62,0,0,1,3.62,1.47,3.13,3.13,0,0,1,.63,3.18c-.26.94-.5,1.88-.73,2.82-.28,1.15-.54,2.31-.78,3.46s-.46,2.33-.68,3.49c-.11.54-.22,1.08-.3,1.62s0,.73.62.58c.88-.22,1.76-.47,2.65-.64a18.29,18.29,0,0,1,5.95-.29,16.35,16.35,0,0,1,3.77.92,13.77,13.77,0,0,1,5.72,4.22,15.25,15.25,0,0,1,3,6.34,15.84,15.84,0,0,1-.16,7.53,16.72,16.72,0,0,1-5.82,8.86,23,23,0,0,1-7,3.86,36.15,36.15,0,0,1-6.76,1.76c-2.08.31-4.18.58-6.27.84-.32,0-.47.15-.51.46s-.1.61-.12.92a82.13,82.13,0,0,0-.36,10.75,3.1,3.1,0,0,1-.59,2.49,5.22,5.22,0,0,1-1.29.87,4.58,4.58,0,0,1-2.29.3q-15.37,0-30.75,0a3.08,3.08,0,0,1-2.72-1.2,3.78,3.78,0,0,1-.56-2.62,41.39,41.39,0,0,0,0-7.3c-.13-1.91-.26-3.82-.44-5.73-.23-2.36-.5-4.71-.77-7.07q-.33-2.85-.7-5.7c-.23-1.77-.5-3.53-.75-5.3-.12-.85-.24-1.71-.37-2.56-.37-2.4-.74-4.81-1.13-7.21-.31-2-.63-3.94-1-5.9-.31-1.7-.68-3.4-1-5.1-.31-1.42-.64-2.84-1-4.26-.12-.52-.25-1-.42-1.55a3,3,0,0,1,1.69-3.78A6.8,6.8,0,0,1,90,91.86ZM151,122.71a8.11,8.11,0,0,0-.91-3.84,6.24,6.24,0,0,0-4.24-3.56,10,10,0,0,0-5.71.36c-1.44.46-2.83,1.09-4.23,1.69-.38.16-.87.26-.95.81-.21,1.44-.43,2.88-.64,4.33-.25,1.78-.48,3.57-.71,5.36s-.47,3.77-.71,5.65c0,.35.1.48.44.43l1.83-.24c1.43-.22,2.86-.4,4.28-.69a24.39,24.39,0,0,0,5.26-1.67,14.4,14.4,0,0,0,3.6-2.19A8.43,8.43,0,0,0,151,122.71Z"/><path class="cls-2" d="M120.8,58.3a2.82,2.82,0,0,1,.2.6,22,22,0,0,1-.07,5.44c-.18,1-.38,2-.64,3A11,11,0,0,1,117.76,72c-1.37,1.5-2.84,2.9-4.28,4.33A12.68,12.68,0,0,0,110.39,81a12.39,12.39,0,0,0-.72,4.44c0,.7,0,1.4,0,2.09,0,.35-.09.5-.46.5q-4.09,0-8.19,0c-.37,0-.48-.16-.48-.5a22.19,22.19,0,0,1,1-7.2A11.28,11.28,0,0,1,106.69,74c1.68-1,3.4-1.94,5.1-2.92a16.91,16.91,0,0,0,7.06-7.66,24.83,24.83,0,0,0,1.74-4.92,1,1,0,0,1,.07-.18Z"/><path class="cls-2" d="M125,69.11a15.79,15.79,0,0,1,1.55,5.6,7.9,7.9,0,0,1-1.23,4.53,9.37,9.37,0,0,0-1.56,5.57,23.35,23.35,0,0,0,.47,2.63c.1.49.07.59-.42.59-2.39,0-4.78,0-7.17,0-.43,0-.51-.18-.51-.55A10.7,10.7,0,0,1,120,79a15.31,15.31,0,0,0,3.36-3.68,10.2,10.2,0,0,0,1.31-3.78c.09-.63.14-1.26.22-1.89C124.88,69.51,124.94,69.38,125,69.11Z"/><polygon class="cls-2" points="120.8 58.3 122.8 60.3 121.95 66.36 120.29 67.38 119.21 66.19 120.76 60.06 120.8 58.3"/><polygon class="cls-2" points="125.02 69.11 127.02 71.11 127.66 74.14 126.82 76.72 125.02 74.58 125.02 70 125.02 69.11"/><polygon class="cls-2" points="116.31 87.97 118.3 89.96 119.29 88.54 117.8 86.06 116.31 87.97"/><polygon class="cls-2" points="100.74 87.96 102.68 89.91 104.32 88.13 102.14 86.2 100.74 87.96"/><path class="cls-2" d="M93.74,156.48a10,10,0,0,0,2.58,2.6l2-3.7-4.38-2.06Z"/><path class="cls-3" d="M114.3,93.87h22.57a4.62,4.62,0,0,1,3.62,1.47,3.13,3.13,0,0,1,.63,3.18c-.26.94-.5,1.88-.73,2.82-.28,1.15-.54,2.31-.78,3.46s-.46,2.33-.68,3.49c-.11.54-.22,1.08-.3,1.62s0,.73.62.58c.88-.22,1.76-.47,2.65-.64a18.29,18.29,0,0,1,5.95-.29,16.35,16.35,0,0,1,3.77.92,13.77,13.77,0,0,1,5.72,4.22,15.25,15.25,0,0,1,3,6.34,15.84,15.84,0,0,1-.16,7.53,16.72,16.72,0,0,1-5.82,8.86,23,23,0,0,1-7,3.86,36.15,36.15,0,0,1-6.76,1.76c-2.08.31-4.18.58-6.27.84-.32,0-.47.15-.51.46s-.1.61-.12.92a82.13,82.13,0,0,0-.36,10.75,3.1,3.1,0,0,1-.59,2.49,5.22,5.22,0,0,1-1.29.87,4.58,4.58,0,0,1-2.29.3q-15.38,0-30.75,0a3.08,3.08,0,0,1-2.72-1.2,3.78,3.78,0,0,1-.56-2.62,41.39,41.39,0,0,0,0-7.3c-.13-1.91-.26-3.82-.44-5.73-.23-2.36-.5-4.71-.77-7.07q-.33-2.85-.7-5.7c-.23-1.77-.5-3.53-.75-5.3-.12-.85-.24-1.71-.37-2.56-.37-2.4-.74-4.81-1.13-7.21-.31-2-.63-3.94-1-5.9-.31-1.7-.68-3.4-1-5.1-.31-1.42-.64-2.84-1-4.26-.12-.52-.25-1-.42-1.55a3,3,0,0,1,1.69-3.78A6.8,6.8,0,0,1,92,93.86ZM153,124.71a8.11,8.11,0,0,0-.91-3.84,6.24,6.24,0,0,0-4.24-3.56,10,10,0,0,0-5.71.36c-1.44.46-2.83,1.09-4.23,1.69-.38.16-.87.26-.95.81-.21,1.44-.43,2.88-.64,4.33-.25,1.78-.48,3.57-.71,5.36s-.47,3.77-.71,5.65c0,.35.1.48.44.43l1.83-.24c1.43-.22,2.86-.4,4.28-.69a24.39,24.39,0,0,0,5.26-1.67,14.4,14.4,0,0,0,3.6-2.19A8.43,8.43,0,0,0,153,124.71Z"/><path class="cls-3" d="M122.8,60.3a2.82,2.82,0,0,1,.2.6,22,22,0,0,1-.07,5.44c-.18,1-.38,2-.64,3A11,11,0,0,1,119.76,74c-1.37,1.5-2.84,2.9-4.28,4.33A12.68,12.68,0,0,0,112.39,83a12.39,12.39,0,0,0-.72,4.44c0,.7,0,1.4,0,2.09,0,.35-.09.5-.46.5q-4.09,0-8.19,0c-.37,0-.48-.16-.48-.5a22.19,22.19,0,0,1,1-7.2A11.28,11.28,0,0,1,108.69,76c1.68-1,3.4-1.94,5.1-2.92a16.91,16.91,0,0,0,7.06-7.66,24.83,24.83,0,0,0,1.74-4.92,1,1,0,0,1,.07-.18Z"/><path class="cls-3" d="M127,71.11a15.79,15.79,0,0,1,1.55,5.6,7.9,7.9,0,0,1-1.23,4.53,9.37,9.37,0,0,0-1.56,5.57,23.35,23.35,0,0,0,.47,2.63c.1.49.07.59-.42.59-2.39,0-4.78,0-7.17,0-.43,0-.51-.18-.51-.55A10.7,10.7,0,0,1,122,81a15.31,15.31,0,0,0,3.36-3.68,10.2,10.2,0,0,0,1.31-3.78c.09-.63.14-1.26.22-1.89C126.88,71.51,126.94,71.38,127,71.11Z"/></svg>