<svg xmlns="http://www.w3.org/2000/svg" xmlns:xlink="http://www.w3.org/1999/xlink" viewBox="0 0 404.23 345.02"><defs><style>.cls-1{isolation:isolate;}.cls-2{fill:#d9d8d6;}.cls-3{fill:#1d224c;}.cls-4{fill:#10cfc9;}.cls-5{fill:#00bbb4;}.cls-6{fill:#ff5e69;}.cls-7{fill:#eba900;}.cls-8{fill:#ffc600;}.cls-16,.cls-17,.cls-18,.cls-9{fill:none;stroke-linecap:round;stroke-linejoin:round;}.cls-9{stroke:#fff;}.cls-10{fill:#f0ae95;}.cls-11{fill:#f5333f;}.cls-12{fill:#fec4ad;}.cls-13{fill:#311613;}.cls-14{fill:#fff;}.cls-15{fill:url(#linear-gradient);}.cls-16,.cls-17,.cls-18{stroke:#b6c8e1;}.cls-16{stroke-width:3px;}.cls-18{stroke-width:2px;}.cls-19{fill:url(#linear-gradient-2);}.cls-20,.cls-23{mix-blend-mode:multiply;}.cls-20{fill:url(#linear-gradient-3);}.cls-21{fill:#b6c8e1;}.cls-22{fill:url(#linear-gradient-4);}.cls-23{fill:url(#linear-gradient-5);}.cls-24{fill:#f89d61;}</style><linearGradient id="linear-gradient" x1="-76.54" y1="109.73" x2="-53.02" y2="109.73" gradientTransform="translate(206.44 73.91) rotate(-18.97)" gradientUnits="userSpaceOnUse"><stop offset="0" stop-color="#d03532"/><stop offset="0.28" stop-color="#c62427"/><stop offset="0.72" stop-color="#ba0e19"/><stop offset="1" stop-color="#b50614"/></linearGradient><linearGradient id="linear-gradient-2" x1="682.14" y1="299.59" x2="695.64" y2="299.59" gradientTransform="matrix(-1, 0, 0, 1, 893.4, 0)" gradientUnits="userSpaceOnUse"><stop offset="0" stop-color="#343a44"/><stop offset="0.3" stop-color="#232d3e"/><stop offset="0.64" stop-color="#182439"/><stop offset="1" stop-color="#142138"/></linearGradient><linearGradient id="linear-gradient-3" x1="685.73" y1="299.59" x2="692.05" y2="299.59" gradientTransform="matrix(-1, 0, 0, 1, 893.4, 0)" gradientUnits="userSpaceOnUse"><stop offset="0" stop-color="#eef4fb"/><stop offset="0.31" stop-color="#e3edf8"/><stop offset="1" stop-color="#cfe1f3"/></linearGradient><linearGradient id="linear-gradient-4" x1="750.25" y1="299.59" x2="763.75" y2="299.59" xlink:href="#linear-gradient-2"/><linearGradient id="linear-gradient-5" x1="753.84" y1="299.59" x2="760.16" y2="299.59" xlink:href="#linear-gradient-3"/></defs><title>REDIMIR</title><g class="cls-1"><g id="Capa_1" data-name="Capa 1"><ellipse id="_Path_" data-name="&lt;Path&gt;" class="cls-2" cx="171.65" cy="304.15" rx="101.23" ry="7.36"/><path class="cls-3" d="M154.12,67.9a5.55,5.55,0,0,1,.32-5.39c2.42-3.61,8.48-2.83,8.48-2.83l1.86-3.7a12.86,12.86,0,0,0-9.11,2.45c-5.72,4.42-4.57,10.24-4.57,10.24Z"/><path class="cls-3" d="M155.1,73.54S143,64.48,140.26,68.82,144.32,80.4,147,80.1c3.13-.34,7.79-4.74,7.79-4.74l-.71,5.56s-2.19,1.47-7.94.72C140,80.85,135.77,72.76,138.7,69c3.4-4.41,16.17-3.72,16.17-3.72Z"/><path class="cls-3" d="M145.13,63.88c-4.19-1.49-8.7-1.47-11.24.29L133.51,61s7.82-7.55,18.09,5.5l-1.8,1.14S150.13,65.66,145.13,63.88Z"/><path class="cls-3" d="M152.07,64.18c-.7-6.05-1.86-11.91-.14-13s6.14,6.39,2,15.91l6,4a44.93,44.93,0,0,0-4.12-17.11c-4.05-8.45-9.56-1.61-5.31,12.29Z"/><polygon class="cls-4" points="178.35 64.15 132.77 88.42 154.15 126.7 199.72 102.44 178.35 64.15"/><polygon class="cls-5" points="179.7 63.69 132.07 89 126.24 78.98 174.85 53.26 179.7 63.69"/><polygon class="cls-3" points="181.44 112.25 175.31 115.49 147.78 67.53 153.91 64.29 181.44 112.25"/><polygon class="cls-6" points="294.83 98.42 259.45 139.45 308.06 181.88 344.1 141.4 294.83 98.42"/><polygon class="cls-4" points="280.6 114.69 274.8 121.66 324.02 164.42 330.11 157.68 280.6 114.69"/><polygon class="cls-4" points="280.27 157.61 287.6 164.01 323.06 123.05 315.54 116.47 280.27 157.61"/><polygon class="cls-7" points="260.99 104.82 222.14 87.84 245.36 30 284.2 46.99 260.99 104.82"/><polygon class="cls-7" points="228.36 72.35 222.14 87.84 260.99 104.82 267.21 89.33 228.36 72.35"/><polygon class="cls-8" points="246.78 98.61 207.94 81.63 235.21 25.57 274.06 42.55 246.78 98.61"/><polygon class="cls-8" points="215.25 66.61 207.94 81.63 246.78 98.61 254.09 83.59 215.25 66.61"/><path class="cls-9" d="M260.56,43l-1.3,3a8,8,0,0,1-10.54,4.13h0a8,8,0,0,1-4.13-10.55l1.29-3"/><path class="cls-10" d="M183.84,218.17s19.56-28.66,23-33.7,7.47-8.51,13.43-7,37.11,16.37,49.37,20.68a67.47,67.47,0,0,0,16.52,3.42,12.54,12.54,0,0,0,7.87-2.27l-10.2,11.3s-25.75-5.48-36.43-7.92S221,193.47,221,193.47l-16.36,39Z"/><path class="cls-11" d="M279.84,209.33l8,7.3,1.85-.47-2.2-3.79,8-1.32,9.43-18L294,199.32S287.23,208.42,279.84,209.33Z"/><path class="cls-12" d="M136.92,158.73c0,.15,0,.3,0,.46a5.6,5.6,0,0,1-1.39,3.52c-.95.83-6.2,1.2-8,3.81-1.42,2.1-4-2.28-7.06-4.7-7.94-6.21-18-11.55-10.77-20.4s24.5-6.36,24.5-6.36c1.38,3.26,1.78,7.46,2.18,12.11.06.66.14,1.42.22,2.22.16,1.63.34,3.47.41,5.28,0,.18,0,.36,0,.54A27,27,0,0,1,136.92,158.73Z"/><path class="cls-13" d="M117.48,126.38a21.25,21.25,0,0,0-10.88,5.06c-6.45,5.63-7.65,14.45-6.94,26,1.27,20.65-8.29,15.94-14,27.32-6.67,13.35,7,28.05,23.82,21.92,10.49-3.81,15.39-12.33,8.5-36.85-8.58-30.49,8.89-33,8.89-33Z"/><path class="cls-13" d="M131.42,130.75c2,2.72,5.35,4.48,3.86,8s-9.6,2.22-10,5.75-.77,5.33-.77,5.33c-.71-1-2.91-3.48-5.5-1.46s.61,7.08,5.94,7.52l-4.51,5.92s-.38,9.23-5.83,6.13-10.69-9.47-11-21c-.39-14.82,8.75-19.46,13.88-20.57S129,127.41,131.42,130.75Z"/><path class="cls-12" d="M127.86,162.65c0,5.94-.23,8.73,2.06,10.39a25.52,25.52,0,0,1-7.81,1.27,36.87,36.87,0,0,1-7.51-.74l3-16.2,13.69.85Z"/><path class="cls-14" d="M117.81,174.77s2.29,11.16,8.43,12.06,8.21-5.88,8.21-5.88-13-3.83-14.28-7.83Z"/><path class="cls-12" d="M190.37,208.18s29-19.93,33.6-24,9.34-6.4,14.75-3.44,28.9,22,39.71,29.24a67.21,67.21,0,0,0,15.16,7.4,12.53,12.53,0,0,0,8.19-.25l-12.68,8.42S267,215.41,257.27,210.41s-21.8-14-21.8-14L207,227.16Z"/><path class="cls-11" d="M285.57,223.35l6,9.06h1.91l-1.19-4.22,8.1.72,13.58-15.09-12.15,3.34S293,224.31,285.57,223.35Z"/><path class="cls-3" d="M115,171.58s-5.4,14.06,4.54,37c3.5,8.07,21.19,25,29.07,31.21s19.21,15.09,24,16.12,25.73-1.37,34.3-5.49,11.62-1.36,11.62-1.36.38-19.56-6.13-26.42-18.76-19.49-18.76-19.49-19.94,16.43-22,15.4S152.52,190.06,150.8,187s-19-15.4-22.44-15.75A11.26,11.26,0,0,1,115,171.58Z"/><path class="cls-13" d="M123.71,157.43c-4.51,5.92-2.54,13.35,1.59,21.92s-8.17,16.84-24.37,18.75c-20.07,2.36,7.22-39.08,9.76-43.21S123.71,157.43,123.71,157.43Z"/><path class="cls-12" d="M138.21,154.14a1.61,1.61,0,0,1-.34.48,4.46,4.46,0,0,1-.9,0c0,.18,0,.36,0,.54a5.9,5.9,0,0,1-1.76.47l.81-6.24.09-.72.2-1.55c.06.66.14,1.42.22,2.22.26.42.6.93,1,1.46C138.07,152.2,138.52,153.47,138.21,154.14Z"/><polygon class="cls-11" points="213.79 195.93 175.07 209.24 153.78 152.94 192.5 139.63 213.79 195.93"/><polygon class="cls-15" points="169.37 194.16 175.07 209.24 213.79 195.93 208.09 180.85 169.37 194.16"/><polygon class="cls-6" points="199.63 200.8 160.91 214.11 143.66 156.42 182.39 143.11 199.63 200.8"/><polygon class="cls-6" points="156.29 198.66 160.91 214.11 199.63 200.8 195.01 185.35 156.29 198.66"/><path class="cls-9" d="M173.09,152.27l1,2.95a7.73,7.73,0,0,1-4.8,9.83h0a7.75,7.75,0,0,1-9.83-4.81l-1-2.94"/><path class="cls-16" d="M114,188.88l122.54,7.19a.88.88,0,0,1,.77,1.17l-6.45,17.85-12.3,34-87.93,15.27L108.06,165.6a4.69,4.69,0,0,0-3.78-3.64l-22.45-5"/><line class="cls-17" x1="224.47" y1="195.3" x2="208.44" y2="250.86"/><line class="cls-17" x1="211.17" y1="194.45" x2="198.41" y2="252.6"/><line class="cls-17" x1="197.82" y1="193.6" x2="188.46" y2="254.33"/><line class="cls-17" x1="184.42" y1="192.75" x2="178.61" y2="256.04"/><line class="cls-17" x1="170.97" y1="191.9" x2="168.84" y2="257.74"/><line class="cls-17" x1="157.46" y1="191.04" x2="159.16" y2="259.42"/><line class="cls-17" x1="143.9" y1="190.17" x2="149.57" y2="261.08"/><line class="cls-17" x1="125.63" y1="189.31" x2="140.06" y2="262.73"/><line class="cls-17" x1="119.9" y1="211.69" x2="230.87" y2="215.09"/><line class="cls-17" x1="125.78" y1="241.39" x2="224.47" y2="234.12"/><path class="cls-18" d="M130.64,264.37l-9.39,25.37a2.41,2.41,0,0,0,2.18,3.47H205"/><path class="cls-19" d="M197.76,299.59a6.75,6.75,0,1,0,6.75-6.74A6.75,6.75,0,0,0,197.76,299.59Z"/><path class="cls-20" d="M201.35,299.59a3.16,3.16,0,1,0,3.16-3.16A3.16,3.16,0,0,0,201.35,299.59Z"/><path class="cls-21" d="M204.51,301.22h0a4.09,4.09,0,0,0,4-3l1.64-6.08H198.93l1.64,6.08A4.08,4.08,0,0,0,204.51,301.22Z"/><path class="cls-22" d="M129.65,299.59a6.75,6.75,0,1,0,6.75-6.74A6.75,6.75,0,0,0,129.65,299.59Z"/><path class="cls-23" d="M133.24,299.59a3.16,3.16,0,1,0,3.16-3.16A3.15,3.15,0,0,0,133.24,299.59Z"/><path class="cls-21" d="M136.4,301.22h0a4.1,4.1,0,0,0,3.95-3l1.64-6.08H130.81l1.64,6.08A4.1,4.1,0,0,0,136.4,301.22Z"/><polyline class="cls-18" points="129.36 270.37 212.67 254.33 218.57 249.1"/><rect class="cls-21" x="84.05" y="148.91" width="5.08" height="19.07" rx="1.16" ry="1.16" transform="translate(-81.92 223.3) rotate(-82.39)"/><path class="cls-12" d="M190.16,179.94s3.69-7.34,4.4-9.48,3.58-5.24,3.58-5.24l1.19,2.14v1.91l3.81-3.34,1.91,2.38,1.9,3.58,1.43,4.29a58.43,58.43,0,0,1-5.24,5c-2.14,1.67-9.12,4.64-9.12,4.64Z"/><path class="cls-12" d="M190.16,179.94c-3.2,2.25-6.85,5.92-11.83,9.95a154.55,154.55,0,0,1-12.64,9.37S142.94,182.61,140,181s-6.93-5-11.51-1.63c-3,2.23-1.75,6.44,3.26,11.79s34,21.41,36.59,21.85c2.23.39,19.86-21.06,25.73-27.16Q192,183,190.16,179.94Z"/><path class="cls-13" d="M119.9,138.26c1.92,1.71,4.23,7.35,4.23,7.35l13.65-5s-.19-9.4-7.69-9.91Z"/><path class="cls-24" d="M139.93,153.59a3.1,3.1,0,0,1-2.06,1,4.46,4.46,0,0,1-.9,0h-.17l-.75-5.22-.17-1.16.26.44c.11.18.25.41.42.67.26.42.6.93,1,1.46A15.72,15.72,0,0,0,139.93,153.59Z"/><path d="M136.92,158.73c0,.15,0,.3,0,.46a7.36,7.36,0,0,1-3.37-1.12.22.22,0,0,1,.26-.36A7,7,0,0,0,136.92,158.73Z"/><path d="M128.36,145.3a.34.34,0,0,1-.2-.13.44.44,0,0,1,0-.63,5.26,5.26,0,0,1,4.62-1.33.46.46,0,0,1,.32.55.45.45,0,0,1-.54.32,4.34,4.34,0,0,0-3.8,1.13A.45.45,0,0,1,128.36,145.3Z"/><path d="M130.64,149c.18.9.79,1.53,1.38,1.42s.92-.94.74-1.83-.79-1.53-1.38-1.42S130.46,148.06,130.64,149Z"/><path d="M131.13,147.22l2-1S132.39,148.08,131.13,147.22Z"/></g></g></svg>