<svg id="Capa_1" data-name="Capa 1" xmlns="http://www.w3.org/2000/svg" viewBox="0 0 404.23 345.02"><defs><style>.cls-1{fill:#d9d8d6;}.cls-2{fill:#53529e;}.cls-3{fill:#1d224c;}.cls-4{fill:#311613;}.cls-5{fill:#f5333f;}.cls-6{fill:#241613;}.cls-7{fill:#f8ba88;}.cls-8{fill:#f8b588;}.cls-9{fill:#10cfc9;}.cls-10{fill:#ffba98;}.cls-11{fill:#d1333f;}.cls-12{fill:#ffc600;}.cls-13{fill:#ff9700;}.cls-14{fill:#f89d61;}</style></defs><title>REGISTRAR</title><ellipse id="_Path_" data-name="&lt;Path&gt;" class="cls-1" cx="200.33" cy="257.08" rx="101.23" ry="7.36"/><path class="cls-2" d="M119.41,189.72l.22-.06Z"/><path class="cls-3" d="M244.85,228.75c-5.18-4.86-12.52-18.49-12.52-18.49s-7.46,2.88-25.56,3.35-27.85-2.29-27.85-2.29c-5.17,7.67-6.88,15.47-12,19.87-4.32,3.67-20,3.88-20,3.88s18.44,23.23,37.3,23.55c19.41.33,36.53,0,36.53,0s21.37-7,36.21-19.45C256.88,239.17,246.1,229.92,244.85,228.75Z"/><path class="cls-4" d="M214.49,73.87a16.24,16.24,0,0,0-8.89-1,4.17,4.17,0,0,1,1.79-1c-1.52-.11-4.77,1.62-4.77,1.62C181.15,66.89,180.09,97.88,181,105s-6.33,10-16.8,16.39c-20,12.24-20.74,26.76-20.74,26.76l.53.29c.9-1.82,2.78-5.25,4.53-5.87-.05.17-1.78,4.66-2.36,7.21,6.45,4.21,18.64,13.7,27.14,20.43a11.64,11.64,0,0,1,.22-4.57l1.41,5.87c4.55,3.61,7.69,6.16,7.69,6.16-.94-5.74,23.51-38.13,36.75-48.26,3-5.22,3.59-14.11,3.63-14.81-.08,7-1,11-1.9,13.3C232.13,116.22,222.47,77.67,214.49,73.87Z"/><path class="cls-5" d="M193.23,81.63s7.93-7.85,17.23.21C210.46,81.84,204.92,80.67,193.23,81.63Z"/><path class="cls-6" d="M190.21,110.58a67.18,67.18,0,0,1-4-11.23c-1.09-4.32,0-20.67,16.41-19.51a22.06,22.06,0,0,1,9.41,2.8c3.71,2.13,9.18,6.92,4.5,21.46L215.38,109Z"/><path class="cls-7" d="M225.58,201.26c4.4-48.3,2.48-67.9,2.48-67.9s-7-1.67-16.17-4.51c-1-4.3-.52-13.21-.52-13.21L195.3,116c-.53,3.85-.3,9.64-.81,12.92-6.43,2.28-13.91,2.21-21.21,5.61,0,0,9,37.09,12.27,67.93C185.91,205.81,225.19,205.51,225.58,201.26Z"/><path class="cls-8" d="M213.2,117.52c-4.26,4-9.55,9.44-20.89-.6-2.22-2-2.06-5-2.17-9.29-.15-5.12-1.37-8.25-.79-11.2.69-3.53,3.71-5.11,10-5.64,11.49-1,17.29,1.64,16.51,7.35C214.08,110.86,217.53,113.4,213.2,117.52Z"/><path class="cls-6" d="M204.22,90s-4.92,10.66-11.81,13-13.1-3.48-13.1-3.48a10.85,10.85,0,0,0,9.9-6.2C191,89.85,200.35,84.39,204.22,90Z"/><path class="cls-6" d="M203.91,90.6s6.81-.13,8.36,2.16,1.76,4.83,2.54,6.11a5,5,0,0,1,.65,2.73s5.86-15-7.68-12C206.8,89.79,203.91,90.6,203.91,90.6Z"/><path class="cls-9" d="M254.39,178.31s-11.45,2.29-16.68,8.66c0,0-5.48-12.19-6.07-12.1h0c-.55.22-5.62,25.52-5,27.32s5.8,7.93,6.46,9.24c.29.58-3.06,3-7.85,5.52-6,3.17-14.33,6.5-20.53,6.5-11,0-28.5-5.15-28.26-8.64a.71.71,0,0,1,0-.14c.25-1.22,7.64-9.21,8-13s-5.55-27-6.3-26.95h0c-.65.55-5.94,13.3-5.94,13.3s-10.74-8.12-15.49-8.61c0,0,10.52-39.09,16.33-45.31,0,0,3.19-1.5,12.52-3.16,0,0,6.59,20.5,18.7,29.33a47.33,47.33,0,0,0,16.1-29s12.82,2.94,13.91,4.25S254.39,178.31,254.39,178.31Z"/><path class="cls-9" d="M192.42,203.66c-1.2,1.9-12,11.94-15.93,11.15a.71.71,0,0,1,0-.14c.25-1.22,7.64-9.21,8-13s-5.55-27-6.3-26.95a6.25,6.25,0,0,1,2.16-2.72C183.05,170.07,193.73,201.59,192.42,203.66Z"/><path class="cls-9" d="M225.28,217c-3.33-5.48-5.74-13.34-6.06-14.35-.49-1.56,6.55-27.08,10-28.38,1.38-.53,2.09-.08,2.44.65h0c-.55.22-5.62,25.52-5,27.32s5.8,7.93,6.46,9.24C233.42,212,230.07,214.43,225.28,217Z"/><path class="cls-7" d="M260.4,236.28c-.5.52-1,1-1.59,1.51-4.4,3.81-17.23,8-29.56,11.34-3.87,1.06-7.69,2-11.19,2.89-2.89.9-8.77,2.76-15.05,5-8.88,3.09-12.77,1.61-17.17.84s-9.36,2.3-15.88-.08-4.87-15.22-4.87-15.22c2.21-1.45,10.79-1.87,16.6,2.3s13.59,3.4,13.59,3.4a5.15,5.15,0,0,0,2-.93s7.52-4.4,21.19-15.78c2-1.66,4.12-3.47,6.38-5.43,5.2-4.54,9.94-10,14.81-13.8a21.67,21.67,0,0,1,8.67-4.53c13.95-3,18.91,2.46,18.91,2.46S270.35,225.93,260.4,236.28Z"/><path class="cls-7" d="M194.8,236.1v18.64c-4-1.35-7.51-2.46-9.75-3.17-3.39-.91-7.05-1.93-10.71-3-10-3-20-6.63-24.43-10-.33-.25-.62-.5-.89-.74-11-10.26-6.76-28.46-6.76-28.46s3.57-4.55,16.47-1.59a28.22,28.22,0,0,1,9.82,4.92,137.07,137.07,0,0,1,13.13,11.45c1.47,1.38,2.89,2.71,4.28,4C189.18,231.07,192.16,233.76,194.8,236.1Z"/><path class="cls-10" d="M200.33,256.63c.65.23,1.26.43,1.86.61-8.31,2.73-12.08,1.32-16.35.57s-9.36,2.3-15.88-.08-4.87-15.22-4.87-15.22c1.88-1.23,8.38-1.72,13.85.73a23.7,23.7,0,0,1-4.6,5.29c3.66,1.11,7.32,2.13,10.71,3C188.27,252.59,194.11,254.46,200.33,256.63Z"/><path class="cls-5" d="M203.16,243.35c-3.87,2.74-5.9,3.93-5.9,3.93a5.15,5.15,0,0,1-2,.93s-7.78.77-13.59-3.4a16,16,0,0,0-2.75-1.57c.8-1.19,1.53-2.45,2.21-3.71A71.8,71.8,0,0,0,186,228.09c6.5,6,12,10.85,15.73,14Z"/><path class="cls-11" d="M237.17,246.87c-.22,3-1.09,10.17-4.33,11.22-5.64,1.82-10.06-1.1-14.72-.25-4.33.79-7.9,1.9-15.93-.6L203,257c6.28-2.19,12.16-4.05,15.05-5,3.5-.86,7.32-1.83,11.19-2.89C231.9,248.41,234.56,247.66,237.17,246.87Z"/><path class="cls-7" d="M194.8,206.86,193.23,217c-14.76.19-40.16-12.21-40.16-12.21-3.6-5.58,3.14-24.06,3.74-25.66,5.92.48,11,6.06,14.4,8.26l-3.87,8.13C168.69,196,194.8,206.86,194.8,206.86Z"/><path class="cls-7" d="M215.85,206.86,217.42,217c14.76.19,40.16-12.21,40.16-12.21,3.6-5.58-3.47-24.63-4.07-26.23-5.66,1.11-11.93,4.29-14.95,7.52l4.75,9.44C242,196,215.85,206.86,215.85,206.86Z"/><rect class="cls-12" x="176.49" y="183.38" width="57.89" height="36.61"/><path class="cls-13" d="M200.55,201.69a4.88,4.88,0,1,1,4.88,4.88A4.89,4.89,0,0,1,200.55,201.69Z"/><path class="cls-3" d="M168.55,212.66c-11.59,4-16.63,18.6-18.64,25.87-.33-.25-.62-.5-.89-.74-11-10.26-6.76-28.46-6.76-28.46s3.57-4.55,16.47-1.59A28.22,28.22,0,0,1,168.55,212.66Z"/><path class="cls-3" d="M260.4,236.28c-3.5-8.57-15.58-19.56-20.76-24a21.67,21.67,0,0,1,8.67-4.53c13.95-3,18.91,2.46,18.91,2.46S270.35,225.93,260.4,236.28Z"/><path class="cls-5" d="M229.25,249.13c-3.87,1.06-7.69,2-11.19,2.89-2.89.9-8.77,2.76-15.05,5-8.88,3.09-12.77,1.61-17.17.84s-9.36,2.3-15.88-.08-4.87-15.22-4.87-15.22c2.21-1.45,10.79-1.87,16.6,2.3s13.59,3.4,13.59,3.4a5.15,5.15,0,0,0,2-.93s7.52-4.4,21.19-15.78C219.82,235.4,223.52,244.64,229.25,249.13Z"/><path class="cls-11" d="M203.16,243.35c-3.87,2.74-5.9,3.93-5.9,3.93a5.15,5.15,0,0,1-2,.93s-7.78.77-13.59-3.4a16,16,0,0,0-2.75-1.57c.8-1.19,1.53-2.45,2.21-3.71,4.25,1.44,12.83,3.77,20.54,2.57Z"/><path d="M208.1,105.53c.18.9.8,1.53,1.38,1.42s.92-.94.74-1.84-.79-1.53-1.38-1.41S207.93,104.64,208.1,105.53Z"/><path d="M208.6,103.8l2-1S209.85,104.66,208.6,103.8Z"/><path class="cls-14" d="M203.93,105.32a24.62,24.62,0,0,0,2.53,6.18,3.89,3.89,0,0,1-3.3.22Z"/><path d="M205,116.29a7.36,7.36,0,0,1-5.37-1,.21.21,0,0,1,0-.31.22.22,0,0,1,.31,0,7.27,7.27,0,0,0,6.56.51.21.21,0,0,1,.29.13.22.22,0,0,1-.12.29A8.64,8.64,0,0,1,205,116.29Z"/><path d="M194.34,101.47a.39.39,0,0,1-.21-.13.45.45,0,0,1,0-.63,5.26,5.26,0,0,1,4.62-1.33.45.45,0,0,1-.23.87,4.34,4.34,0,0,0-3.8,1.13A.44.44,0,0,1,194.34,101.47Z"/><path d="M212.38,101a.6.6,0,0,1-.21-.08,4.4,4.4,0,0,0-3.9-.7.42.42,0,0,1-.57-.25.45.45,0,0,1,.25-.58,5.23,5.23,0,0,1,4.74.8.45.45,0,0,1,.11.62A.47.47,0,0,1,212.38,101Z"/><path d="M196.62,105.53c.17.9.79,1.53,1.38,1.42s.91-.94.74-1.84-.8-1.53-1.38-1.41S196.44,104.64,196.62,105.53Z"/><path d="M197.11,103.8l2-1S198.37,104.66,197.11,103.8Z"/></svg>