<svg id="Capa_1" data-name="Capa 1" xmlns="http://www.w3.org/2000/svg" viewBox="0 0 404.23 345.02"><defs><style>.cls-1{fill:#d9d8d6;}.cls-2,.cls-3{fill:#ffc600;}.cls-3{opacity:0.1;}.cls-4,.cls-5,.cls-8{fill:#fff;}.cls-4{opacity:0.2;}.cls-5{opacity:0.4;}.cls-6{opacity:0.6;}.cls-7{fill:#1a2e35;}.cls-9{fill:#f8ba88;}.cls-10{fill:#f5333f;}.cls-11{fill:#311613;}.cls-12{fill:#241613;}.cls-13{fill:#10cfc9;}.cls-14{fill:#f8b588;}.cls-15{fill:#311649;}.cls-16{fill:#f89d61;}.cls-17{fill:#1d224c;}</style></defs><title>PAGAR</title><ellipse id="_Path_" data-name="&lt;Path&gt;" class="cls-1" cx="211.05" cy="297.9" rx="101.23" ry="7.36"/><rect class="cls-2" x="221.52" y="86.57" width="85.35" height="52.09" rx="4.35" ry="4.35" transform="translate(-23 111.12) rotate(-22.79)"/><rect class="cls-3" x="221.52" y="86.57" width="85.35" height="52.09" rx="4.35" ry="4.35" transform="translate(-23 111.12) rotate(-22.79)"/><rect class="cls-4" x="224.02" y="104.12" width="19.2" height="11.72" rx="2.1" ry="2.1" transform="translate(-24.36 99.07) rotate(-22.79)"/><rect class="cls-5" x="233.88" y="131.78" width="16.27" height="4.23" rx="0.79" ry="0.79" transform="translate(-32.97 104.19) rotate(-22.79)"/><rect class="cls-5" x="251.51" y="124.38" width="16.27" height="4.23" rx="0.79" ry="0.79" transform="matrix(0.92, -0.39, 0.39, 0.92, -28.72, 110.44)"/><rect class="cls-5" x="269.14" y="116.97" width="16.27" height="4.23" rx="0.79" ry="0.79" transform="translate(-24.48 116.7) rotate(-22.79)"/><rect class="cls-5" x="286.78" y="109.56" width="16.27" height="4.23" rx="0.79" ry="0.79" transform="translate(-20.23 122.95) rotate(-22.79)"/><g class="cls-6"><circle class="cls-7" cx="287.27" cy="87.44" r="5.86" transform="translate(-12.4 68.29) rotate(-13.27)"/><circle class="cls-8" cx="280.16" cy="90.42" r="5.86" transform="translate(39.75 260.33) rotate(-53.14)"/></g><path class="cls-9" d="M261.06,79.69a9.82,9.82,0,0,0-11,6.86s-10.9,4.5-14.59,6.16c-3.41,1.54-13.81,6.66-13.81,6.66S202.33,76.4,195,75.8l1.25,17.55s8.61,9.4,12,12.43c2.31,2,10.9,7.81,10.9,7.81s8.14-2.68,19.16-10.76C241.83,100.3,251.7,92,251.7,92c2.71.37,5.08-.34,7.26-3.46s2.79-1.92,4.17-4.25C265,81.18,262.07,80,261.06,79.69Z"/><polygon class="cls-9" points="162.73 274.97 167.03 293.06 173.46 293.03 173.7 274.97 162.73 274.97"/><path class="cls-10" d="M170.29,291.52c-7.28-.31-7.56,7.09-7.56,7.09h14.88S177.57,291.21,170.29,291.52Z"/><polygon class="cls-9" points="218.58 275.74 229.08 293.06 235.52 293.03 230.34 273.36 218.58 275.74"/><path class="cls-10" d="M232.35,291.52c-7.28-.31-7.56,7.09-7.56,7.09h14.88S239.63,291.21,232.35,291.52Z"/><path class="cls-11" d="M185.08,37.19a12.5,12.5,0,0,0-6.75-1.29,3.12,3.12,0,0,1,1.42-.68c-1.15-.17-3.73,1-3.73,1C160,30,157.44,53.66,157.77,59.15S152.38,66.44,144,70.77c-16,8.26-17.35,19.32-17.35,19.32s.26.16.4.25c.79-1.34,2.42-3.85,3.79-4.23a57.62,57.62,0,0,0-2.21,5.38c4.7,3.58,13.5,11.5,19.64,17.13a9,9,0,0,1,.41-3.49l.76,4.57c3.28,3,5.55,5.14,5.55,5.14C154.6,110.39,175.09,87,185.78,80c2.6-3.84,3.52-10.6,3.59-11.13-.45,5.36-1.36,8.37-2.18,10.07C196.24,70.55,191,40.53,185.08,37.19Z"/><path class="cls-9" d="M185.14,80.29c-1.48-.69-.57-13.33-.57-13.33L172,64.47c-.87,4.14-.42,11.37-2,11.68,0,0,2.36,4.8,6.05,5.8C180,83,185.2,80.32,185.14,80.29Z"/><path class="cls-10" d="M172.3,40.63s6.77-6.26,13.44.42A121.68,121.68,0,0,0,172.3,40.63Z"/><path class="cls-12" d="M171.47,63.32s-3.48-5.51-4.32-10.21c-.59-3.36,1.12-15.81,13.63-14a17,17,0,0,1,7.05,2.67c2.72,1.83,6.64,5.79,2.25,16.66L189,62.09Z"/><path class="cls-13" d="M197.58,154.84h0s-.42-1.41-.32-22.47c0-.59,5.65-24.8,5.52-27.46-.08-1.67-.24-3.35-.46-5l.16.11c.07-3.19,5.81-16.37,5.81-16.37-10.16-8.63-13.29-8-13.29-8h0s-1.92-.42-10.3-.65a8.22,8.22,0,0,1-7.14,3.86,7.94,7.94,0,0,1-6.94-3.39c-5.61.58-12.38,3-16.42,6.09h0s-3.48,4.49-5.64,14.85l10.29,4.64c.42,2.65.76,5.46,1,8.36a77.55,77.55,0,0,1-.47,17.66c-.49,3.14-3.6,7.62-7.69,17.83-.32.78-.64,1.6-1,2.45l.12,0c-.76,2.1-2.31,7.47-3.11,17.76-1.48,19.25-.39,55.14,13.2,116.89H178.2c.38,0,.27-49.31.12-88.56l.18.48c15.64,41.32,38.55,88.28,38.55,88.28H235C231.88,265.3,206.16,182.32,197.58,154.84Z"/><path class="cls-13" d="M217.05,282.24s-22.91-47-38.55-88.28c-.44-5.73-1.19-14,2.4-16.81C180.9,177.15,219.06,247.8,217.05,282.24Z"/><path class="cls-13" d="M172.17,282H160.94c-13.59-61.75-14.68-97.64-13.2-116.89C151.11,182.31,170.37,280.09,172.17,282Z"/><path class="cls-13" d="M164.5,126.41c-1.67,2.36-4.86,16.69-12.81,18.49,4.09-10.21,7.2-14.69,7.69-17.83a77.55,77.55,0,0,0,.47-17.66c2.66-4.66,4.65-7.86,4.65-7.86.21-.75,4.22-13.18,5.51-2.07S166.36,123.77,164.5,126.41Z"/><path class="cls-14" d="M186.79,70.29s-15.72.26-15.73-9.53-2.05-16.36,8-16.94,12,3.16,12.79,6.43S190.88,70,186.79,70.29Z"/><path class="cls-12" d="M191.37,44.8c-2.42-2.94-4.26-2.3-5.29-1.42-1.48-2.22-4.38-2.06-7.16-1.18-3.69,1.16-6.89,2.13-8.11,7.54a11.5,11.5,0,0,1-5,7s2.86,1.77,9.47.07c5.2-1.33,9-8.73,10.34-11.83.94.83,2.91,2.75,3.5,4.64.79,2.49,1.14,7.62,2.64,7.45C191.78,57,195,49.22,191.37,44.8Z"/><path class="cls-15" d="M253.1,91.92a.53.53,0,0,0-.24-.65.4.4,0,0,0-.52.33.53.53,0,0,0,.24.65A.4.4,0,0,0,253.1,91.92Z"/><path class="cls-9" d="M159.56,106.49c-1.25,8.2-2.84,19-2.84,20.52,0,3.35-4.44,10.55-8.87,16.92S139,155.82,139,155.82l.06.51c.42,2.36-1.23,5.44-3.9,7.46s-1.77,1.73-3.63,3.21-2.63-1.62-2.63-1.62a9.19,9.19,0,0,1,5.28-10.3C139.85,143.5,147.24,126,147.24,126c1-20,1.71-27.08,2-29.29l9.64,4.35Z"/><path d="M186.48,57.58c.12.62.55,1.06,1,1s.64-.65.52-1.27-.56-1.06-1-1S186.36,57,186.48,57.58Z"/><path d="M186.82,56.38l1.41-.73S187.7,57,186.82,56.38Z"/><path class="cls-16" d="M183.88,58a16.88,16.88,0,0,0,1.76,4.29,2.76,2.76,0,0,1-2.3.15Z"/><path d="M185.86,65.25a5.17,5.17,0,0,1-3.79-.11.15.15,0,0,1-.07-.21.16.16,0,0,1,.21-.07,5.07,5.07,0,0,0,4.56-.37.15.15,0,0,1,.15.27A5.87,5.87,0,0,1,185.86,65.25Z"/><path d="M176.92,54.76a.24.24,0,0,1-.14-.09.32.32,0,0,1,0-.44,3.66,3.66,0,0,1,3.22-.92.3.3,0,0,1,.21.38.31.31,0,0,1-.37.22,3,3,0,0,0-2.64.79A.33.33,0,0,1,176.92,54.76Z"/><path d="M189.45,54.42a.35.35,0,0,1-.14-.06,3.07,3.07,0,0,0-2.71-.48.31.31,0,1,1-.23-.57,3.61,3.61,0,0,1,3.3.55.31.31,0,0,1,.07.43A.33.33,0,0,1,189.45,54.42Z"/><path d="M178.51,57.58c.12.62.55,1.06,1,1s.64-.65.52-1.27-.55-1.06-1-1S178.38,57,178.51,57.58Z"/><path d="M178.85,56.38l1.41-.73S179.72,57,178.85,56.38Z"/><path class="cls-17" d="M235,282H217.05s-22.9-47-38.55-88.28l-.18-.48c.15,39.25.26,88.57-.12,88.57H160.94c-13.59-61.76-14.68-97.65-13.2-116.9.73-9.32,2.06-14.61,2.87-17.08h46.72a51.89,51.89,0,0,0,.27,6.77h0C206.16,182.12,231.88,265.11,235,282Z"/><path class="cls-13" d="M147.5,151.73c-.15,1,0,2.14.85,2.53a2.56,2.56,0,0,0,2.16-.42c3.57-1.93,7.36-3.86,11.41-3.75,3,.09,5.84,1.28,8.79,1.77,4.26.71,8.63-.05,12.92.37,4,.38,8,1.77,11.88.77a2.58,2.58,0,0,0,1.63-1,2.8,2.8,0,0,0,.22-1.57,59,59,0,0,0-1.12-8.59,6,6,0,0,0-4.86-5.51,64.17,64.17,0,0,0-12.66-3.19c-2.32-.34-4.86-.51-6.85.75-.91.57-1.63,1.4-2.55,2a12.27,12.27,0,0,1-2.41,1,32.71,32.71,0,0,0-14.44,9.71c.2-.24-.21-2-.25-2.29A13.6,13.6,0,0,0,147.5,151.73Z"/></svg>