<svg xmlns="http://www.w3.org/2000/svg" viewBox="0 0 404.23 345.02"><defs><style>.cls-1{isolation:isolate;}.cls-2{fill:#d9d8d6;}.cls-3{fill:#1d224c;}.cls-4{fill:#311613;}.cls-5{fill:#f5333f;}.cls-6{fill:#241613;}.cls-7{fill:#4d4d4d;}.cls-8{fill:#1a1a1a;}.cls-9{opacity:0.5;}.cls-10{fill:#dadada;}.cls-11,.cls-20{fill:#fff;}.cls-11{mix-blend-mode:screen;}.cls-12{fill:#333;}.cls-13{fill:#ffc600;}.cls-14{fill:#eba900;}.cls-15{fill:#f8ba88;}.cls-16{fill:#002856;}.cls-17{fill:#10cfc9;}.cls-18{fill:#00bbb4;}.cls-19{fill:#f8b588;}.cls-21{fill:#f89d61;}.cls-22{fill:#c8c8c8;}</style></defs><title>BUSCAR</title><g class="cls-1"><g id="Capa_1" data-name="Capa 1"><path class="cls-2" d="M313.67,304.48c0,4.07-45.32,7.36-101.23,7.36s-101.23-3.29-101.23-7.36,45.32-7.35,101.23-7.35H215c16.8,0,32.58.35,46.39.9C292.54,299.3,313.67,301.71,313.67,304.48Z"/><path class="cls-3" d="M273.51,139.4c-5.37,1.91-6.73,7.12-6.9,11.22a30.65,30.65,0,0,0,1,8.79.49.49,0,0,0,.52.4.44.44,0,0,0,.24-.58,29.9,29.9,0,0,1-1-8.43c.25-5.75,2.6-9.32,7-10.62a8,8,0,0,1,7.83,1.42c4.16,3.41,5.55,10.49,5.56,10.56a.52.52,0,0,0,.49.46c.22,0,.35-.25.3-.53s-1.49-7.59-6-11.29a8.76,8.76,0,0,0-8.51-1.59Z"/><path class="cls-4" d="M191.45,94.16c-.9-1.85-1.9-5.13-2.39-11,.08.58,1.09,8,3.92,12.13,11.65,7.64,34,33.17,33.53,38,0,0,2.47-2.31,6-5.6l.83-5a9.77,9.77,0,0,1,.45,3.79c6.69-6.12,16.27-14.76,21.4-18.66a60.34,60.34,0,0,0-2.41-5.86c1.5.41,3.27,3.15,4.13,4.61l.43-.27s-1.52-12.05-18.9-21.05c-9.1-4.72-15.35-6.67-15-12.66s-2.39-31.76-19.89-25c0,0-2.81-1.25-4.07-1.06a3.38,3.38,0,0,1,1.55.73,13.56,13.56,0,0,0-7.35,1.41C187.33,52.37,181.59,85.08,191.45,94.16Z"/><path class="cls-5" d="M212.08,53.07s-7.37-6.81-14.64.47A132.51,132.51,0,0,1,212.08,53.07Z"/><path class="cls-6" d="M212.38,77.85s3.79-6,4.7-11.13c.65-3.66-1.21-17.22-14.85-15.27a18.53,18.53,0,0,0-7.68,2.9c-3,2-7.23,6.32-2.46,18.16l1.25,4Z"/><rect class="cls-7" x="106.56" y="44.51" width="2.27" height="6.77" transform="translate(-9.96 40.85) rotate(-20.55)"/><path class="cls-8" d="M108.65,47.2l-.9-2.38a10.86,10.86,0,0,1-1,.45c-.36.13-.72.25-1.08.35l.89,2.38c.36-.1.72-.22,1.08-.35S108.31,47.36,108.65,47.2Z"/><g class="cls-9"><circle class="cls-10" cx="102.26" cy="33.4" r="11.66"/></g><path class="cls-11" d="M93,31.19a.7.7,0,0,1-.91-.86A10.43,10.43,0,0,1,93,28.26a.7.7,0,1,1,1.22.68,9.53,9.53,0,0,0-.76,1.8A.72.72,0,0,1,93,31.19Z"/><path class="cls-11" d="M96.75,42.13A.72.72,0,0,1,96.1,42a10.67,10.67,0,0,1-3.78-4.91A10.87,10.87,0,0,1,91.66,34a.7.7,0,1,1,1.4-.08,9.18,9.18,0,0,0,3.85,7,.71.71,0,0,1,.17,1A.81.81,0,0,1,96.75,42.13Z"/><path class="cls-12" d="M97.28,20.11a14.2,14.2,0,1,0,18.28,8.31A14.19,14.19,0,0,0,97.28,20.11Zm9.07,24.21a11.66,11.66,0,1,1,6.83-15A11.66,11.66,0,0,1,106.35,44.32Z"/><rect class="cls-12" x="110.39" y="50.43" width="4.02" height="20.06" transform="translate(-14.07 43.3) rotate(-20.55)"/><rect class="cls-7" x="111.04" y="50.79" width="0.8" height="20.06" transform="translate(-14.26 42.98) rotate(-20.55)"/><rect class="cls-8" x="113" y="49.96" width="1.32" height="20.06" transform="translate(-13.82 43.71) rotate(-20.55)"/><polygon class="cls-13" points="294.92 195.19 258.7 209.38 242.24 160.58 276.15 147.29 294.92 195.19"/><polygon class="cls-13" points="326.46 182.91 270.59 204.79 248.53 158.11 302.94 136.8 326.46 182.91"/><polygon class="cls-14" points="246.01 159.15 264.75 207.01 270.56 204.73 248.53 158.11 246.01 159.15"/><polygon class="cls-15" points="260.56 213.61 282.12 212.07 281.4 217.58 264.89 223.93 260.56 213.61"/><path class="cls-5" d="M273.93,212.19l7.72-2.44,13.12,19.19S282.78,229.94,273.93,212.19Z"/><polygon class="cls-15" points="193.2 274.14 200.76 294.31 195.22 294.57 185.23 279.74 193.2 274.14"/><path class="cls-5" d="M199.19,286.26l3.77,7.17-16.55,16.32S183.3,298.13,199.19,286.26Z"/><path class="cls-16" d="M177.66,163.39S150,205.66,150.53,224.86c0,0,2.14,17.27,36.57,62.46l10.56-8.3s-8.19-41.21-22.49-55.69c0,0,34.16-33.43,35.15-48S177.66,163.39,177.66,163.39Z"/><path class="cls-3" d="M270.42,222.92c-42.24,19.43-64.48,17.87-64.48,17.87-27.12-18.48-17.18-74-17.18-74s14.28-12.09,23.62-8.53a9.52,9.52,0,0,1,4.54,3.73c5.24,7.83,2.26,27.24-.53,40.06-1.47,6.78-2.59,17-2.72,17.46h0c21.89-7.95,54.5-6.86,54.5-6.86S270.44,222.91,270.42,222.92Z"/><path class="cls-3" d="M216.92,162c5.24,7.83,2.26,27.24-.53,40.06l-3,12.15c1.29-5.05-7.94-50.86-7.94-50.86l6.94-5.08A9.52,9.52,0,0,1,216.92,162Z"/><path class="cls-15" d="M206,132.12c4.29-8.58,8-36.29,8-36.29A17.74,17.74,0,0,1,208,76.71L194.85,77s-.16,12.69-6.59,13.78L183.78,90s-26.29,14.55-6.12,73.42l42,2.29S201.73,140.71,206,132.12Z"/><path class="cls-15" d="M274.22,142.69c2.95-1.44,2.3-.79,4.42-1.76s-.26-3-.26-3A9,9,0,0,0,267,138c-5.5-2.2-37.12-12.32-37.12-12.32-3.12-12.81-11.25-31.21-11.25-31.21s-18.51-2.34-17.22,7.25,19.66,33.74,22.12,35.65,42.4,5.46,42.4,5.46C267.83,144.22,271.26,144.13,274.22,142.69Z"/><path class="cls-15" d="M110.44,55.75c.15,2.33,2.26,2.41,2.4,5.69s1.39,4.17,3.54,5.15l35.43,35.13c10.56,4.35,41.42,5.59,41.42,5.59L188.5,91c-7.62-3.93-35.75-1.88-35.75-1.88-12.51-12.61-32.64-25.74-32.64-25.74s2.27-6.81-5.6-9.26C114.51,54.1,110.29,53.42,110.44,55.75Z"/><path class="cls-17" d="M208.05,138.36c.15-5.7,6.58-27.49,6.85-28,0-.07-3.51-16.93-3.51-16.93a2.33,2.33,0,0,0-.94-1.52c-17.08,6.23-21.78-1.15-21.78-1.15s0,0-.08,0c-.55-.21-3.91-1.48-5.57-2-1.81-.52-28.14-.14-29.16,0s-1.25-.25-1.25-.25L144,81.14c.4,2.14-4.66,4.7-7.95,6.12-1.55.68-2.71,1.1-2.71,1.1a65.9,65.9,0,0,0,8,7.92c5.13,4.38,6.72,4.76,6.72,4.76s20.23,5.28,21.36,5.51a.78.78,0,0,1,.54.46,5.23,5.23,0,0,1,.08,2.45h0a39.4,39.4,0,0,0-.63,16.4c.82,3.66.41,21.55,3.26,30.3s11,10.77,18.9,9.15,19.32,3.25,23.59,5.49c3.89,2,8.62,2.21,9.58.08a2,2,0,0,0,.18-.69C225.13,167.33,208,142.25,208.05,138.36Z"/><path class="cls-18" d="M224.93,170.18a2,2,0,0,1-.18.69c-10.47-1.4-24.64-26.57-26.66-30.11-2.17-3.79,11-29.82,14.23-30.9a3.63,3.63,0,0,1,2.86.26.6.6,0,0,0-.28.21c-.27.54-6.7,22.33-6.85,28C208,142.25,225.13,167.33,224.93,170.18Z"/><path class="cls-19" d="M191.47,80.43s16.29,6.41,20.13-3.79,8.52-16.26-1.72-20.78-13.73-1.4-15.84,1.7S187.33,78.5,191.47,80.43Z"/><path class="cls-17" d="M210.45,91.88s5.48,1.25,7.89,1.48,10.35,24.66,10.8,26.93,1,4.53,1,4.53a.63.63,0,0,0,.38.68l13.25,4.65s-3.41,1.35-4.38,9.92c0,0-13.85-1.55-15.4-2.12s-19.25-24.68-19.25-24.68Z"/><path class="cls-18" d="M170,107a.76.76,0,0,0-.54-.46c-1.13-.23-21.36-5.51-21.36-5.51s-1.59-.38-6.72-4.76a65.9,65.9,0,0,1-8-7.92s1.16-.42,2.71-1.1c3.13,3.43,10.34,11.1,12.22,11.21C150.47,98.61,169.83,102.49,170,107Z"/><path class="cls-20" d="M279.5,169.61a3,3,0,1,1,3.94,2A3,3,0,0,1,279.5,169.61Zm3.94-1.45c-.29-.79-1-1.31-1.65-1.07s-.83,1.07-.53,1.87,1,1.32,1.65,1.07S283.73,169,283.44,168.16Zm4.74-5,2-.73-4.24,14.9-2,.73Zm.74,9.81a3,3,0,1,1,3.94,2A3,3,0,0,1,288.92,173Zm3.94-1.45c-.29-.79-1-1.32-1.65-1.07s-.83,1.06-.53,1.87,1,1.31,1.65,1.07S293.15,172.29,292.86,171.51Z"/><path class="cls-6" d="M193.82,54.33c3.31-3,5.33-2,6.38-.76,2.1-2.33,5.43-1.66,8.51-.17,4.09,2,7.64,3.64,8.15,10.12a13.46,13.46,0,0,0,4.61,8.92s-3.63,1.57-11-1.51c-5.81-2.43-8.94-11.65-10-15.47-1.22.8-3.83,2.7-4.84,4.78-1.33,2.77-2.6,8.67-4.31,8.21C191.29,68.45,188.84,58.84,193.82,54.33Z"/><path d="M196.19,67.33c-.25.73-.84,1.19-1.31,1s-.66-.88-.41-1.61.84-1.19,1.32-1S196.45,66.61,196.19,67.33Z"/><path d="M196,65.83l-1.57-1.11S194.84,66.4,196,65.83Z"/><path class="cls-21" d="M199.26,68.21a20.72,20.72,0,0,1-2.83,4.86,3.3,3.3,0,0,0,2.73.57Z"/><path d="M195.65,76.66a6.27,6.27,0,0,0,4.58.5.19.19,0,0,0-.12-.36,6.15,6.15,0,0,1-5.42-1.21.19.19,0,0,0-.26,0,.2.2,0,0,0,0,.27A7.71,7.71,0,0,0,195.65,76.66Z"/><path d="M208.16,65.55a.34.34,0,0,0,.18-.09.38.38,0,0,0,0-.53,4.38,4.38,0,0,0-3.71-1.64.37.37,0,0,0,.09.74,3.66,3.66,0,0,1,3,1.39A.39.39,0,0,0,208.16,65.55Z"/><path d="M193.15,63a.33.33,0,0,0,.19,0,3.66,3.66,0,0,1,3.33-.12.38.38,0,0,0,.37-.66,4.42,4.42,0,0,0-4,.12.36.36,0,0,0-.16.5A.35.35,0,0,0,193.15,63Z"/><path d="M205.78,68.67c-.25.73-.84,1.18-1.31,1s-.66-.89-.41-1.62.84-1.18,1.32-1S206,67.94,205.78,68.67Z"/><path d="M205.57,67.17,204,66.06S204.42,67.73,205.57,67.17Z"/><path class="cls-22" d="M261.34,298a331.25,331.25,0,0,1-40.45,6.7c-1.94.2-4.35.15-5.27-1.57a12,12,0,0,1-.67-6C231.75,297.16,247.53,297.49,261.34,298Z"/></g></g></svg>