<svg id="Capa_1" data-name="Capa 1" xmlns="http://www.w3.org/2000/svg" viewBox="0 0 239.63 222.92"><defs><style>.cls-1{fill:#bcedea;}.cls-2{fill:#10cfc9;}.cls-3{fill:#1d224c;}</style></defs><title>DEPORTES</title><circle class="cls-1" cx="117.01" cy="112.71" r="79.6"/><path class="cls-2" d="M88.27,91.84c-.8.38-1.51.75-2.24,1.06s-1.11.8-.78,1.67c.78,2,1.56,4.08,2.44,6.07a28.2,28.2,0,0,0,5.24,7.89c1.28,1.37,2.65,2.65,3.89,4a30.64,30.64,0,0,1,4.85,7.18c.89,1.83,1.67,3.71,2.51,5.56,0,0,0,.05.14.17.1-.38.2-.67.27-1,.31-1.45.53-2.92.93-4.34a18.71,18.71,0,0,1,3.35-6.61,15.44,15.44,0,0,1,5.79-4.47,19.82,19.82,0,0,1,5.3-1.49,33.42,33.42,0,0,1,6.08-.19c.71,0,1.41.16,2.12.22a3.37,3.37,0,0,0,.55,0c-.12-.82-.29-1.57-.34-2.33a12.64,12.64,0,0,1,2.1-7.78,18,18,0,0,1,7.93-6.8,26.4,26.4,0,0,1,8.88-2.2,23.36,23.36,0,0,1,5.79.11,14.22,14.22,0,0,1,8.56,4.62A18,18,0,0,1,165,98.89a25.18,25.18,0,0,1,1.6,7.22,29.66,29.66,0,0,1,.19,3.88,18.56,18.56,0,0,1-1.23,5.91,15.47,15.47,0,0,1-5.3,6.86,17.83,17.83,0,0,1-4.79,2.61c-1,.38-2.12.7-3.19,1a.84.84,0,0,0-.64.62,40.51,40.51,0,0,1-2.54,6.14A39.76,39.76,0,0,1,138.15,147a27.24,27.24,0,0,1-6.33,3.73,28.06,28.06,0,0,1-5.68,1.67,35.71,35.71,0,0,1-9,.33c-1.58-.11-3.17-.23-4.75-.4-1.77-.2-3.54-.46-5.31-.69a11.32,11.32,0,0,0-4,.05c-1.51.35-3,.73-4.53,1.11a3.52,3.52,0,0,1-2.83-.6,38.86,38.86,0,0,1-8.26-7A39.76,39.76,0,0,1,82.74,139a29.59,29.59,0,0,1-2.94-6.2c-.57-1.73-1.22-3.44-1.77-5.18-.46-1.42-.82-2.87-1.21-4.31s-.67-2.58-1-3.87c-.25-1.08-.45-2.16-.65-3.25-.25-1.37-.47-2.74-.69-4.11-.13-.82-.27-1.65-.34-2.47-.23-2.46-.46-4.92-.62-7.38s-.25-5-.31-7.49a24.07,24.07,0,0,1,.65-6.21,16.87,16.87,0,0,1,5-8.63,31.75,31.75,0,0,1,5.3-4.23A9.71,9.71,0,0,1,91,74.14a6.8,6.8,0,0,1,3,1.32c1.9,1.44,3.83,2.85,5.66,4.38a5.63,5.63,0,0,1,2.1,4.49,1.51,1.51,0,0,1-1,1.55c-.12.05-.19.31-.21.48a3.33,3.33,0,0,1-.91,2,2.1,2.1,0,0,1-1.36.64c-.26,0-.39.09-.4.36a2.64,2.64,0,0,1-2.43,2.18c-.35,0-.51.07-.57.48-.11.68-.71.94-1.29,1.12a6.49,6.49,0,0,1-3.68,0,2.26,2.26,0,0,1-1.33-1C88.43,92.06,88.32,91.91,88.27,91.84Z"/><path class="cls-3" d="M86.66,92.74c-.84.41-1.58.79-2.35,1.12s-1.17.84-.82,1.75c.82,2.14,1.63,4.29,2.56,6.38a29.51,29.51,0,0,0,5.5,8.29c1.35,1.44,2.79,2.78,4.1,4.25a32.62,32.62,0,0,1,5.09,7.55c.93,1.92,1.76,3.9,2.63,5.85l.15.16c.11-.38.22-.7.28-1,.33-1.52.56-3.07,1-4.56a19.39,19.39,0,0,1,3.53-7,16.13,16.13,0,0,1,6.08-4.69A21,21,0,0,1,120,109.3a34.91,34.91,0,0,1,6.38-.19c.75,0,1.49.16,2.23.23a3.63,3.63,0,0,0,.58,0c-.13-.86-.3-1.65-.36-2.45A13.32,13.32,0,0,1,131,98.69a18.8,18.8,0,0,1,8.34-7.14,27.53,27.53,0,0,1,9.32-2.32,24.8,24.8,0,0,1,6.09.12,14.89,14.89,0,0,1,9,4.86,18.49,18.49,0,0,1,3.51,5.94,26.7,26.7,0,0,1,1.7,7.59,34.65,34.65,0,0,1,.19,4.07,19.23,19.23,0,0,1-1.29,6.21,16.4,16.4,0,0,1-5.57,7.22,19.19,19.19,0,0,1-5,2.74c-1.1.39-2.23.73-3.36,1a.88.88,0,0,0-.67.64,42.27,42.27,0,0,1-2.66,6.45,42,42,0,0,1-11.49,14.62,28,28,0,0,1-6.66,3.92,28.54,28.54,0,0,1-6,1.75,37.46,37.46,0,0,1-9.46.35c-1.66-.12-3.33-.24-5-.42-1.86-.21-3.72-.48-5.58-.72a11.69,11.69,0,0,0-4.17,0c-1.59.37-3.18.77-4.76,1.17a3.75,3.75,0,0,1-3-.63,41.2,41.2,0,0,1-8.68-7.39,41.66,41.66,0,0,1-5-6.54,31.31,31.31,0,0,1-3.09-6.51c-.6-1.82-1.28-3.61-1.86-5.44-.48-1.5-.86-3-1.27-4.54-.35-1.35-.7-2.7-1-4.06-.26-1.13-.48-2.27-.68-3.41-.26-1.44-.5-2.88-.73-4.32-.13-.87-.28-1.73-.36-2.6-.23-2.58-.48-5.16-.64-7.75s-.27-5.24-.33-7.87a25.66,25.66,0,0,1,.68-6.53,17.8,17.8,0,0,1,5.21-9.06,33.52,33.52,0,0,1,5.57-4.44,10.2,10.2,0,0,1,7.14-1.59,7,7,0,0,1,3.1,1.39c2,1.51,4,3,5.94,4.6a5.89,5.89,0,0,1,2.21,4.71,1.59,1.59,0,0,1-1,1.63c-.13,0-.21.33-.23.51a3.5,3.5,0,0,1-1,2.13,2.18,2.18,0,0,1-1.43.67c-.27,0-.41.09-.42.38a2.79,2.79,0,0,1-2.55,2.29c-.38,0-.54.07-.61.5-.11.72-.74,1-1.35,1.19a7,7,0,0,1-3.87,0,2.32,2.32,0,0,1-1.39-1Z"/></svg>