<svg id="Capa_1" data-name="Capa 1" xmlns="http://www.w3.org/2000/svg" viewBox="0 0 239.63 222.92"><defs><style>.cls-1{fill:#bcedea;}.cls-2{fill:#10cfc9;}.cls-3{fill:#1d224c;}</style></defs><title>DISCOTECAS</title><circle class="cls-1" cx="118.2" cy="111.05" r="79.6"/><path class="cls-2" d="M143.43,150.39H100.5a2,2,0,0,1,.61-1.59,8.83,8.83,0,0,1,2.9-2.13c1.12-.56,2.27-1.08,3.43-1.56,1-.39,2-.71,3-1s1.86-.58,2.79-.85c.67-.2,1.35-.38,2-.55l3.18-.78a.49.49,0,0,0,.42-.56q0-8.72,0-17.43a1.33,1.33,0,0,0-.39-.86q-3.61-4.42-7.25-8.83c-1.74-2.14-3.49-4.26-5.23-6.4-.22-.26-.37-.34-.71-.16a20.56,20.56,0,0,1-7.17,2.25,19.67,19.67,0,0,1-10.81-1.65,20.34,20.34,0,0,1-8-6.52,19.63,19.63,0,0,1-2.62-4.88,23.6,23.6,0,0,1-1.06-4.23,23.26,23.26,0,0,1-.18-3.53A17.08,17.08,0,0,1,76,84.94a19.14,19.14,0,0,1,1.68-4.39A20.37,20.37,0,0,1,88,71.2a17.73,17.73,0,0,1,4.8-1.27c.85-.08,1.7-.17,2.56-.2a18.07,18.07,0,0,1,6.1.88,19.78,19.78,0,0,1,9.23,6,19.47,19.47,0,0,1,3.59,5.85,25,25,0,0,1,.78,2.45c.06.22.17.34.39.34H149.5a3.48,3.48,0,0,1,2.39.78,3.1,3.1,0,0,1,.31,4.41l-7.68,9.38q-4.82,5.89-9.64,11.77l-6.3,7.69c-1.08,1.33-2.17,2.65-3.25,4a1.11,1.11,0,0,0-.24.63q0,8.74,0,17.51a.47.47,0,0,0,.42.52c.76.18,1.52.35,2.27.54,1.06.28,2.11.57,3.16.87.87.24,1.75.5,2.61.78s1.95.64,2.9,1,2,.85,3,1.34a9.84,9.84,0,0,1,3.34,2.37A2.05,2.05,0,0,1,143.43,150.39ZM100.77,91.62l21.15,25.86a1.94,1.94,0,0,0,.22-.19c1-1.27,2.09-2.53,3.12-3.8a.5.5,0,0,0,0-.47c-.64-.82-1.3-1.62-2-2.42l-9.1-11.1-1.48-1.83.74,0h24.31a.91.91,0,0,0,.83-.38c1.19-1.48,2.4-2.94,3.6-4.41l1-1.24C142.74,91.39,101.11,91.4,100.77,91.62Zm-18.1,3.43a13.79,13.79,0,0,0,6.49,7.16,13.15,13.15,0,0,0,5.49,1.51,9.17,9.17,0,0,1-.72-1,6,6,0,0,1-.59-3.11,26.47,26.47,0,0,1,.75-5.59,1.09,1.09,0,0,0,0-.78,9.3,9.3,0,0,0-.89-1.12.33.33,0,0,0-.48-.07c-.52.34-1,.66-1.6,1a17.55,17.55,0,0,1-5.81,2.33,6.19,6.19,0,0,1-1.55,0A6.32,6.32,0,0,1,82.67,95.05Zm3.66-15.47a.92.92,0,0,0-.2.1,1.46,1.46,0,0,0-.28.21,14.17,14.17,0,0,0-2.67,3.58A12.83,12.83,0,0,0,81.67,89c0,.9.07,1.8.12,2.69,0,.11.11.21.17.31a1.53,1.53,0,0,0,.27-.17c.12-.1.22-.22.34-.33A7.25,7.25,0,0,1,85.94,90c1.51-.34,3.07-.54,4.61-.77.32,0,.42-.16.38-.47a3,3,0,0,1,.38-1.88.43.43,0,0,0-.11-.61c-.39-.34-.78-.69-1.15-1.06C88.47,83.55,86.84,82,86.33,79.58Zm15.53-2a13.12,13.12,0,0,0-12.23-.22,1.25,1.25,0,0,0,.09.12c.15.12.31.23.46.36A11.59,11.59,0,0,1,93,81.57c.57,1.09,1.07,2.22,1.58,3.34a.48.48,0,0,0,.51.31c.47,0,.94,0,1.4,0a.6.6,0,0,0,.67-.4c.41-.87.8-1.74,1.25-2.59a16.25,16.25,0,0,1,2.51-3.69C101.22,78.21,101.54,77.9,101.86,77.57Zm6.77,7.6a13.71,13.71,0,0,0-3.26-5.08,1.06,1.06,0,0,0-.32-.14,7.71,7.71,0,0,1-1.46,2.76c-.65.81-1.33,1.59-2.06,2.46ZM98.34,98.61l-.18.06c0,.87,0,1.74,0,2.61a3.48,3.48,0,0,1-1,2.33,8.9,8.9,0,0,0,4.4-1.21Z"/><path class="cls-2" d="M100.77,91.62c.34-.22,42-.23,42.37,0l-1,1.24c-1.2,1.47-2.41,2.93-3.6,4.41a.91.91,0,0,1-.83.38H113.42l-.74,0,1.48,1.83,9.1,11.1c.66.8,1.32,1.6,2,2.42a.5.5,0,0,1,0,.47c-1,1.27-2.07,2.53-3.12,3.8a1.94,1.94,0,0,1-.22.19Z"/><path class="cls-2" d="M82.67,95.05a6.32,6.32,0,0,0,1,.3,6.19,6.19,0,0,0,1.55,0,17.55,17.55,0,0,0,5.81-2.33c.55-.3,1.08-.62,1.6-1a.33.33,0,0,1,.48.07A9.3,9.3,0,0,1,94,93.29a1.09,1.09,0,0,1,0,.78,26.47,26.47,0,0,0-.75,5.59,6,6,0,0,0,.59,3.11,9.17,9.17,0,0,0,.72,1,13.15,13.15,0,0,1-5.49-1.51A13.79,13.79,0,0,1,82.67,95.05Z"/><path class="cls-2" d="M86.33,79.58c.51,2.39,2.14,4,3.72,5.58.37.37.76.72,1.15,1.06a.43.43,0,0,1,.11.61,3,3,0,0,0-.38,1.88c0,.31-.06.43-.38.47-1.54.23-3.1.43-4.61.77a7.25,7.25,0,0,0-3.37,1.53c-.12.11-.22.23-.34.33A1.53,1.53,0,0,1,82,92c-.06-.1-.17-.2-.17-.31-.05-.89-.14-1.79-.12-2.69a12.83,12.83,0,0,1,1.51-5.51,14.17,14.17,0,0,1,2.67-3.58,1.46,1.46,0,0,1,.28-.21A.92.92,0,0,1,86.33,79.58Z"/><path class="cls-2" d="M101.86,77.57c-.32.33-.64.64-1,1a16.25,16.25,0,0,0-2.51,3.69c-.45.85-.84,1.72-1.25,2.59a.6.6,0,0,1-.67.4c-.46,0-.93,0-1.4,0a.48.48,0,0,1-.51-.31c-.51-1.12-1-2.25-1.58-3.34a11.59,11.59,0,0,0-2.81-3.74c-.15-.13-.31-.24-.46-.36a1.25,1.25,0,0,1-.09-.12A13.12,13.12,0,0,1,101.86,77.57Z"/><path class="cls-2" d="M108.63,85.17h-7.1c.73-.87,1.41-1.65,2.06-2.46A7.71,7.71,0,0,0,105.05,80a1.06,1.06,0,0,1,.32.14A13.71,13.71,0,0,1,108.63,85.17Z"/><path class="cls-2" d="M98.34,98.61l3.17,3.79a8.9,8.9,0,0,1-4.4,1.21,3.48,3.48,0,0,0,1-2.33c0-.87,0-1.74,0-2.61Z"/><polygon class="cls-2" points="100.5 150.38 102.5 152.38 107.05 149.37 106.01 148.67 104.26 148.05 100.5 150.38"/><polygon class="cls-2" points="151.89 85.99 153.89 87.99 152.65 89.76 147.16 88.49 151.89 85.99"/><path class="cls-3" d="M145.43,152.39H102.5a2,2,0,0,1,.61-1.59,8.83,8.83,0,0,1,2.9-2.13c1.12-.56,2.27-1.08,3.43-1.56,1-.39,2-.71,3-1s1.86-.58,2.79-.85c.67-.2,1.35-.38,2-.55l3.18-.78a.49.49,0,0,0,.42-.56q0-8.72,0-17.43a1.33,1.33,0,0,0-.39-.86q-3.61-4.42-7.25-8.83c-1.74-2.14-3.49-4.26-5.23-6.4-.22-.26-.37-.34-.71-.16a20.56,20.56,0,0,1-7.17,2.25,19.67,19.67,0,0,1-10.81-1.65,20.34,20.34,0,0,1-8-6.52,19.63,19.63,0,0,1-2.62-4.88,23.6,23.6,0,0,1-1.06-4.23,23.26,23.26,0,0,1-.18-3.53A17.08,17.08,0,0,1,78,86.94a19.14,19.14,0,0,1,1.68-4.39A20.37,20.37,0,0,1,90,73.2a17.73,17.73,0,0,1,4.8-1.27c.85-.08,1.7-.17,2.56-.2a18.07,18.07,0,0,1,6.1.88,19.78,19.78,0,0,1,9.23,6,19.47,19.47,0,0,1,3.59,5.85,25,25,0,0,1,.78,2.45c.06.22.17.34.39.34H151.5a3.48,3.48,0,0,1,2.39.78,3.1,3.1,0,0,1,.31,4.41l-7.68,9.38q-4.82,5.89-9.64,11.77l-6.3,7.69c-1.08,1.33-2.17,2.65-3.25,4a1.11,1.11,0,0,0-.24.63q0,8.74,0,17.51a.47.47,0,0,0,.42.52c.76.18,1.52.35,2.27.54,1.06.28,2.11.57,3.16.87.87.24,1.75.5,2.61.78s1.95.64,2.9,1,2,.85,3,1.34a9.84,9.84,0,0,1,3.34,2.37A2.05,2.05,0,0,1,145.43,152.39ZM102.77,93.62l21.15,25.86a1.94,1.94,0,0,0,.22-.19c1-1.27,2.09-2.53,3.12-3.8a.5.5,0,0,0,0-.47c-.64-.82-1.3-1.62-2-2.42l-9.1-11.1-1.48-1.83.74,0h24.31a.91.91,0,0,0,.83-.38c1.19-1.48,2.4-2.94,3.6-4.41l1-1.24C144.74,93.39,103.11,93.4,102.77,93.62Zm-18.1,3.43a13.79,13.79,0,0,0,6.49,7.16,13.15,13.15,0,0,0,5.49,1.51,9.17,9.17,0,0,1-.72-1,6,6,0,0,1-.59-3.11,26.47,26.47,0,0,1,.75-5.59,1.09,1.09,0,0,0,0-.78,9.3,9.3,0,0,0-.89-1.12.33.33,0,0,0-.48-.07c-.52.34-1,.66-1.6,1a17.55,17.55,0,0,1-5.81,2.33,6.19,6.19,0,0,1-1.55,0A6.32,6.32,0,0,1,84.67,97.05Zm3.66-15.47a.92.92,0,0,0-.2.1,1.46,1.46,0,0,0-.28.21,14.17,14.17,0,0,0-2.67,3.58A12.83,12.83,0,0,0,83.67,91c0,.9.07,1.8.12,2.69,0,.11.11.21.17.31a1.53,1.53,0,0,0,.27-.17c.12-.1.22-.22.34-.33A7.25,7.25,0,0,1,87.94,92c1.51-.34,3.07-.54,4.61-.77.32,0,.42-.16.38-.47a3,3,0,0,1,.38-1.88.43.43,0,0,0-.11-.61c-.39-.34-.78-.69-1.15-1.06C90.47,85.55,88.84,84,88.33,81.58Zm15.53-2a13.12,13.12,0,0,0-12.23-.22,1.25,1.25,0,0,0,.09.12c.15.12.31.23.46.36A11.59,11.59,0,0,1,95,83.57c.57,1.09,1.07,2.22,1.58,3.34a.48.48,0,0,0,.51.31c.47,0,.94,0,1.4,0a.6.6,0,0,0,.67-.4c.41-.87.8-1.74,1.25-2.59a16.25,16.25,0,0,1,2.51-3.69C103.22,80.21,103.54,79.9,103.86,79.57Zm6.77,7.6a13.71,13.71,0,0,0-3.26-5.08,1.06,1.06,0,0,0-.32-.14,7.71,7.71,0,0,1-1.46,2.76c-.65.81-1.33,1.59-2.06,2.46Zm-10.29,13.44-.18.06c0,.87,0,1.74,0,2.61a3.48,3.48,0,0,1-1,2.33,8.9,8.9,0,0,0,4.4-1.21Z"/><path class="cls-1" d="M102.77,93.62c.34-.22,42-.23,42.37,0l-1,1.24c-1.2,1.47-2.41,2.93-3.6,4.41a.91.91,0,0,1-.83.38H115.42l-.74,0,1.48,1.83,9.1,11.1c.66.8,1.32,1.6,2,2.42a.5.5,0,0,1,0,.47c-1,1.27-2.07,2.53-3.12,3.8a1.94,1.94,0,0,1-.22.19Z"/><path class="cls-1" d="M84.67,97.05a6.32,6.32,0,0,0,1,.3,6.19,6.19,0,0,0,1.55,0,17.55,17.55,0,0,0,5.81-2.33c.55-.3,1.08-.62,1.6-1a.33.33,0,0,1,.48.07A9.3,9.3,0,0,1,96,95.29a1.09,1.09,0,0,1,0,.78,26.47,26.47,0,0,0-.75,5.59,6,6,0,0,0,.59,3.11,9.17,9.17,0,0,0,.72,1,13.15,13.15,0,0,1-5.49-1.51A13.79,13.79,0,0,1,84.67,97.05Z"/><path class="cls-1" d="M88.33,81.58c.51,2.39,2.14,4,3.72,5.58.37.37.76.72,1.15,1.06a.43.43,0,0,1,.11.61,3,3,0,0,0-.38,1.88c0,.31-.06.43-.38.47-1.54.23-3.1.43-4.61.77a7.25,7.25,0,0,0-3.37,1.53c-.12.11-.22.23-.34.33A1.53,1.53,0,0,1,84,94c-.06-.1-.17-.2-.17-.31-.05-.89-.14-1.79-.12-2.69a12.83,12.83,0,0,1,1.51-5.51,14.17,14.17,0,0,1,2.67-3.58,1.46,1.46,0,0,1,.28-.21A.92.92,0,0,1,88.33,81.58Z"/><path class="cls-1" d="M103.86,79.57c-.32.33-.64.64-1,1a16.25,16.25,0,0,0-2.51,3.69c-.45.85-.84,1.72-1.25,2.59a.6.6,0,0,1-.67.4c-.46,0-.93,0-1.4,0a.48.48,0,0,1-.51-.31c-.51-1.12-1-2.25-1.58-3.34a11.59,11.59,0,0,0-2.81-3.74c-.15-.13-.31-.24-.46-.36a1.25,1.25,0,0,1-.09-.12A13.12,13.12,0,0,1,103.86,79.57Z"/><path class="cls-1" d="M110.63,87.17h-7.1c.73-.87,1.41-1.65,2.06-2.46A7.71,7.71,0,0,0,107.05,82a1.06,1.06,0,0,1,.32.14A13.71,13.71,0,0,1,110.63,87.17Z"/><path class="cls-1" d="M100.34,100.61l3.17,3.79a8.9,8.9,0,0,1-4.4,1.21,3.48,3.48,0,0,0,1-2.33c0-.87,0-1.74,0-2.61Z"/></svg>