<svg id="Capa_1" data-name="Capa 1" xmlns="http://www.w3.org/2000/svg" viewBox="0 0 239.63 222.92"><defs><style>.cls-1{fill:#bcedea;}.cls-2{fill:#10cfc9;}.cls-3{fill:#1d224c;}</style></defs><title>EDUCACIÓN</title><circle class="cls-1" cx="116.52" cy="113.59" r="79.6"/><path class="cls-2" d="M74.35,127.69A12,12,0,0,0,76,133.94a6.47,6.47,0,0,0,3.68,2.85q19.76,5.84,39.5,11.69a.61.61,0,0,0,.74-.26l28.92-34.83c.93-1.12,1.86-2.23,2.77-3.37a.72.72,0,0,0,.14-.58,14.84,14.84,0,0,1,.77-9.68,3.49,3.49,0,0,1,5.35-1.63,3.54,3.54,0,0,1,1.3,4,11.37,11.37,0,0,0-.74,3.41,9.25,9.25,0,0,0,.6,3.65,3.54,3.54,0,0,1-.58,3.79l-9.31,11.21-14.64,17.64c-3.55,4.27-7.11,8.54-10.64,12.83a3.87,3.87,0,0,1-4.52,1.34q-20.94-6.24-41.89-12.43a10,10,0,0,1-3.11-1.78A17.7,17.7,0,0,1,68.79,135a16.2,16.2,0,0,1-1.33-4.78,18.33,18.33,0,0,1,.66-8.09c.56-1.73,1.07-3.49,1.71-5.2a15.15,15.15,0,0,1,3-4.74q9.87-10.92,19.68-21.91,8.05-9,16.09-17.94a4,4,0,0,1,4.11-1.26q15.41,3.42,30.81,6.87l13,2.9a3.8,3.8,0,0,1,3.17,3.81A3.67,3.67,0,0,1,158.8,87q-7,8.1-14.05,16.21L128.07,122.4,121,130.58a3.7,3.7,0,0,1-4.1,1.21l-22.3-6.42c-4.67-1.35-9.32-2.78-14-4-3.39-.88-5.18.67-5.8,3.36A29.43,29.43,0,0,0,74.35,127.69ZM133,98.53A4.38,4.38,0,0,0,136.66,97c.18-.25.4-.48.61-.72.64-.77,1.3-1.53,1.92-2.32a1.15,1.15,0,0,0-.45-2,4.4,4.4,0,0,0-.92-.33l-24.61-6a8.62,8.62,0,0,0-3.67-.47,3.68,3.68,0,0,0-2.49,1.35c-.17.23-.36.44-.55.66-.65.78-1.32,1.55-2,2.36a1.23,1.23,0,0,0,.42,2,3.94,3.94,0,0,0,1,.37l24.12,5.92C131.17,98.13,132.25,98.35,133,98.53Z"/><path class="cls-2" d="M133,98.53c-.78-.18-1.86-.4-2.93-.66L106,92a3.94,3.94,0,0,1-1-.37,1.23,1.23,0,0,1-.42-2c.63-.81,1.3-1.58,2-2.36.19-.22.38-.43.55-.66a3.68,3.68,0,0,1,2.49-1.35,8.62,8.62,0,0,1,3.67.47l24.61,6a4.4,4.4,0,0,1,.92.33,1.15,1.15,0,0,1,.45,2c-.62.79-1.28,1.55-1.92,2.32-.21.24-.43.47-.61.72A4.38,4.38,0,0,1,133,98.53Z"/><path class="cls-2" d="M157.86,98.13a10,10,0,0,1,3.31,3.77h-3Z"/><path class="cls-2" d="M157.45,81.12s4.74,1.52,4.28,5.51l-4.66-1.07Z"/><path class="cls-3" d="M76.35,129.69A12,12,0,0,0,78,135.94a6.47,6.47,0,0,0,3.68,2.85q19.76,5.84,39.5,11.69a.61.61,0,0,0,.74-.26l28.92-34.83c.93-1.12,1.86-2.23,2.77-3.37a.72.72,0,0,0,.14-.58,14.84,14.84,0,0,1,.77-9.68,3.49,3.49,0,0,1,5.35-1.63,3.54,3.54,0,0,1,1.3,4,11.37,11.37,0,0,0-.74,3.41,9.25,9.25,0,0,0,.6,3.65,3.54,3.54,0,0,1-.58,3.79l-9.31,11.21-14.64,17.64c-3.55,4.27-7.11,8.54-10.64,12.83a3.87,3.87,0,0,1-4.52,1.34q-20.94-6.24-41.89-12.43a10,10,0,0,1-3.11-1.78A17.7,17.7,0,0,1,70.79,137a16.2,16.2,0,0,1-1.33-4.78,18.33,18.33,0,0,1,.66-8.09c.56-1.73,1.07-3.49,1.71-5.2a15.15,15.15,0,0,1,3-4.74q9.87-10.92,19.68-21.91,8.05-9,16.09-17.94a4,4,0,0,1,4.11-1.26q15.41,3.42,30.81,6.87l13,2.9a3.8,3.8,0,0,1,3.17,3.81A3.67,3.67,0,0,1,160.8,89q-7,8.1-14.05,16.21L130.07,124.4,123,132.58a3.7,3.7,0,0,1-4.1,1.21l-22.3-6.42c-4.67-1.35-9.32-2.78-14-4-3.39-.88-5.18.67-5.8,3.36A29.43,29.43,0,0,0,76.35,129.69ZM135,100.53A4.38,4.38,0,0,0,138.66,99c.18-.25.4-.48.61-.72.64-.77,1.3-1.53,1.92-2.32a1.15,1.15,0,0,0-.45-2,4.4,4.4,0,0,0-.92-.33l-24.61-6a8.62,8.62,0,0,0-3.67-.47,3.68,3.68,0,0,0-2.49,1.35c-.17.23-.36.44-.55.66-.65.78-1.32,1.55-2,2.36a1.23,1.23,0,0,0,.42,2,3.94,3.94,0,0,0,1,.37l24.12,5.92C133.17,100.13,134.25,100.35,135,100.53Z"/><path class="cls-1" d="M135,100.53c-.78-.18-1.86-.4-2.93-.66L108,94a3.94,3.94,0,0,1-1-.37,1.23,1.23,0,0,1-.42-2c.63-.81,1.3-1.58,2-2.36.19-.22.38-.43.55-.66a3.68,3.68,0,0,1,2.49-1.35,8.62,8.62,0,0,1,3.67.47l24.61,6a4.4,4.4,0,0,1,.92.33,1.15,1.15,0,0,1,.45,2c-.62.79-1.28,1.55-1.92,2.32-.21.24-.43.47-.61.72A4.38,4.38,0,0,1,135,100.53Z"/></svg>