<svg id="Capa_1" data-name="Capa 1" xmlns="http://www.w3.org/2000/svg" viewBox="0 0 404.23 345.02"><defs><style>.cls-1{fill:#f8ad74;}.cls-2{fill:#f8ba88;}.cls-3{fill:#81c784;}.cls-4{fill:#1b5e20;}.cls-5{fill:#a5d6a7;}.cls-6{fill:#388e3c;}.cls-7{fill:#10cfc9;}</style></defs><title>PAGO</title><polygon class="cls-1" points="256.76 243.57 182.17 272.26 153.48 260.79 153.48 220.62 182.17 249.31 256.76 220.62 256.76 243.57"/><path class="cls-1" d="M194.22,254.48l12.05-26.4-44.18-20.66a14.3,14.3,0,0,0-18.94,6.89c-3.44,7.46,0,16.07,6.89,18.94Z"/><path class="cls-1" d="M167.82,256.77l12.05-26.39-44.18-20.66c-7.46-3.44-15.49,0-18.93,6.89-3.45,7.45,0,16.06,6.88,18.93Z"/><path class="cls-2" d="M91.51,224.06a13.89,13.89,0,0,1,18.93-7.45l45.91,20.08c-.58,4.59.57,9.18,1.72,13.19,7.46,19.51,26.39,17.79,35,14.35l53.36-20.66a5.16,5.16,0,0,0,3.44-3.44,5.7,5.7,0,0,0-2.86-7.46,4.94,4.94,0,0,0-4,0h-.57l-53.37,20.66c-1.72.57-15.49,5.74-20.65-7.46-.58-1.15-.58-2.3-1.15-3.44-1.15-8,5.74-12.63,9.75-14.35l68.28-27c23-10.32,74.6,12,74.6,12l-19.51,48.2-21.23-9.18L204,282.59a19.09,19.09,0,0,1-12.62.57c-.58,0-1.72-.57-2.3-.57L99,243C91.51,240.13,88.64,231.52,91.51,224.06Z"/><polygon class="cls-3" points="96.55 65.7 171.4 180.46 267.52 117.76 233.56 65.7 96.55 65.7"/><polygon class="cls-4" points="219.86 65.7 251.64 114.42 174.74 164.57 110.25 65.7 96.55 65.7 171.4 180.46 267.52 117.76 233.56 65.7 219.86 65.7"/><path class="cls-4" d="M167.74,148.59a14.35,14.35,0,1,0,19.86,4.18A14.35,14.35,0,0,0,167.74,148.59Z"/><polygon class="cls-5" points="92.99 65.7 218.99 191.69 296.68 114 248.4 65.7 92.99 65.7"/><circle class="cls-6" cx="230.64" cy="125.65" r="10.99"/><path class="cls-6" d="M159.88,65.7a32.92,32.92,0,1,0,56.05,0ZM270,127l19.36-19.36a14,14,0,0,0-2.4-3.33,14.35,14.35,0,0,0-20.29,20.29A14,14,0,0,0,270,127ZM212.65,184.4,232,165a14,14,0,0,0-2.4-3.33A14.34,14.34,0,0,0,209.32,182,13.77,13.77,0,0,0,212.65,184.4Z"/><polygon class="cls-6" points="232.85 65.7 281.15 114 218.99 176.15 108.53 65.7 92.99 65.7 218.99 191.69 296.68 114 248.4 65.7 232.85 65.7"/><path class="cls-6" d="M223,118a11,11,0,1,0,15.5,0A11,11,0,0,0,223,118Z"/><polygon class="cls-7" points="300.37 261.36 319.88 213.16 313.66 210.66 294.23 258.71 300.37 261.36"/></svg>