<svg xmlns="http://www.w3.org/2000/svg" viewBox="0 0 404.23 345.02"><defs><style>.cls-1{isolation:isolate;}.cls-2{fill:#10cfc9;}.cls-3,.cls-8{fill:#fff;}.cls-4{fill:#1d224c;}.cls-5{fill:#003a5d;}.cls-6{opacity:0.5;}.cls-7{fill:#dadada;}.cls-8{mix-blend-mode:screen;}</style></defs><title>CUPONES</title><g class="cls-1"><g id="Capa_1" data-name="Capa 1"><polygon class="cls-2" points="197.07 56.35 220.87 82.9 255.15 72.19 262.89 106.69 297.39 114.43 286.83 148.72 313.23 172.51 286.83 196.3 297.39 230.59 262.89 238.32 255.15 272.83 220.87 262.12 197.07 288.67 173.28 262.12 138.99 272.83 131.26 238.32 96.75 230.59 107.31 196.3 80.91 172.51 107.31 148.72 96.75 114.43 131.26 106.69 138.99 72.19 173.28 82.9 197.07 56.35"/><path class="cls-3" d="M214,198.91c0-6.87,3.7-10.56,9.51-10.56,4.75,0,9.51,3.18,9.51,10.56v5.28c0,7.38-4.76,11.1-9.51,11.1-7.38,0-9.51-6.87-9.51-11.1Zm9.51,26.4c9.51,0,21.12-5.82,21.12-21.12v-5.28c0-9.51-5.81-21.12-21.12-21.12-11.09,0-21.12,7.38-21.12,21.12v5.28C202.35,217.39,211.32,225.31,223.47,225.31Zm-43.29-79.2c0,6.87-3.69,10.56-9.51,10.56-4.74,0-9.51-3.18-9.51-10.56v-5.28c0-7.38,4.77-11.1,9.51-11.1,7.39,0,9.51,6.87,9.51,11.1Zm-9.51-26.4c-9.51,0-21.12,5.82-21.12,21.12v5.28c0,9.51,5.82,21.12,21.12,21.12,11.1,0,21.12-7.38,21.12-21.12v-5.28C191.79,127.63,182.82,119.71,170.67,119.71ZM176,216.34l-9-5.28,51.21-82.38,9,5.28Z"/><rect class="cls-4" x="180.18" y="213.63" width="5.84" height="17.42" transform="translate(-103.48 251.14) rotate(-56.27)"/><path class="cls-5" d="M184,219.46l-5.44-3.64c-.46.85-1,1.69-1.51,2.51a29.13,29.13,0,0,1-1.74,2.35l5.45,3.63c.6-.76,1.18-1.54,1.73-2.36S183.57,220.3,184,219.46Z"/><g class="cls-6"><circle class="cls-7" cx="149.97" cy="200.22" r="30" transform="translate(-93.13 141.24) rotate(-39.53)"/></g><path class="cls-8" d="M127.34,209.47a1.79,1.79,0,0,1-3.19-.41,28,28,0,0,1-1.28-5.63,1.8,1.8,0,1,1,3.57-.43,24.16,24.16,0,0,0,1.11,4.9A1.77,1.77,0,0,1,127.34,209.47Z"/><path class="cls-8" d="M151.58,226.71a1.79,1.79,0,0,1-1.49.8,27.12,27.12,0,0,1-15.28-4.59,27.45,27.45,0,0,1-6.06-5.52,1.8,1.8,0,0,1,2.8-2.26,23.65,23.65,0,0,0,18.52,8.78,1.8,1.8,0,0,1,1.51,2.79Z"/><path class="cls-4" d="M119.59,179.93a36.53,36.53,0,1,0,50.67-10.09A36.54,36.54,0,0,0,119.59,179.93Zm55.33,36.95a30,30,0,1,1-8.29-41.61A30,30,0,0,1,174.92,216.88Z"/><rect class="cls-4" x="206.63" y="215.7" width="10.33" height="51.6" transform="translate(-106.66 283.54) rotate(-56.27)"/><rect class="cls-5" x="209.3" y="217.91" width="2.05" height="51.6" transform="translate(-109.15 283.29) rotate(-56.27)"/><rect class="cls-5" x="212.03" y="212.82" width="3.4" height="51.6" transform="translate(-103.4 283.86) rotate(-56.27)"/></g></g></svg>