<svg id="Capa_1" data-name="Capa 1" xmlns="http://www.w3.org/2000/svg" viewBox="0 0 404.23 345.02"><defs><style>.cls-1{fill:#c0eeeb;}.cls-2{fill:#1d224c;}.cls-3{fill:#fff;}.cls-4{fill:#10cfc9;}.cls-5{fill:#f5333f;}.cls-6{fill:#ffc600;}</style></defs><title>URL</title><path class="cls-1" d="M310,106.1V258a34.68,34.68,0,0,1-34.57,34.57H162.63c59.05-11.76,69.47-76.43,69.47-76.43l20.14,6-42.65-60.37L167.23,224.1l20.54-8.33c-6.77,61.86-74,73.92-76.94,74.41A34.7,34.7,0,0,1,89,258V106.1a34.68,34.68,0,0,1,34.57-34.57H275.46A34.68,34.68,0,0,1,310,106.1Z"/><path class="cls-2" d="M310,106.1v18.81H89V106.1a34.68,34.68,0,0,1,34.57-34.57H275.46A34.68,34.68,0,0,1,310,106.1Z"/><rect class="cls-3" x="177.18" y="88.55" width="108.25" height="21.24" rx="4.68" ry="4.68"/><path class="cls-4" d="M252.24,222.2l-20.14-6s-10.42,64.67-69.47,76.43H123.52c-.42,0-.83,0-1.25,0a34.06,34.06,0,0,1-11.17-2.3l-.27-.1c2.91-.49,70.17-12.55,76.94-74.41l-20.54,8.33,42.36-62.27Z"/><path class="cls-4" d="M111.1,290.28l-.37-.09h.1Z"/><circle class="cls-5" cx="117.07" cy="99.17" r="10.86"/><circle class="cls-6" cx="145.1" cy="99.17" r="10.86"/></svg>