<svg id="Capa_1" data-name="Capa 1" xmlns="http://www.w3.org/2000/svg" viewBox="0 0 239.63 222.92"><defs><style>.cls-1{fill:#bcedea;}.cls-2{fill:#10cfc9;}.cls-3{fill:#1d224c;}</style></defs><title>FARMACIAS</title><circle class="cls-1" cx="119.2" cy="111.05" r="79.6"/><path class="cls-2" d="M134.39,71.54a18.7,18.7,0,0,1,5,.54,21.05,21.05,0,0,1,6.18,2.56,21.44,21.44,0,0,1,6.54,6.18A21.48,21.48,0,0,1,155.74,95a20,20,0,0,1-.84,4.18,22.07,22.07,0,0,1-1.94,4.49,23.79,23.79,0,0,1-4,5q-11.42,11.44-22.81,22.91l-9.57,9.56a21.92,21.92,0,0,1-6,4.34,24.09,24.09,0,0,1-4,1.46,21.82,21.82,0,0,1-7.5.6,19.92,19.92,0,0,1-4.75-1,22.14,22.14,0,0,1-4.15-1.87,21.19,21.19,0,0,1-6.48-5.88,20.07,20.07,0,0,1-2.6-4.74,32.73,32.73,0,0,1-1-3.38,20.29,20.29,0,0,1-.44-6.07,15.67,15.67,0,0,1,.65-3.84,32.87,32.87,0,0,1,1.21-3.5,18.73,18.73,0,0,1,2.49-4.16,51,51,0,0,1,4.57-4.84q9-9,18-18,6.41-6.39,12.85-12.74a20.47,20.47,0,0,1,5.68-3.93,20.13,20.13,0,0,1,5.21-1.7c1.3-.23,2.64-.3,3.95-.43Zm-19.18,29.25c.51.54,1,1,1.44,1.52q7.25,7.26,14.49,14.49c.67.67.66.66,1.33,0,4.16-4.13,8.29-8.27,12.47-12.37a16,16,0,0,0,5-10.43,15.36,15.36,0,0,0-.9-6.37A15.14,15.14,0,0,0,146.36,83a15.38,15.38,0,0,0-6.09-4.46,16.07,16.07,0,0,0-3.94-1,15.47,15.47,0,0,0-7.88,1A14.76,14.76,0,0,0,123.38,82L106.49,99q-6.49,6.54-13,13.06a40.39,40.39,0,0,0-3.17,3.38,20.28,20.28,0,0,0-3.51,6.7,12.8,12.8,0,0,0-.6,4.51,8.81,8.81,0,0,0,.53,2.5,4.18,4.18,0,0,0,.46-.35l6.68-6.69L114,102Z"/><path class="cls-2" d="M115.21,100.79,114,102,93.9,122.08l-6.68,6.69a4.18,4.18,0,0,1-.46.35,8.81,8.81,0,0,1-.53-2.5,12.8,12.8,0,0,1,.6-4.51,20.28,20.28,0,0,1,3.51-6.7A40.39,40.39,0,0,1,93.51,112q6.48-6.54,13-13.06l16.89-17a14.76,14.76,0,0,1,5.07-3.37,15.47,15.47,0,0,1,7.88-1,16.07,16.07,0,0,1,3.94,1A15.38,15.38,0,0,1,146.36,83,15.14,15.14,0,0,1,149,87.63a15.36,15.36,0,0,1,.9,6.37,16,16,0,0,1-5,10.43c-4.18,4.1-8.31,8.24-12.47,12.37-.67.66-.66.67-1.33,0q-7.24-7.24-14.49-14.49C116.17,101.83,115.72,101.33,115.21,100.79Z"/><path class="cls-3" d="M136.53,73.69a18.3,18.3,0,0,1,4.95.54,21.2,21.2,0,0,1,6.19,2.55A21.52,21.52,0,0,1,154.2,83a21.87,21.87,0,0,1,2.4,4.6,21.59,21.59,0,0,1,1.28,9.58,19.46,19.46,0,0,1-.84,4.19,22,22,0,0,1-1.93,4.48,24.16,24.16,0,0,1-4,5q-11.41,11.44-22.81,22.91-4.77,4.78-9.57,9.56a21.3,21.3,0,0,1-10,5.8,21.56,21.56,0,0,1-7.5.6,19.92,19.92,0,0,1-4.75-1,22.14,22.14,0,0,1-4.15-1.87A21.19,21.19,0,0,1,85.89,141a19.68,19.68,0,0,1-2.59-4.74,32.61,32.61,0,0,1-1-3.37,20.31,20.31,0,0,1-.43-6.07,15.2,15.2,0,0,1,.64-3.85,35.26,35.26,0,0,1,1.21-3.5,19.52,19.52,0,0,1,2.49-4.16,51,51,0,0,1,4.57-4.84q9-9,18-18,6.4-6.39,12.85-12.74a20.62,20.62,0,0,1,5.68-3.93,20.13,20.13,0,0,1,5.21-1.7c1.31-.23,2.64-.29,4-.43Zm-19.17,29.24c.5.54,1,1,1.43,1.53l14.49,14.48c.67.67.67.67,1.34,0,4.15-4.13,8.29-8.27,12.47-12.37A16,16,0,0,0,152,96.14a15.61,15.61,0,0,0-3.54-11,15.51,15.51,0,0,0-6.08-4.46,16.25,16.25,0,0,0-3.95-1,15.36,15.36,0,0,0-7.88,1,14.76,14.76,0,0,0-5.07,3.37l-16.89,17q-6.48,6.54-13,13.06a40.39,40.39,0,0,0-3.17,3.38,20.12,20.12,0,0,0-3.5,6.71,12.75,12.75,0,0,0-.61,4.51,8.45,8.45,0,0,0,.54,2.49,5.12,5.12,0,0,0,.45-.35l6.69-6.69,20.07-20.08Z"/><path class="cls-1" d="M117.36,102.93l-1.24,1.21L96.05,124.22l-6.69,6.69a5.12,5.12,0,0,1-.45.35,8.45,8.45,0,0,1-.54-2.49,12.75,12.75,0,0,1,.61-4.51,20.12,20.12,0,0,1,3.5-6.71,40.39,40.39,0,0,1,3.17-3.38q6.48-6.54,13-13.06l16.89-17a14.76,14.76,0,0,1,5.07-3.37,15.36,15.36,0,0,1,7.88-1,16.25,16.25,0,0,1,3.95,1,15.51,15.51,0,0,1,6.08,4.46,15.61,15.61,0,0,1,3.54,11,16,16,0,0,1-4.95,10.43c-4.18,4.1-8.32,8.24-12.47,12.37-.67.67-.67.67-1.34,0l-14.49-14.48C118.31,104,117.86,103.47,117.36,102.93Z"/></svg>