<svg id="Capa_1" data-name="Capa 1" xmlns="http://www.w3.org/2000/svg" viewBox="0 0 626.93 704.62">
<defs><style>.cls-1{fill:#ffc600;}.cls-2{fill:#f5333f;}.cls-3{fill:#10cfc9;}.cls-4{opacity:0.05;}.cls-5{fill:#020202;}.cls-6{fill:#ffba98;}.cls-7{fill:#111010;}.cls-8{fill:#2c2021;}.cls-9{fill:#6e6e6e;}.cls-10{fill:#505050;}.cls-11{fill:#646464;}.cls-12{fill:#070707;}.cls-13{fill:#181818;}.cls-14{fill:#68d9d4;}.cls-15{fill:#c4504d;}.cls-16{fill:#fff;}</style></defs><title>ILUSTRACIÓNYFONDO</title><path class="cls-1" d="M242.05,124.76c10.4,2.29,19.37,9,27.31,15.82,8.68,7.41,18.42,12.69,28.15,18.59s-2.41,10.05-8.48,10.48c-8.83.62-17.25-1.27-25.51-4.08-8-2.73-15.36-6.56-21.47-12.53a43.8,43.8,0,0,1-8.64-11.47,18.12,18.12,0,0,1-2.35-9C231.38,125,236.09,123.45,242.05,124.76Z"/><path class="cls-2" d="M317.13,133.19c.74-9.68,2.24-17.55,5.31-25.07a30.06,30.06,0,0,1,5.81-9.59,19.37,19.37,0,0,1,3.56-3c3.69-2.35,7.61-3,11.56-.71s5.74,5.93,5.82,10.42a15.8,15.8,0,0,1-3,9.1c-2.66,4-5.54,7.85-8.35,11.74s-5.77,7.68-8.44,11.66A36.18,36.18,0,0,0,323,154.83a2.1,2.1,0,0,1-.15.92c-.32.47-.68,1.06-1.16,1.25-.3.12-1.05-.27-1.26-.63a14.1,14.1,0,0,1-1.56-3.37C317,146,316.38,138.82,317.13,133.19Z"/><path class="cls-3" d="M279.24,113.28a17.38,17.38,0,0,1,.56-2.32c.95-2.58,3.13-4,5.69-3.07a15,15,0,0,1,5.82,3.46,47.73,47.73,0,0,1,6.42,8.46,57.49,57.49,0,0,1,7,17.73c.7,3.27,1.46,6.53,2.09,9.81a17.26,17.26,0,0,1,.25,4.06c-.11,2.3-1.36,3-3.34,1.68a34.09,34.09,0,0,1-5.28-3.92c-7.31-7-13.5-14.87-17.18-24.45A25.82,25.82,0,0,1,279.24,113.28Z"/><g class="cls-4"><path class="cls-3" d="M228.42,785.73h-6.67c-62.18,0-98.38-8-110.69-24.39-3.72-5.18-6.06-16.09-7.41-34.37-.64-7.66-1-34.57-1-82.22l-1-81V487.53c0-59.65,1.61-106.57,4.77-139.47,2.61-28.73,7.3-48.42,14.34-60.17,7.18-12,19-20.07,35.19-24.11,5.47-1.37,18.55-2,40-2,58.32,0,112.23,4,160.21,12s86.47,18.83,114,32.25a150.07,150.07,0,0,1,40.65,31.31c12.1,13.1,20.24,26.42,24.19,39.6,3.33,13.31,4.92,23.27,4.92,30.62,0,30.18-13.23,57.71-39.32,81.85L484,503.69l5.12,2.32c32.69,13.09,54.29,42.85,64.06,88.4,3.26,16.35,4.85,28.44,4.85,37,0,34-12.79,62.23-38,83.85-24.82,21.27-64,38.53-116.38,51.3C349.65,779.28,290.69,785.73,228.42,785.73ZM196,269.3c-25.57,0-34.86,1-38.16,1.8-14.15,3.54-24.43,10.49-30.54,20.67-6.36,10.6-10.83,29.78-13.3,57-3.15,32.68-4.75,79.37-4.75,138.77v76.23l1,81c0,46.82.31,74.28.94,81.66,1.58,21.52,4.42,28.35,6,30.51,10.58,14.11,45.79,21.3,104.6,21.3h6.67c61.69,0,120.06-6.38,173.5-19,51.21-12.48,89.32-29.21,113.22-49.69,23.47-20.12,35.37-46.4,35.37-78.12,0-7.95-1.58-19.88-4.69-35.47-9.2-42.89-29.26-70.83-59.64-83l-16-7.27,25.42-21.95c24.39-22.57,36.81-48.24,36.81-76.23,0-6.63-1.57-16.26-4.66-28.63-3.57-11.89-11.14-24.22-22.45-36.46a142.13,142.13,0,0,0-38.52-29.7c-26.73-13-64.37-23.68-111.78-31.55C307.43,273.29,253.94,269.3,196,269.3ZM318,638h-7.62l-19.57-1.14-2.3-19.78V605.69c0-24.77,4.54-37.45,14.29-39.88l.54-.09,19.43-1.92c12.49,0,23.87,2,33.8,6,16.76,7,25.24,16.82,25.24,29.23,0,8.86-4.05,16.3-12,22.11C356.63,632.29,339.14,638,318,638Zm-20.43-8.31,13,.77H318c19.31,0,35.16-5.15,47.11-15.31,6.23-4.54,9.15-9.78,9.15-16.18,0-9.2-6.72-16.48-20.55-22.24-8.93-3.58-19.3-5.41-30.75-5.43l-18.55,1.86C301.71,574,296,579,296,605.69V616.9Zm18.53-167H291.35V439.9c0-15.31,1.82-24.44,5.74-28.75s12.47-6.47,26.61-6.47c35.41,0,42.84,15,42.84,27.59C366.54,452.48,349.56,462.72,316.08,462.72Zm-17.19-7.54h17.19c42.91,0,42.91-17.25,42.91-22.91,0-5,0-20-35.29-20-15.69,0-19.93,2.81-21,4s-3.78,6-3.78,23.67Z"/><path class="cls-3" d="M208.89,251.19q87.64,0,159.59,11.91T481.39,295a145.4,145.4,0,0,1,39.54,30.49q17.63,19.07,23.34,38.11Q549,382.68,549,393.16q0,43.83-38.11,79.08l-21,18.1,10.49,4.77q47.63,19.06,61.93,85.75,4.75,23.83,4.76,36.2,0,49.56-36.68,81t-114.81,50.5q-81,19.07-174.37,19.06h-6.67q-90.53,0-107.66-22.87-4.78-6.66-6.67-32.39-1-11.45-1-81.94l-.95-81V473.19q0-89.55,4.76-139.11,3.8-41.91,13.82-58.59t32.87-22.4Q177.44,251.2,208.89,251.19Zm126.72,302-19.05,1.9q-11.44,2.86-11.44,36.21v11.43L307,619l16.19.95h7.63q30.48,0,49.54-16.2,10.49-7.61,10.48-19.05,0-16.18-22.87-25.73Q353.72,553.22,335.61,553.23Zm1-159.12q-19.08,0-23.83,5.24T308,425.55V444.6h21q46.67,0,46.69-26.67Q375.63,394.13,336.57,394.11Z"/><path class="cls-3" d="M673.76,370.55c-7.59,23.81-25.28,43.3-42.83,60.4-19.18,18.69-33.6,40.29-49.49,61.75s-22.94-7.79-22.64-22.06c.44-20.76,6.67-40,15-58.71,8.09-18.08,18.63-34.47,33.89-47.46a102.77,102.77,0,0,1,28.64-17.71c6.89-2.74,14-4.56,21.52-3.55C675.6,345.58,678.11,356.91,673.76,370.55Z"/><path class="cls-3" d="M637.91,544.14c22.46,3.81,40.52,9,57.43,17.8,7.89,4.1,15.27,8.89,21.15,15.63a45.41,45.41,0,0,1,6.32,9c4.7,9.11,5.26,18.4-.84,27.14S706.9,625.81,696.37,625c-7.88-.58-14.66-4.13-20.61-8.94-8.76-7.07-17.13-14.62-25.62-22s-16.7-15.13-25.42-22.24c-11.34-9.24-24-16-38.61-18.67a4.81,4.81,0,0,1-2.11-.56c-1-.84-2.33-1.81-2.68-3-.21-.74.86-2.41,1.74-2.82a32.8,32.8,0,0,1,8.21-2.9C608.1,541.16,624.92,541.17,637.91,544.14Z"/><path class="cls-3" d="M692.58,459.9a39.15,39.15,0,0,1,5.3,1.82c5.82,2.77,8.59,8.16,5.94,13.95-2.17,4.75-5.3,9.66-9.32,12.85a112.78,112.78,0,0,1-21.14,13.17,134.75,134.75,0,0,1-42.92,12.51c-7.8.93-15.57,2-23.38,2.77a41.17,41.17,0,0,1-9.54-.28c-5.33-.75-6.6-3.83-3.21-8.17A79.4,79.4,0,0,1,604.62,497c18-15.58,37.62-28.34,60.79-34.89C674,459.73,682.65,458.3,692.58,459.9Z"/></g><path class="cls-5" d="M168.84,381.92a12,12,0,0,1,0-1.34,77.9,77.9,0,0,1,6.71-24.32A121.52,121.52,0,0,0,181,343.18a2.36,2.36,0,0,1,.5.44c2.89,4.31,6.87,7.49,11,10.54A189.76,189.76,0,0,0,213,368c.79.44,1.58.88,2.41,1.24.39.17,1,.38,1.29.19,1.58-1.2,2.74,0,4,.61a96.84,96.84,0,0,0,27.17,9.37c1.55.27,3.14.37,4.71.55,1.27.74,2.5,1.52,3.8,2.19a110,110,0,0,1,14.76,9.06,54.76,54.76,0,0,0,5.73,3.62c5.72,3.22,11.52,6.29,17.21,9.58,2.31,1.34,4.94,2.34,6.43,4.82.16.26.55.39.85.55a13.25,13.25,0,0,1,6.33,8.38c.19.65.4,1.3.58,2a56.84,56.84,0,0,1,1.5,26.21c-1.31,7-2.56,14.05-3.26,21.16-.24,2.48-.63,4.94-1.08,7.39-.13.72-.49,1.73-1,2-1.27.6-1.43,1.64-1.63,2.75-.82,4.57-1.58,9.15-2.49,13.7-1.93,9.66-3.95,19.31-5.89,29-1.19,5.89-2.23,11.8-3.48,17.67a16.35,16.35,0,0,0-.22,7.61L289,549.25c-2.19-2-3.25-2.39-6.29-2.5.59,1.76,1.17,3.43,1.71,5.12a25.86,25.86,0,0,1,1.46,7c.07,2.08-1.41,3-3.08,2.35a15.14,15.14,0,0,1-3.81-2.17c-6-4.76-10.57-10.52-11.88-18.36l-4.24-1.51c-1.05.06-1.43,1.18-2.32.77-1.47-2.44-1.3-5-1-7.64.38-3.83.77-7.67,1.21-11.49.46-4,.94-8.1,1.51-12.14,1-7.29,2-14.58,2.53-21.94.28-4.06.73-8.12,1.14-12.17.35-3.61.76-7.21,1.13-10.82.19-1.88-.06-2.43-1.75-3.22-2.36-1.09-4.77-2.08-7.17-3.1s-5.07-2-7.51-3.16c-4-2-8.3-2.94-12.43-4.44-.15-.06-.39.14-.73.27-.18,1.5-.42,3.06-.56,4.64-.67,8-1.25,16-2,24q-1.62,17.26-3.44,34.5a317.27,317.27,0,0,1-5.25,34.53A88.19,88.19,0,0,0,224,563.22q-.28,7.31-1,14.59c-.44,4.85-.93,9.7-1.71,14.5-1.09,6.7-2.44,13.36-3.73,20-.74,3.83-1.26,4.84-3.49,7.27a22,22,0,0,1,5.2,5.72,12.83,12.83,0,0,0,1.94,1.88c1.13,1.1,2.3,2.17,3.36,3.34a1.62,1.62,0,0,1-.4,2.38,3.3,3.3,0,0,1-1.53.58,10.12,10.12,0,0,1-5.84-1.43,48.9,48.9,0,0,1-15.87-14.15c-1.5-.16-2.95-.33-4.42-.47-1-.11-2-.12-3-.3s-1.4-.77-1.42-2.48l2.69-.46c0-4.83,0-9.46,0-14.1a7.8,7.8,0,0,1,.26-3c.82-1.85.74-3.76.84-5.67.24-4.41.43-8.83.69-13.24.18-3.16.6-6.32.64-9.49.18-12.58.44-25.16.32-37.74-.15-15.3-.47-30.6-1-45.88-.38-9.85-1.42-19.66-2.07-29.5-.57-8.59-1.11-17.19-1.06-25.81,0-.88-.08-1.77-.11-2.18l-11.56-9.07a2.88,2.88,0,0,0-2.89-2.56l-.62-.6c.12-1.32-.83-2.05-1.64-2.81a17.9,17.9,0,0,1-3.23-4.29c-.66-1.14-1.12-2.1-.66-3.42.2-.56-.25-1.06-.89-1.21-.1-.46-.21-.92-.31-1.39-.29-1.53-.58-3.07-.92-4.85l-1.9.2c-.13-.86-.28-1.72-.39-2.58s-.14-1.52-.21-2.28l.72-9.51C169.29,382.85,169.44,382.42,168.84,381.92Zm40.85,240.31-.19-.21-.1-.15.13.12Zm4.94,4.31c0-.23,0-.47-.08-.7a6,6,0,0,0-3.53-3.07c.78,1.93.78,1.93,3.14,3.46Z"/><path class="cls-2" d="M178.21,264.19c.18-.53.31-1.11,1-1.15l1.34,1.13c1.56-1.06,2.12-2.67,2.82-4.19a36.49,36.49,0,0,1,2.34-4.88c2.36-3.6,4.84-7.12,7.37-10.6a27.52,27.52,0,0,1,7.14-6.72,7.33,7.33,0,0,1,5.08-1.5c.9.1,1.82,0,2.72.14A144,144,0,0,1,229.26,241a28.41,28.41,0,0,0,4.29.89,4.72,4.72,0,0,1,3,1.36,7,7,0,0,0,3.51,1.95c.1,1.3-1.21,1.06-2,1.57a17.1,17.1,0,0,0,5.14,6.27c7,5.24,14.84,8.05,23.66,7.68a32.27,32.27,0,0,0,11.52-2.45,26.93,26.93,0,0,1,3.21-.95c1.79,2.18,3.6,4.35,5.35,6.57a12.46,12.46,0,0,1,1.14,2.06c.51,1,.94,2,1.52,3,3.31,5.39,6.74,10.72,9.95,16.18a50.6,50.6,0,0,1,3.77,7.94,25.87,25.87,0,0,1,1.8,11.3c-.19,2.24-.26,4.5-.33,6.75a3.42,3.42,0,0,1-.9,2.47c-.47.49-.91,1-1.36,1.51a11.34,11.34,0,0,0-1.3.36,46.06,46.06,0,0,1-13.09,3.21c-2.8.31-5.55,1-8.31,1.54a2.87,2.87,0,0,0-2.49,2.44c-.11.55-.34,1.07-.48,1.62q-1.69,6.36-3.38,12.74l-2.58,7.6c-.24-.23-.62-.42-.7-.7a67.56,67.56,0,0,1-2.24-9.21c-.6-4.47-1.23-8.93-1.48-13.45a112.59,112.59,0,0,0-1.45-11.41,5.08,5.08,0,0,0-1.82-3.53,5.8,5.8,0,0,1-1.32-2.26c-.28-.61-.31-1.33-.58-1.94a2.63,2.63,0,0,0-3.93-1.3,19,19,0,0,0-2.84,1.86c-4.29,3.49-8.55,7-12.83,10.55-5.84,4.82-11.79,9.51-18,13.86-1.1.77-2.22,1.52-3.52,2.42-.39-.47-.91-.81-1-1.26a35.36,35.36,0,0,1-.82-4.32c-.54-4.49-.65-9-.89-13.52-.29-5.31-.52-10.61-.51-15.92a5.46,5.46,0,0,0-.16-1.34,2.12,2.12,0,0,0-3.26-1.17,18,18,0,0,0-2.75,3,84,84,0,0,1-10.14,11.83,84.44,84.44,0,0,1-8.63,6.83c-.92-.17-.94-.78-1-1.32-.19-1.22-.43-2.45-.53-3.68-.29-3.6-.43-7.22-.82-10.8a20,20,0,0,0-1.28-4.19c-.22-.62-.81-.71-1.41-.64-1.1-3.68-2.22-7.35-3.29-11-1.28-4.35-2.49-8.7-3.79-13a11.44,11.44,0,0,0-1.1-2c-.07-.4-.13-.79-.2-1.19A1.19,1.19,0,0,0,178.21,264.19Zm107.09,53c4.61-.27,9.21-.62,13.59-2.27a11.61,11.61,0,0,0,2.41-1.22,1.2,1.2,0,0,0,.41-1.09c-.13-.32-.64-.56-1-.69a1.72,1.72,0,0,0-1,0c-4.53,1.36-9.22,2.18-13.61,4-.39.17-.75.42-1.55.87C285.1,317.1,285.21,317.19,285.3,317.18Z"/><path class="cls-2" d="M181,343.18a2.36,2.36,0,0,1,.5.44c2.89,4.31,6.87,7.49,11,10.54A189.76,189.76,0,0,0,213,368c.79.44,1.58.88,2.41,1.24.39.17,1,.38,1.29.19,1.58-1.2,2.74,0,4,.61a96.84,96.84,0,0,0,27.17,9.37c1.55.27,3.14.37,4.71.55,2.42.17,3.92-1,5.14-3.05a101.67,101.67,0,0,0,7-14.57c1-2.5,1.87-5.06,2.8-7.59-.69-1-1.37-2-2-3-.95.18-1.91.49-2.5-.52a15.56,15.56,0,0,1-2.51-6.94c-.2-3.72-.43-7.44-.65-11.15,0-.57-.1-1.13-.18-1.69q-.59-3.84-1.19-7.69c-.22-1.45-.46-2.89-.64-4.35a2.44,2.44,0,0,1,1.13-2.63,3.28,3.28,0,0,0,1.49-2.89c.21-3.1-.76-5.93-1.9-8.89a5.9,5.9,0,0,0-1.43.45c-1.19.86-2.34,1.77-3.48,2.7-2.1,1.71-4.17,3.47-6.27,5.18-2.62,2.13-5.32,4.19-7.91,6.38A209.7,209.7,0,0,1,221,333.41c-2.49,1.67-3.8,1.07-4.67-1.79a51.78,51.78,0,0,1-1.88-11.34c-.4-5.63-1.1-11.26-.81-16.92.05-1.13,0-2.27,0-3.4,0-.41.13-.93-.6-1.21-3.34,3.68-6.52,7.63-10.17,11.08a84.39,84.39,0,0,1-12.26,9.28,3.53,3.53,0,0,1-2.41-2.49,31.88,31.88,0,0,1-1-4.62c-.19-1.79-.07-3.62-.17-5.42a14.21,14.21,0,0,0-.5-2.27c-.55,1.11-1.18,2.19-1.63,3.34-3.22,8.2-6.43,16.41-9.05,24.83-.34,1.08-.58,2.19-.94,3.25-.78,2.31.49,3.87,1.94,5.32a2.05,2.05,0,0,0,1.52.55C179.75,341.35,180.42,342.15,181,343.18Z"/><path class="cls-6" d="M302.6,315.12a11.34,11.34,0,0,0-1.3.36,46.06,46.06,0,0,1-13.09,3.21c-2.8.31-5.55,1-8.31,1.54a2.87,2.87,0,0,0-2.49,2.44c-.11.55-.34,1.07-.48,1.62q-1.69,6.36-3.38,12.74a1.93,1.93,0,0,1,1.21,1.89c-.16,2.22,1,3.45,2.74,4.66a38.37,38.37,0,0,0,4.89,3c4.06,2,8.08,4.11,12.18,6a99.89,99.89,0,0,0,9.38,3.93c3.73,1.31,7.52,1.5,11.15-.56a4.15,4.15,0,0,1,1.92-.57,4.49,4.49,0,0,0,3.24-1.58,21.1,21.1,0,0,0,4-5.47,95,95,0,0,0,6.54-14.9,22.85,22.85,0,0,1,2.62-6.23,10.22,10.22,0,0,0,1.14-3.18c1.3-4.92,2.6-9.83,3.8-14.77,1.15-4.71,2.17-9.45,3.26-14.18a9.65,9.65,0,0,1,.37-1.3c1.86-5,2.5-10.32,4-15.42a2.75,2.75,0,0,0-1.27-3.45,33.58,33.58,0,0,0-9.87-4.42,6,6,0,0,0-1.34-.17c-2-.11-2.73.48-2.81,2.45s0,3.85,0,5.78c0,.89-.11,1.78-.16,2.65-1.11.93-2.19.58-3.3.36-1.66-.33-2-.2-2.73,1.2s-1.68,2.69-1.92,4.33c1,1.83,3.38,1.32,4.62,3.05a8.14,8.14,0,0,1-.73,2c-1.39,2.06-2.84,4.09-4.36,6.06-1.92,2.51-4,4.89-5.89,7.43-2.15,2.91-4.2,5.9-6.2,8.92-1.18,1.78-2.19,3.69-3.23,5.57a7.9,7.9,0,0,1-2.88,3.52C302.7,320.86,302.7,318,302.6,315.12Z"/><path class="cls-6" d="M187,293c-1.1-3.68-2.22-7.35-3.29-11-1.28-4.35-2.49-8.7-3.79-13a11.44,11.44,0,0,0-1.1-2c-1.54.68-3.08,1.39-4.63,2-.7.29-1.45.46-2.3.72a45,45,0,0,1-3.15-9.45c-.6-3.56-1.24-7.1-1.58-10.71-.28-2.94-.38-5.86-.59-8.79s-.67-5.6-1-8.64h1.6a23,23,0,0,0,4.06,0c2.3-.42,3.63-1.69,3.66-4.14a17,17,0,0,0-1.86-8.85,7.54,7.54,0,0,0-4.88-3.88,53.7,53.7,0,0,1-6.4-2.2,2.72,2.72,0,0,0-3.37.67A8.2,8.2,0,0,0,156,217a15.36,15.36,0,0,1-2.55,4.77,6.25,6.25,0,0,0-1.14,3.11c-.37,2.68-.93,5.33-1.46,8-.57,2.88-1,5.78-1.33,8.7-.56,4.59-1.44,9.14-2.23,13.7-.27,1.56-.68,3.09-1,4.64a10.4,10.4,0,0,0-.23,5.32,8.84,8.84,0,0,1-.26,4c-1,4.53-2.15,9-3.1,13.54a49.61,49.61,0,0,0-1,7.37c-.1,1.88,1,3.43,2.21,4.82a20.31,20.31,0,0,0,5.38,4.1c3.53,2,7.14,3.93,10.62,6a14.29,14.29,0,0,0,11.41,1.51,36.65,36.65,0,0,0,10.71-5c1.43-.9,2.88-1.79,4.32-2.68C186.6,296.92,186.81,295,187,293Z"/><path class="cls-6" d="M243.26,242.86a27.29,27.29,0,0,1,2.2-2.57,60.2,60.2,0,0,0,8.61-10.87,14.72,14.72,0,0,0,1-2.18c-.83-.49-1.5-.88-2.17-1.29a5.24,5.24,0,0,1-2.27-2.88,9.83,9.83,0,0,1-.26-6.62,2.36,2.36,0,0,1,2.76-1.86,9,9,0,0,0-1.43,5.43,5.93,5.93,0,0,0,6.16,5.36,4,4,0,0,0,3.4-3.62,13.9,13.9,0,0,0-.79-6c3,1,3,1,5.23,5.53,1-1,1.2-1.38.92-4.84-.13-1.67-.57-3.31-1-5.42a16.55,16.55,0,0,1,1.73-2.33A25.79,25.79,0,0,0,273.3,199a20,20,0,0,1,11.44,3.36,25.12,25.12,0,0,0,2.82,1.83c2.41,1.14,4.15,3.05,5.92,4.93a9,9,0,0,1,1.09,2c-1.44.06-2.08-1.15-3-1.91-.63-.5-1.26-1-2.26-.14.87,4.1.81,8.46,2,12.63L288.1,223a8,8,0,0,0,2.53,2.79c.52.43,1.13.75,1.65,1.18s.79.82.22,1.71a18.85,18.85,0,0,1-5.5-.07c-1.88-.35-3.77-.75-5.62-1.25s-3.55-1.14-5.38-1.75c0,5.73,2.31,6.43,6.38,7.23a18.6,18.6,0,0,0,2.37.07c.65,0,1.29.17,1.9.25a4.86,4.86,0,0,1,.36,1.13,16.15,16.15,0,0,1-1.86,8.17c-1.6,3.15-4.21,4.14-7.71,3.17-.54-.15-1-.45-1.57-.64-.85-.29-1.72-.55-2.58-.82a3.28,3.28,0,0,0-1.13-3.32c-1.74-1.42-3.42-2.91-5.06-4.44-1.16-1.09-2.24-2.17-4-2.35a11,11,0,0,1-2.46-1.09,20.76,20.76,0,0,0,.6,2,57.57,57.57,0,0,0,6.55,10.21,13.54,13.54,0,0,0,2.16,2.12,2.69,2.69,0,0,0,2.57.4c1-.28.81-1.23,1-2,.21.08.5.09.62.24,2,2.32,4,4.59,5.8,7a6.67,6.67,0,0,1,1.68,4.34,26.93,26.93,0,0,0-3.21.95,32.27,32.27,0,0,1-11.52,2.45c-8.82.37-16.65-2.44-23.66-7.68a17.1,17.1,0,0,1-5.14-6.27c.74-.51,2.05-.27,2-1.57C241.55,245,242.39,243.9,243.26,242.86Zm42.08-34.06c.24,1.12-.36,1.77-1.45,1.59-.66-.11-1.29-.38-1.95-.5a7.83,7.83,0,0,0-1.38,0c.34,1.52,1.48,1.77,2.54,2.06a3.21,3.21,0,0,0,2.9-.35,2.41,2.41,0,0,0,.9-1.35c.3-2-.1-3.74-2.56-5.27C284.8,206.68,285.12,207.73,285.34,208.8Zm-7.81,3.91a1.72,1.72,0,0,1-.16.64c-1.52.5-1.52.5-3.78.29a.66.66,0,0,0,.25,1.09,7.33,7.33,0,0,0,1.79.85,2.73,2.73,0,0,0,3.58-2.81c0-1.44-.24-2.91-2.36-3.73C277.14,210.58,277.36,211.64,277.53,212.71Z"/><path class="cls-7" d="M260.43,215.8c3,1,3,1,5.23,5.53,1-1,1.2-1.38.92-4.84-.13-1.67-.57-3.31-1-5.42a16.55,16.55,0,0,1,1.73-2.33A25.79,25.79,0,0,0,273.3,199c0-.45.06-.9.06-1.34a4.46,4.46,0,0,0-3.07-4.68,3.1,3.1,0,0,0-4.14,1.19A34.79,34.79,0,0,0,264,198c-.7,1.35-1.13,2.85-2,4.27-1.71-2.24-1.71-2.24-3.64-3.14a14.79,14.79,0,0,0-2.05,4.49,26.68,26.68,0,0,1-1.5,4.82,4.83,4.83,0,0,0,.5,5.38A8.49,8.49,0,0,1,260.43,215.8Z"/><path class="cls-6" d="M260.43,215.8a8.49,8.49,0,0,0-5.07-2l-2.27.77a9,9,0,0,0-1.43,5.43,5.93,5.93,0,0,0,6.16,5.36,4,4,0,0,0,3.4-3.62A13.9,13.9,0,0,0,260.43,215.8Z"/><path class="cls-6" d="M294.57,211.13c-1.44.06-2.08-1.15-3-1.91-.63-.5-1.26-1-2.26-.14.87,4.1.81,8.46,2,12.63,2.8-.59,5.57-1.3,8.22-2.13C299.55,216.4,298.44,214.59,294.57,211.13Z"/><path class="cls-6" d="M273.29,244.19a3.28,3.28,0,0,0-1.13-3.32c-1.74-1.42-3.42-2.91-5.06-4.44-1.16-1.09-2.24-2.17-4-2.35a11,11,0,0,1-2.46-1.09,20.76,20.76,0,0,0,.6,2,57.57,57.57,0,0,0,6.55,10.21,13.54,13.54,0,0,0,2.16,2.12,2.69,2.69,0,0,0,2.57.4c1-.28.81-1.23,1-2Z"/><path class="cls-8" d="M171.42,402.26c-.29-1.53-.58-3.07-.92-4.85l-1.9.2c-.15.46.28,1.11-.67,1.52-.45-2.13-.89-4.19-1.33-6.26-1.51.37-1.86.64-1.8,1.84a15.5,15.5,0,0,0,1.43,6.55c1.5,2.85,9.12,11.93,11.92,14.12.12-1.32-.83-2.05-1.64-2.81a17.9,17.9,0,0,1-3.23-4.29c-.66-1.14-1.12-2.1-.66-3.42.2-.56-.25-1.06-.89-1.21-1.26.12-1.61-.82-2-1.72l-.7-1c-.06-.19-.21-.53-.17-.56.46-.26.57.06.63.43l.59.78Z"/><path class="cls-9" d="M166.6,392.87c.44,2.07.88,4.13,1.33,6.26.95-.41.52-1.06.67-1.52-.13-.86-.28-1.72-.39-2.58s-.14-1.52-.21-2.28Z"/><path class="cls-8" d="M181.66,418.54a2.88,2.88,0,0,0-2.89-2.56A6.25,6.25,0,0,0,181.66,418.54Z"/><path class="cls-6" d="M178.65,265.7a1.19,1.19,0,0,0-.44-1.51C177.54,265.05,177.57,265.15,178.65,265.7Z"/><path class="cls-8" d="M168.72,383.24c.57-.39.72-.82.12-1.32Z"/><path class="cls-10" d="M214.56,625.84a6.08,6.08,0,0,0-3.54-3.07c.78,1.93.78,1.93,3.14,3.46C214.29,626.1,214.42,626,214.56,625.84Z"/><polygon class="cls-10" points="209.5 622.02 209.4 621.87 209.53 621.99 209.5 622.02"/><path class="cls-10" d="M209.53,622l.16.24-.19-.21Z"/><path class="cls-10" d="M214.16,626.23l.47.31c0-.23,0-.47-.07-.7C214.42,626,214.29,626.1,214.16,626.23Z"/><path class="cls-6" d="M284.52,316.85c.58.25.69.34.78.33,4.61-.27,9.21-.62,13.59-2.27a11.61,11.61,0,0,0,2.41-1.22,1.2,1.2,0,0,0,.41-1.09c-.13-.32-.64-.56-1-.69a1.72,1.72,0,0,0-1,0c-4.53,1.36-9.22,2.18-13.61,4C285.68,316.15,285.32,316.4,284.52,316.85Z"/><path class="cls-10" d="M284.34,205c.46,1.71.78,2.76,1,3.83s-.36,1.77-1.45,1.59c-.66-.11-1.29-.38-1.95-.5a7.83,7.83,0,0,0-1.38,0c.34,1.52,1.48,1.77,2.54,2.06a3.21,3.21,0,0,0,2.9-.35,2.41,2.41,0,0,0,.9-1.35C287.2,208.25,286.8,206.5,284.34,205Z"/><path class="cls-10" d="M276.85,209c.29,1.54.51,2.6.68,3.67a1.72,1.72,0,0,1-.16.64c-1.52.5-1.52.5-3.79.29a.67.67,0,0,0,.26,1.09,7.33,7.33,0,0,0,1.79.85,2.73,2.73,0,0,0,3.58-2.81C279.16,211.33,279,209.86,276.85,209Z"/><path class="cls-9" d="M169.5,400.82c-.06-.37-.17-.69-.63-.43,0,0,.11.37.17.56l.28.1Z"/><path class="cls-11" d="M439.45,545.31a126.68,126.68,0,0,0-17.64.24,46.27,46.27,0,0,1-5.77.07,15.83,15.83,0,0,1-3.34-.54,3.66,3.66,0,0,1-3.12-3.52c-.11-1.92-.35-3.84-.37-5.76-.08-8.38.42-16.74,1.05-25.1.37-4.85.61-9.72.84-14.58q.7-14.58,1.34-29.17c.3-7,.46-14,.86-21,.71-12.65,1.52-25.31,2.36-38q.78-11.68,1.75-23.36c.46-5.53,1.09-11,1.62-16.56.64-6.76,1.25-13.52,1.87-20.28,1-2,1.91-4.08,2.84-6.12.47-1,.66-2.28,1.37-3.07a10.88,10.88,0,0,0,2.49-5.83c.42-2.67.92-5.33,1.15-8,.34-4,1-8.07.79-12.15a11.53,11.53,0,0,1,.26-2c.12-1,.29-2,.32-3,.22-7.79-.37-15.6.7-23.36,2.59-.12,5.2-.13,7.78-.39,5.5-.55,11-1.37,16.47-1.8,4.95-.38,9.88-.83,14.81-1.47a9.65,9.65,0,0,1,1.06,1.68c1.42,3.68,2.77,7.39,4.18,11.08A80,80,0,0,0,481.76,307a56.46,56.46,0,0,1,5.33,9.78A25.87,25.87,0,0,0,488.9,320l3,5.29a125.36,125.36,0,0,0,1.52,14.85,57,57,0,0,0,5.07,16.83,11.38,11.38,0,0,0,.67,1.05c1.4.61,2.55.11,3.7-.36,1.68-.68,3.35-1.38,5-2,3.27-1.27,4.55-.29,6.14,1.78s3.59,4.06,5.39,6.09a1.68,1.68,0,0,0,1.8.61,7.93,7.93,0,0,0,2.35,5.71,65.1,65.1,0,0,0,4.93,4.45,4.25,4.25,0,0,0,3.12.9c-.14.53-.44,1.08,0,1.6,3.15,3.82,5.41,8.39,9.56,11.36a3.22,3.22,0,0,1,1.3,3c-.11,2.71-.12,5.43-.27,8.14a183.81,183.81,0,0,1-2.75,22.18c-.82,4.56-1.6,9.13-2.61,13.65a44.48,44.48,0,0,1-7,16.42,53.75,53.75,0,0,1-10.54,11,85.27,85.27,0,0,1-15.38,9.87,13.25,13.25,0,0,1-7.88,1.43,15.71,15.71,0,0,1-2.56-.78c.18-1.1.36-2.2.55-3.38-.73-.58-1.43-1.14-2.14-1.68s-1.29-.92-1.91-1.4c-1.38-1.08-2-2.75-3-4.09a8.63,8.63,0,0,1-1.72-6,10.67,10.67,0,0,0-.09-2.71c-.23-1.19-.56-2.42-2.06-2.8a5.57,5.57,0,0,0-1.78,3.28c-.39,2.68-.62,5.38-.8,8.07a14.05,14.05,0,0,0,.13,4.4c.86,3.26.41,6.53.49,9.8a4.28,4.28,0,0,1-.57,2.24,12,12,0,0,0-1.45,6.52c0,7.7,0,15.41,0,23.11a15.67,15.67,0,0,1-.44,4.71,5.58,5.58,0,0,0,.06,2.66,15.61,15.61,0,0,1,0,7.38,3.15,3.15,0,0,0-.08,1.66c.78,2.33.43,4.72.5,7.08a21.73,21.73,0,0,0,.53,6.06,6.63,6.63,0,0,1-.2,2.32c-1,.09-1.76.18-2.53.24a12,12,0,0,0-2.7.22,15,15,0,0,1-4.7.46c-5.33,0-10.65,0-16,0-.84,0-1.79-.24-2.49.45.21,1.14,1.05.81,1.63.91,1,.16,1.25.83,1.29,1.69a66.45,66.45,0,0,1-8.11-.05,7.81,7.81,0,0,0-4.27.47C440.91,544.83,440.18,545.05,439.45,545.31Zm8.71-216.84a18.74,18.74,0,0,0,7.18.17c4.08-.59,4.06-.68,4.07,3.57,0,1.25,0,2.49,0,3.74a8,8,0,0,0,.16,2.36,18.51,18.51,0,0,1,.5,5.39c.11,3.72-.37,7.48.63,11.15a3.47,3.47,0,0,1,0,1A95.77,95.77,0,0,0,462,370c.33,2.23.53,4.48.77,6.72.28,2.58.51,5.16.81,7.74.24,2,.55,4,.82,6,.37,2.68.76,5.36,1.08,8s.48,5.17.84,7.74c.57,4,1.25,8,1.88,12,.74,4.68,1.3,9.4,2.27,14,1.38,6.63,3.07,13.19,4.62,19.78.15.61.5,1.11,1.13,1a2,2,0,0,0,1.41-.66,7.1,7.1,0,0,0,.76-2.55c.28-2.74-.56-5.37-1-8.05-.84-5.69-2.63-11.19-3.26-16.95-.54-4.92-1.62-9.78-2.43-14.67-.31-1.89-.53-3.8-.78-5.7-.53-4-1.05-8.05-1.59-12.07-.6-4.35-1.22-8.7-1.83-13.05-.23-1.68-.51-3.35-.66-5-.3-3.26-.45-6.53-.79-9.78s-.91-6.48-1.23-9.72c-.36-3.71-1-7.4-.75-11.15a3.22,3.22,0,0,0-.14-1.35,15.88,15.88,0,0,1-.51-5c-.14-3.38.38-6.79-.51-10.14a1.41,1.41,0,0,1,1-1.59c.41-.17.9-.16,1.31-.33,1.68-.67,3.36-1.34,5-2.12.25-.12.38-.75.35-1.14,0-.22-.45-.58-.7-.59a51.3,51.3,0,0,0-5.41.12,2.81,2.81,0,0,1-2.23-.38,1.83,1.83,0,0,0-2.71.33c-1.66,1.91-3.9,2.64-6.24,3.18-1,.23-2,.5-3,.71C448.78,325.77,448.29,326.86,448.16,328.47ZM441.71,541.8c1.91.54,1.91.54,2.92-.12C443.47,541.11,443.47,541.11,441.71,541.8Z"/><path class="cls-3" d="M491.85,325.26l-3-5.29a25.87,25.87,0,0,1-1.81-3.24,56.46,56.46,0,0,0-5.33-9.78,80,80,0,0,1-6.64-13.68c-1.41-3.69-2.76-7.4-4.18-11.08a9.15,9.15,0,0,0-1.07-1.68c-.34-1.31-.61-2.63-1-3.91q-2.74-8.34-5.57-16.65a29.16,29.16,0,0,0-1.24-2.74,2.65,2.65,0,0,0-.61-2.36,25.24,25.24,0,0,0-.5-2.62c-1.79-6.15-3.58-12.29-5.45-18.4-.55-1.8-.82-3.76-2.2-5.22v-.06a15.43,15.43,0,0,0-.4-2.64q-2.16-6.75-4.45-13.46a14.38,14.38,0,0,0-1.31-2.31h.06a1.72,1.72,0,0,0-.71-1.74l0,.05a16.3,16.3,0,0,0-.33-2.63c-.43-1.51-1-3-1.53-4.45-1.23-3.57-3.1-6.95-3.15-10.88a5.45,5.45,0,0,0-.51-1.59,6.73,6.73,0,0,1,3.47-2.2,5.06,5.06,0,0,0,1.39-.74,11.72,11.72,0,0,0,1.32-.22,2.45,2.45,0,0,1,2.91,1.1c1.13,1.54,2.43,3,3.63,4.46a2,2,0,0,0,2.39.73c.74-.25,1.5-.48,2.23-.78,6.65-2.83,13.28-5.71,19.94-8.49a13.21,13.21,0,0,0,7.85-7.91,3.58,3.58,0,0,1,2.14-2.47c.31-.09.75-.3.81-.54.67-2.39,2.6-2.09,4.38-2.14a7,7,0,0,0,3.41,2.08c3.14,1.26,6.3,2.5,9.35,4a135.07,135.07,0,0,0,13.1,5.47l0,0,.73.67,0,0,.65.57,6.56,3.44c1.6.84,3.2,1.65,4.79,2.51a3.75,3.75,0,0,1,1.84,2.68,9.14,9.14,0,0,1-1.26,6.81c-1.6,2.7-3.49,5.23-5.25,7.83-1.15.15-1.21,1-1.27,1.9l-.06.09a5.84,5.84,0,0,0-1.49.7c-3.25,2.93-6,6.39-9.58,9-2.89,3.71-5.9,7.35-8.12,11.53a7.52,7.52,0,0,0-.43,1.94c-.71.71-1.4,1.43-2.13,2.12s-1.48,1.33-2.24,2a49.56,49.56,0,0,0,3,8.11c3.32,7.68,6.67,15.36,10.15,23,1.64,3.6,3.59,7.06,5.42,10.57.68,1.31,1.42,2.58,2.07,3.9.24.49.59,1.22.4,1.59-.87,1.69.14,3.06.55,4.54.78,2.83,1.66,5.65,2.23,8.53a20.78,20.78,0,0,1,.33,5.73,43.57,43.57,0,0,1-4.22,16.33,17.77,17.77,0,0,1-2.31,3.73,16.5,16.5,0,0,0-2.8,4.6,14.7,14.7,0,0,1-5.66,6.6,9.7,9.7,0,0,1-9.41.74,18.39,18.39,0,0,1-5.56-3.82C494.75,327.76,493.29,326.53,491.85,325.26Z"/><path class="cls-3" d="M430.82,284.17c-1.07,7.76-.48,15.57-.7,23.36,0,1-.2,2-.32,3a11.53,11.53,0,0,0-.26,2c.23,4.08-.45,8.11-.79,12.15-.23,2.69-.73,5.35-1.15,8a10.88,10.88,0,0,1-2.49,5.83c-.71.79-.9,2-1.37,3.07-.93,2-1.89,4.08-2.84,6.12a12.81,12.81,0,0,1-3,.09c-3.77-.79-7.52-1.63-11.25-2.61a14.9,14.9,0,0,1-6.8-3.67,7.13,7.13,0,0,0-2-1.17c-.61-.29-1.28-.45-1.91-.7a5.07,5.07,0,0,1-3.6-5.18c.09-5.55-.27-11.1.31-16.64.36-3.38.56-6.77.72-10.16.34-7,1.86-13.91,3.17-20.81.17-.89.3-1.78.46-2.67a23.49,23.49,0,0,1,1.59-5.5,12,12,0,0,0,.87-8,5.22,5.22,0,0,0-1.34-.18,222.08,222.08,0,0,1-24.71,1.91,23.19,23.19,0,0,0-5,.71,13.72,13.72,0,0,1-7.7-.28c-.75-.25-1.51-.5-2.28-.68-3.85-.89-5.9-3.58-7-7.14a15.59,15.59,0,0,1-.66-3.33c-.28-3.38-.49-6.77-.71-10.16-.19-2.94-.38-5.88-.52-8.82a85.41,85.41,0,0,1,1.4-21.64c1.06-5,1.87-10,2.79-15a51.41,51.41,0,0,0,.88-5.35,8.3,8.3,0,0,1,1.65-4.37,3.4,3.4,0,0,0,.89-.46,29.05,29.05,0,0,1,8.57-5.85c1.7,0,3.39,0,5.08.07a3.15,3.15,0,0,1,2.29,1.25,18,18,0,0,1,3.72,6.78c1.31,4.1,2.52,8.23,3.87,12.31,1.25,3.76,2.63,7.47,4,11.2a16.27,16.27,0,0,0,.84,1.67,19.12,19.12,0,0,0,1.88-.78c5.39-2.94,10.21-6.71,15.06-10.43,2.25-1.72,4.39-3.57,6.65-5.28,1.55-1.18,2.57-2.5,2.21-4.58a6.16,6.16,0,0,1,.18-1.55l7.76-4.61.81.07c.16.16.31.32.48.46a8.22,8.22,0,0,1,3,6.72,50.74,50.74,0,0,0,.91,7.63c.24,1.64.62,3.26.93,4.89.29,2.2.57,4.4.86,6.6.07,1.34.08,2.69.22,4,.33,3.12.72,6.24,1.11,9.35.26,2.1.33,4.24,1.26,6.2,0,1,.07,1.92.1,2.88-.18,2.93.36,5.82.5,8.72.36,7.52,1.1,15,.88,22.56-.05,1.79,0,3.6,0,5.39A17.17,17.17,0,0,0,430.82,284.17Z"/><path class="cls-12" d="M401.05,147.74c-1.78-2-1.89-2.7-.55-4.69a10.65,10.65,0,0,1,6.87-4.62,18.29,18.29,0,0,1,5.05-.45c4.32.33,8.52-.72,12.95-.66.27-1.18.52-2.14.71-3.11,1.06-5.42,4.29-8.81,9.55-10.38a19.17,19.17,0,0,1,13.89,1A12,12,0,0,1,452.18,145a15.7,15.7,0,0,1-11,3.72c-1.13,0-2.25-.13-3.28-.2a2.08,2.08,0,0,0-.7,2.52,21.3,21.3,0,0,1,0,7.08,7.55,7.55,0,0,1-2.72,5.28c-.43.36-.85.74-1.27,1.11a9.83,9.83,0,0,1-5.74,1.43l-2-1.07c-2.8-4-2.88-8.14-.86-12.45.5-.23,1-.49,1.53,0a9.2,9.2,0,0,0,1.3.79c2.53-3,3.14-5.7,1.75-7.78a8.4,8.4,0,0,0-4.12-3.38c-1.17-.43-2.37-.78-3.53,0-.27,1.24-.54,2.44-.81,3.65a1.63,1.63,0,0,1-2.4.25,6.77,6.77,0,0,1-2.15-3.38,3.25,3.25,0,0,0-.64-.74c-.83.51-1.61,1-2.37,1.45,0,0,0,.21.05.41l1.31,1.42-3.77.54c-.54-.29-1.07-.72-1.67-.12l-3.42,1.49A7.7,7.7,0,0,1,401.05,147.74Z"/><path class="cls-6" d="M519.27,181.23a135.07,135.07,0,0,1-13.1-5.47c-3.05-1.47-6.21-2.71-9.35-4a7,7,0,0,1-3.41-2.08c-1.72-7.83-3.54-15.63-5.11-23.48-1.15-5.75-2-11.55-2.93-17.35a32.2,32.2,0,0,1-.13-4.4,14.49,14.49,0,0,0-.05-2.38c-.68-3.43.74-6.39,2-9.38a4.38,4.38,0,0,1,.81-1.07,1,1,0,0,1,1.46.25,6.33,6.33,0,0,1,.47,1.94c.06,2,0,4.07,0,6.11,0,.42.08.84.11,1.23.76.13.83-.43,1.05-.77,1.11-1.71,2.18-3.43,3.27-5.15.35-.57.7-1.15,1-1.73a12.15,12.15,0,0,1,.64-1.18,2.37,2.37,0,0,1,3-1,2.15,2.15,0,0,1,.85,2.94c-.62,1.45-1.4,2.84-2.15,4.24-1,1.79-1.93,3.58-3,5.33a4.16,4.16,0,0,0-.18,4.2c.35.71.57,1.48.9,2.2,3.65,8,7.36,16,10.94,24.09a213.53,213.53,0,0,0,10,20A47.2,47.2,0,0,1,518.8,179,10.48,10.48,0,0,1,519.27,181.23Z"/><path class="cls-9" d="M454,544.11c0-.86-.28-1.53-1.29-1.69-.58-.1-1.42.23-1.63-.91.7-.69,1.65-.44,2.49-.45,5.32,0,10.64,0,16,0a15,15,0,0,0,4.7-.46,12,12,0,0,1,2.7-.22c.77-.06,1.54-.15,2.53-.24a6.63,6.63,0,0,0,.2-2.32,21.73,21.73,0,0,1-.53-6.06c-.07-2.36.28-4.75-.5-7.08a3.15,3.15,0,0,1,.08-1.66,15.61,15.61,0,0,0,0-7.38,5.58,5.58,0,0,1-.06-2.66,15.67,15.67,0,0,0,.44-4.71c0-7.7,0-15.41,0-23.11a12,12,0,0,1,1.45-6.52,4.28,4.28,0,0,0,.57-2.24c-.08-3.27.37-6.54-.49-9.8a14.05,14.05,0,0,1-.13-4.4c.18-2.69.41-5.39.8-8.07a5.57,5.57,0,0,1,1.78-3.28c1.5.38,1.83,1.61,2.06,2.8a10.67,10.67,0,0,1,.09,2.71,8.63,8.63,0,0,0,1.72,6c1,1.34,1.59,3,3,4.09.62.48,1.28.92,1.91,1.4s1.41,1.1,2.14,1.68c-.19,1.18-.37,2.28-.55,3.38-2.72-.4-4.74-2-6.6-3.86a3.59,3.59,0,0,0-2-1.25,3.88,3.88,0,0,0-.31,1.06q.12,6.45.31,12.9c0,1.58.14,3.16.19,4.75.38,11.77,1.18,23.52.94,35.31,0,1.23.23,2.48.26,3.72.12,3.84.36,7.69.24,11.53-.15,4.65-1.79,6.22-6.42,6.63a19.64,19.64,0,0,0-5.3,1,10.31,10.31,0,0,1-3.35.41c-3.28.06-6.56.07-9.85.08a5,5,0,0,0-3.24.73C457.24,544.52,455.63,544.27,454,544.11Z"/><path class="cls-6" d="M427.51,166a9.83,9.83,0,0,0,5.74-1.43c1.35,1.94,2.69,3.89,4.08,5.81a70,70,0,0,1,7.7,12.71,5.61,5.61,0,0,1,.78,2.9,5.06,5.06,0,0,1-1.39.74,6.73,6.73,0,0,0-3.47,2.2,69,69,0,0,0-15,4.11,64.38,64.38,0,0,0-6,3.13l-.81-.07a11.33,11.33,0,0,1-.51-2.26c-.05-2.46,0-4.93.05-7.39a7,7,0,0,1,.62-1.83,2.54,2.54,0,0,0,2.61-1.2,32.21,32.21,0,0,0,2.07-3.48C426,175.49,427.74,171,427.51,166Z"/><path class="cls-6" d="M424.62,152.46c-2,4.31-1.94,8.47.86,12.45a15.14,15.14,0,0,1-.12,2.7,14.4,14.4,0,0,1-1.26,4.15,62.8,62.8,0,0,1-3.69,5.25c-.51.73-1,1.51-1.44,2.26-1.24,0-2.49-.14-3.72-.09a10.94,10.94,0,0,1-5-.9c-5.34-2.32-9.2-6.07-10.91-11.76a21.38,21.38,0,0,1-.43-3.32c1.2.61,2.4,1.22,3.81.8a16.39,16.39,0,0,0,2.31.15c1.23-.08,2-.83,2.57-2.17l-1.93-.51c.65-1.83,1.29-3.67,1.93-5.5a13.72,13.72,0,0,0,1.07,5.94,1.15,1.15,0,0,0,2,.18,6.66,6.66,0,0,0,1.2-4.47c4,1.06,6.42-.51,6.86-4.48.21-2,0-3.82-1.5-5.28l0,0-.72-1.69-.95-.36-1.12-.75.06.07-1.31-1.42c0-.2-.09-.38-.05-.41.76-.48,1.54-.94,2.37-1.45a3.25,3.25,0,0,1,.64.74,6.77,6.77,0,0,0,2.15,3.38,1.63,1.63,0,0,0,2.4-.25c.38.53,1,1,1.08,1.58A9.64,9.64,0,0,0,424.62,152.46Zm-7.43,11.95c1-.46.92-1.4.86-2.25a1.19,1.19,0,0,0-1.3-1.19c-.74,0-.73.68-.93,1.15a3.29,3.29,0,0,0-2.44.91c-1.27,1.08-2.61,2.08-3.86,3.19a26.34,26.34,0,0,0-2,2.21c-1.25,0-1.82.68-2,1.84-.12,1,.32,1.29,1.69,1.15,2.83,1.77,5.58,1.18,8.32-.26a2.72,2.72,0,0,0,1.71-2.67C417.22,167.13,417.21,165.77,417.19,164.41Z"/><path class="cls-6" d="M365.63,190a29.05,29.05,0,0,0-8.57,5.85,3.4,3.4,0,0,1-.89.46,5.06,5.06,0,0,1-.72-1.48c-.31-2.92-.52-5.84-.82-8.76-.36-3.47-.8-6.94-1.14-10.41a15.39,15.39,0,0,1,.1-3c.06-.66.33-1.31.39-2a1.88,1.88,0,0,0-1.53-2.27c-3.78-1.19-5.45-4.06-6.27-7.67-.35-1.57,1.09-2.31,2.32-1.81a8.55,8.55,0,0,1,1.89,1.38c1.76,1.41,3.5,2.84,5.25,4.25.07.05.21,0,.54.05.85-.73.67-2,1-3a5.73,5.73,0,0,1,2.4-3.16,1.79,1.79,0,0,1,1.55,0,1.68,1.68,0,0,1,.78,1.34c-.79,3.82-.24,7.67-.44,11.5a22.14,22.14,0,0,0,1.25,8c.87,2.69,1.68,5.39,2.46,8.11A23.42,23.42,0,0,1,365.63,190Z"/><path class="cls-12" d="M531.58,375.13a4.25,4.25,0,0,1-3.12-.9,65.1,65.1,0,0,1-4.93-4.45,7.93,7.93,0,0,1-2.35-5.71c2.08-2.83,4.87-3.91,7.85-2.88q3.66,1.28,7.22,2.85a16.37,16.37,0,0,1,8.55,9.13c.58,1.39-.07,2.59-1.54,2.62a47.57,47.57,0,0,1-5.72-.32c-1.24-.12-2.44-.47-3.68-.57A11.84,11.84,0,0,0,531.58,375.13Z"/><path class="cls-13" d="M454,544.11c1.64.16,3.25.41,4.36,1.84a3.06,3.06,0,0,0-.3.6c-.65,2.68-2.66,3.79-5.1,4.31-5.4,1.15-10.81,2.29-16.23,3.34a23,23,0,0,1-4.39.21,5.31,5.31,0,0,1-1.95-.47,1.6,1.6,0,0,1-.62-2.53,9.15,9.15,0,0,1,2.06-1.72c2.52-1.5,5.08-2.93,7.63-4.38.73-.26,1.46-.48,2.16-.78a7.81,7.81,0,0,1,4.27-.47A66.45,66.45,0,0,0,454,544.11Z"/><path class="cls-10" d="M417.22,147.86c1.54,1.46,1.71,3.32,1.5,5.28-.44,4-2.85,5.54-6.86,4.48l-2.3-2.42-1.93.77c-.64,1.83-1.28,3.67-1.93,5.5L402.75,164c-1.41.42-2.61-.19-3.81-.8a24.51,24.51,0,0,1-2-1.83c-1.84-2.16-1.9-4.79-.64-7.49a5.43,5.43,0,0,1,3.8-3.45c1.06.18,2.12.31,3.15.56a.62.62,0,0,1,.38,1c-.65,0-1.31-.13-2-.12a3.17,3.17,0,0,0-2.85,1.29c-2.24,2.63-2.26,4.54-.09,7.84.54,1.24,1.65,1.44,2.79,1.43a3.29,3.29,0,0,0,2.8-1.6,6.6,6.6,0,0,0,.82-6.39c-.22-.57-.83-1.14-.18-1.81,1.29,0,1.11,1.6,2.3,2.08l1.88-1.08c-1.4-2.79-.92-5.41-.07-8,.6-.6,1.13-.17,1.67.12-2.18,3.44-1.47,6.68.79,9.72a3,3,0,0,0,5.12-.13,5.62,5.62,0,0,0,1-4.5C417.47,149.83,417.37,148.84,417.22,147.86Z"/><path class="cls-14" d="M506.34,230.84a7.52,7.52,0,0,1,.43-1.94c2.22-4.18,5.23-7.82,8.12-11.53,3.58-2.59,6.33-6.05,9.58-9a5.84,5.84,0,0,1,1.49-.7,6.73,6.73,0,0,1-.51,1.24,132.93,132.93,0,0,1-16.93,20.34A17.26,17.26,0,0,1,506.34,230.84Z"/><path class="cls-6" d="M419,179.27c.48-.75.93-1.53,1.44-2.26a62.8,62.8,0,0,0,3.69-5.25,14.4,14.4,0,0,0,1.26-4.15,15.14,15.14,0,0,0,.12-2.7l2,1.07c.23,5-1.55,9.51-3.53,13.94a32.21,32.21,0,0,1-2.07,3.48,2.54,2.54,0,0,1-2.61,1.2Z"/><path class="cls-6" d="M409.1,145.59c-.85,2.62-1.33,5.24.07,8l-1.88,1.08c-1.19-.48-1-2-2.3-2.08l0,0c-.39-1-.68-1.18-1.4-.69l.05,0a.62.62,0,0,0-.38-1c-1-.25-2.09-.38-3.15-.56l.92-2.69a7.7,7.7,0,0,0,4.63-.66Z"/><path class="cls-6" d="M520,181.88l-.73-.67Z"/><path class="cls-6" d="M520.61,182.43l-.65-.57Z"/><path class="cls-1" d="M430.82,284.17a17.17,17.17,0,0,1-.54-2.6c-.09-1.79-.1-3.6,0-5.39.22-7.54-.52-15-.88-22.56-.14-2.9-.68-5.79-.5-8.72.79.64,1.53,1.35,2.36,1.91,2.39,1.63,4.56.72,5.89-1.18a12.79,12.79,0,0,0,1.5-3.37c.71-2.13,1.27-4.31,1.93-6.46a9.28,9.28,0,0,1,.91-1.53c.48,1.2.87,2,1.13,2.86.35,1.19.58,2.41.91,3.6a37.5,37.5,0,0,0,1.27,4.19c.72,1.74,2.33,2.42,4.06,2.67a3.45,3.45,0,0,0,3.7-3.2,22.14,22.14,0,0,0-.23-7.74c-.36-1.75-.62-3.53-.92-5.26l1.91-1v-1.75c1.38,1.46,1.65,3.42,2.2,5.22,1.87,6.11,3.66,12.25,5.45,18.4a25.24,25.24,0,0,1,.5,2.62,6.46,6.46,0,0,0-4.3.5,2.49,2.49,0,0,1-1.24.36c-1.6-.17-2.24.88-2.64,2.1a8.31,8.31,0,0,0-.4,2.67c0,2.48.19,5,.3,7.46.06,1.47.2,2.94.19,4.4a1.92,1.92,0,0,1-1.49,2,2,2,0,0,1-2.26-1.11,10.43,10.43,0,0,1-1-2.84c-.32-1.67-.38-3.38-.68-5.05-.38-2.11-.85-4.2-1.37-6.28a7.91,7.91,0,0,0-1-2.15c-.83-1.36-2-1.93-3.08-1.55s-1.25,1.47-1.35,2.5c-.21,2.25-.38,4.51-.65,6.76a13,13,0,0,1-.69,3c-.78,2.1-2.21,2.41-3.9.86a12.77,12.77,0,0,1-1.45-1.87c-.38-.52-.74-1.06-1.16-1.66-1.15.81-.75,1.69-.46,2.51.81,2.34,3.21,4.21,5.27,4.15s3.68-1.58,4.45-4.44a15.93,15.93,0,0,0,.38-1.66c.17-1.23.25-2.48.46-3.7a8.71,8.71,0,0,1,.94-1.77c.41,2,.75,3.45,1,4.89s.39,3.14.61,4.71a12.23,12.23,0,0,0,1.85,5.07,4.34,4.34,0,0,0,4.77,1.83,3.58,3.58,0,0,0,3-3.24,28.9,28.9,0,0,0,.12-4.37c-.07-2.72-.24-5.43-.3-8.14a5.85,5.85,0,0,1,.92-3.86,14,14,0,0,1,5.78.3,29.16,29.16,0,0,1,1.24,2.74q2.84,8.31,5.57,16.65c.42,1.28.69,2.6,1,3.91-4.92.64-9.85,1.09-14.8,1.47-5.5.43-11,1.25-16.47,1.8C436,284,433.41,284.05,430.82,284.17Z"/><path class="cls-10" d="M448.16,328.47c.13-1.61.62-2.7,2.23-3,1-.21,2-.48,3-.71,2.34-.54,4.58-1.27,6.24-3.18a1.83,1.83,0,0,1,2.71-.33,2.81,2.81,0,0,0,2.23.38,51.3,51.3,0,0,1,5.41-.12c.25,0,.69.37.7.59,0,.39-.1,1-.35,1.14-1.63.78-3.31,1.45-5,2.12-.41.17-.9.16-1.31.33a1.41,1.41,0,0,0-1,1.59c.89,3.35.37,6.76.51,10.14a15.88,15.88,0,0,0,.51,5,3.22,3.22,0,0,1,.14,1.35c-.28,3.75.39,7.44.75,11.15.32,3.24.89,6.47,1.23,9.72s.49,6.52.79,9.78c.15,1.68.43,3.35.66,5,.61,4.35,1.23,8.7,1.83,13.05.54,4,1.06,8.05,1.59,12.07.25,1.9.47,3.81.78,5.7.81,4.89,1.89,9.75,2.43,14.67.63,5.76,2.42,11.26,3.26,16.95.4,2.68,1.24,5.31,1,8.05a7.1,7.1,0,0,1-.76,2.55,2,2,0,0,1-1.41.66c-.63.06-1-.44-1.13-1-1.55-6.59-3.24-13.15-4.62-19.78-1-4.63-1.53-9.35-2.27-14-.63-4-1.31-8-1.88-12-.36-2.57-.53-5.16-.84-7.74s-.71-5.36-1.08-8c-.27-2-.58-4-.82-6-.3-2.58-.53-5.16-.81-7.74-.24-2.24-.44-4.49-.77-6.72a95.77,95.77,0,0,1-1.28-14.14,3.47,3.47,0,0,0,0-1c-1-3.67-.52-7.43-.63-11.15a18.51,18.51,0,0,0-.5-5.39,8,8,0,0,1-.16-2.36c0-1.25,0-2.49,0-3.74,0-4.25,0-4.16-4.07-3.57A18.74,18.74,0,0,1,448.16,328.47Z"/><path class="cls-9" d="M441.71,541.8c1.76-.69,1.76-.69,2.92-.12C443.62,542.34,443.62,542.34,441.71,541.8Z"/><path class="cls-1" d="M428.75,242c-.93-2-1-4.1-1.26-6.2-.39-3.11-.78-6.23-1.11-9.35-.14-1.33-.15-2.68-.22-4a1.25,1.25,0,0,0,1.19-1.38c.07-1.57.11-3.16.09-4.74a7.38,7.38,0,0,1,1.34-4.46c.82-1.19,1.9-1.26,2.72-.12a17,17,0,0,1,1.36,2.34c.52,1,.91,2.07,1.46,3a36,36,0,0,0,2.48,4,2.22,2.22,0,0,0,3.9-.29,9.78,9.78,0,0,0,1-3.54,39.65,39.65,0,0,0-.24-4.73c-.08-1.23-.21-2.47-.22-3.71a3.53,3.53,0,0,1,.5-1.22,6.51,6.51,0,0,1,2.81,3.12c.32.72.58,1.46,1,2.16a1,1,0,0,0,1.51.45c0-1,.08-2.15.12-3.27a14.38,14.38,0,0,1,1.31,2.31q2.29,6.7,4.45,13.46a15.43,15.43,0,0,1,.4,2.64,2.32,2.32,0,0,0-3.08-.41,2.84,2.84,0,0,0-1.35,2.58,7.9,7.9,0,0,0,.15,1.68c.3,1.78.68,3.55.93,5.34.35,2.43.58,4.88-.4,7.31a2.51,2.51,0,0,1-2.89-2,21.38,21.38,0,0,1-.75-3.64,20,20,0,0,0-2.24-6.72c-1.1-2.15-3.13-2.26-4.62-.36a4.41,4.41,0,0,0-.77,1.49c-.69,2.5-1.36,5-2,7.52-.37,1.56-.78,3.07-2.25,4-2.6-.57-2.62-.58-3.87-1.86Z"/><path class="cls-1" d="M420,196.15a64.38,64.38,0,0,1,6-3.13,69,69,0,0,1,15-4.11,5.45,5.45,0,0,1,.51,1.59c.05,3.93,1.92,7.31,3.15,10.88.51,1.48,1.1,2.94,1.53,4.45a16.3,16.3,0,0,1,.33,2.63,10.15,10.15,0,0,1-1-.79c-.82-.78-1.54-1.66-2.41-2.37a2.12,2.12,0,0,0-3.25.41,4.76,4.76,0,0,0-1,3.5c.23,2.13.4,4.27.62,6.41.15,1.43.38,2.87-.66,4.11-.3-.16-.57-.21-.67-.37a20.79,20.79,0,0,1-1.2-2c-1.09-2.11-2.12-4.25-3.2-6.36-1.61-3.12-4.48-3.95-6.95,0a11.1,11.1,0,0,0-1.43,4.84c-.31-1.63-.69-3.25-.93-4.89a50.74,50.74,0,0,1-.91-7.63,8.22,8.22,0,0,0-3-6.72C420.26,196.47,420.11,196.31,420,196.15Z"/><path class="cls-15" d="M447.16,210.15a1.75,1.75,0,0,1-.71-1.74A1.72,1.72,0,0,1,447.16,210.15Z"/><path class="cls-6" d="M424.62,152.46a9.64,9.64,0,0,1-2.8-5.12c-.07-.57-.7-1.05-1.08-1.58.27-1.21.54-2.41.81-3.65,1.16-.82,2.36-.47,3.53,0a8.4,8.4,0,0,1,4.12,3.38c1.39,2.08.78,4.76-1.75,7.78a9.2,9.2,0,0,1-1.3-.79C425.6,152,425.12,152.23,424.62,152.46Z"/><path class="cls-6" d="M417.22,147.86c.15,1,.25,2,.45,2.94a5.62,5.62,0,0,1-1,4.5,3,3,0,0,1-5.12.13c-2.26-3-3-6.28-.79-9.72l3.77-.54-.06-.07c.08.69.65.64,1.12.75l.95.36c-.6.95-.52,1.14.72,1.69Zm-2.1,2.85c-1.23.5-.58,2.62-2.39,2.27,0,.21-.05.47,0,.63a1.26,1.26,0,0,0,2.19.18A3.16,3.16,0,0,0,415.12,150.71Z"/><path class="cls-16" d="M407.51,168.43a26.34,26.34,0,0,1,2-2.21c1.25-1.11,2.59-2.11,3.86-3.19a3.29,3.29,0,0,1,2.44-.91c-.05,1.06,0,2.06,1.37,2.29,0,1.36,0,2.72.07,4.08a2.72,2.72,0,0,1-1.71,2.67c-2.74,1.44-5.49,2-8.32.26C407.48,170.43,408,169.48,407.51,168.43Z"/><path class="cls-6" d="M407.63,156l1.93-.77,2.3,2.42a6.66,6.66,0,0,1-1.2,4.47,1.15,1.15,0,0,1-2-.18A13.72,13.72,0,0,1,407.63,156Z"/><path class="cls-6" d="M402.75,164l2.95-2.53,1.93.51c-.6,1.34-1.34,2.09-2.57,2.17A16.39,16.39,0,0,1,402.75,164Z"/><path class="cls-10" d="M417.19,164.41c-1.34-.23-1.42-1.23-1.37-2.29.2-.47.19-1.15.93-1.15a1.19,1.19,0,0,1,1.3,1.19C418.11,163,418.23,164,417.19,164.41Z"/><path class="cls-10" d="M407.51,168.43c.47,1,0,2-.28,3-1.37.14-1.81-.16-1.69-1.15C405.69,169.11,406.26,168.41,407.51,168.43Z"/><path class="cls-10" d="M417.27,147.9c-1.24-.55-1.32-.74-.72-1.69Z"/><path class="cls-12" d="M415.6,145.85c-.47-.11-1-.06-1.12-.75Z"/><path class="cls-6" d="M398.85,153.15a3.17,3.17,0,0,1,2.85-1.29c.65,0,1.31.08,2,.12l-.05,0c.52,1,.76,1.12,1.4.69l0,0c-.65.67,0,1.24.18,1.81a6.6,6.6,0,0,1-.82,6.39,3.29,3.29,0,0,1-2.8,1.6c-1.14,0-2.25-.19-2.79-1.43Zm2.71,4.27a4.14,4.14,0,0,0,0-.61c0-.09-.11-.17-.17-.26-.09.15-.29.35-.25.44s.3.27.45.4c1,1.88,1.4,1.93,2.49.27a2,2,0,0,0,0-2.4c-.16.14-.4.25-.43.39-.09.53-.11,1.07-.16,1.6Z"/><path class="cls-10" d="M405,152.64c-.64.43-.88.31-1.4-.69C404.33,151.46,404.62,151.61,405,152.64Z"/><path class="cls-8" d="M415.12,150.71a3.16,3.16,0,0,1-.15,3.08,1.26,1.26,0,0,1-2.19-.18c-.1-.16,0-.42,0-.63C414.54,153.33,413.89,151.21,415.12,150.71Z"/><path class="cls-10" d="M401.56,157.42l1.91-.17.62.41c-1.09,1.66-1.53,1.61-2.49-.27Z"/><path class="cls-10" d="M403.47,157.25c0-.53.07-1.07.16-1.6,0-.14.27-.25.43-.39a2,2,0,0,1,0,2.4Z"/><path class="cls-10" d="M401.6,157.39c-.15-.13-.37-.23-.45-.4s.16-.29.25-.44c.06.09.16.17.17.26a4.14,4.14,0,0,1,0,.61Z"/><g class="cls-4"><path class="cls-3" d="M228.42,13.3h-6.67c-62.18,0-98.38-8-110.69-24.38-3.72-5.19-6.06-16.09-7.41-34.38-.64-7.66-1-34.56-1-82.22l-1-80.95v-76.26c0-59.65,1.61-106.58,4.77-139.48,2.61-28.73,7.3-48.42,14.34-60.17,7.18-12,19-20.07,35.19-24.11,5.47-1.36,18.55-2,40-2,58.32,0,112.23,4,160.21,12s86.47,18.83,114,32.25a150.11,150.11,0,0,1,40.65,31.32c12.1,13.09,20.24,26.41,24.19,39.59,3.33,13.31,4.92,23.28,4.92,30.62,0,30.18-13.23,57.72-39.32,81.86L484-268.74l5.12,2.32c32.69,13.09,54.29,42.85,64.06,88.4,3.26,16.35,4.85,28.44,4.85,37,0,34-12.79,62.23-38,83.85-24.82,21.27-64,38.53-116.38,51.31C349.65,6.85,290.69,13.3,228.42,13.3ZM196-503.13c-25.57,0-34.86,1-38.16,1.8-14.15,3.54-24.43,10.5-30.54,20.67-6.36,10.6-10.83,29.78-13.3,57-3.15,32.69-4.75,79.37-4.75,138.78v76.22l1,80.95c0,46.82.31,74.28.94,81.67,1.58,21.51,4.42,28.34,6,30.5,10.58,14.12,45.79,21.3,104.6,21.3h6.67c61.69,0,120.06-6.38,173.5-19,51.21-12.48,89.32-29.2,113.22-49.69C538.61-83,550.51-109.3,550.51-141c0-7.95-1.58-19.88-4.69-35.46-9.2-42.89-29.26-70.83-59.64-83l-16-7.26,25.42-22c24.39-22.57,36.81-48.24,36.81-76.23,0-6.63-1.57-16.26-4.66-28.62-3.57-11.9-11.14-24.22-22.45-36.47a142.33,142.33,0,0,0-38.52-29.7c-26.73-13-64.37-23.68-111.78-31.55C307.43-499.13,253.94-503.13,196-503.13ZM318-134.38h-7.62l-19.57-1.15-2.3-19.78v-11.43c0-24.77,4.54-37.44,14.29-39.88l.54-.09,19.43-1.92c12.49,0,23.87,2,33.8,6,16.76,7,25.24,16.82,25.24,29.23,0,8.87-4.05,16.3-12,22.11C356.63-140.14,339.14-134.38,318-134.38Zm-20.43-8.31,13,.77H318c19.31,0,35.16-5.15,47.11-15.3,6.23-4.55,9.15-9.79,9.15-16.19,0-9.2-6.72-16.47-20.55-22.24-8.93-3.57-19.3-5.41-30.75-5.42l-18.55,1.85c-2.68.84-8.36,5.79-8.36,32.49v11.21Zm18.53-167H291.35v-22.82c0-15.31,1.82-24.44,5.74-28.75s12.47-6.47,26.61-6.47c35.41,0,42.84,15,42.84,27.59C366.54-319.95,349.56-309.71,316.08-309.71Zm-17.19-7.54h17.19c42.91,0,42.91-17.24,42.91-22.91,0-5,0-20-35.29-20-15.69,0-19.93,2.8-21,4s-3.78,6.05-3.78,23.67Z"/></g>
</svg>