<svg id="Capa_1" data-name="Capa 1" xmlns="http://www.w3.org/2000/svg" viewBox="0 0 696.73 654.8"><defs><style>.cls-1{opacity:0.24;}.cls-2{fill:#ffc600;}.cls-3{fill:#f5333f;}.cls-4{fill:#10cfc9;}.cls-5{fill:#020202;}.cls-6{fill:#ffba98;}.cls-7{fill:#111010;}.cls-8{fill:#2c2021;}.cls-9{fill:#6e6e6e;}.cls-10{fill:#505050;}.cls-11{fill:#646464;}.cls-12{fill:#070707;}.cls-13{fill:#181818;}.cls-14{fill:#68d9d4;}.cls-15{fill:#c4504d;}.cls-16{fill:#fff;}</style></defs><title>ILUSTRACIÓN CELULAR</title><g class="cls-1"><path class="cls-2" d="M307.39,171.15c11.55,2.54,21.49,10,30.31,17.55,9.63,8.22,20.43,14.07,31.22,20.62s-2.67,11.15-9.4,11.62c-9.8.7-19.14-1.4-28.3-4.52-8.87-3-17-7.28-23.83-13.9a48.79,48.79,0,0,1-9.58-12.72,20,20,0,0,1-2.6-10C295.56,171.37,300.78,169.69,307.39,171.15Z"/><path class="cls-3" d="M390.69,180.5c.83-10.74,2.49-19.47,5.9-27.82A33.29,33.29,0,0,1,403,142a21.82,21.82,0,0,1,4-3.36c4.09-2.61,8.44-3.27,12.82-.78s6.37,6.57,6.46,11.56a17.51,17.51,0,0,1-3.32,10.1c-2.95,4.43-6.14,8.7-9.26,13s-6.4,8.53-9.37,12.94a40.17,40.17,0,0,0-7.12,19,2.34,2.34,0,0,1-.16,1c-.36.53-.76,1.18-1.29,1.39-.34.14-1.17-.3-1.4-.7a15.18,15.18,0,0,1-1.72-3.73C390.59,194.67,389.86,186.75,390.69,180.5Z"/><path class="cls-4" d="M348.66,158.41a17.69,17.69,0,0,1,.62-2.57c1.05-2.87,3.47-4.4,6.31-3.41a16.75,16.75,0,0,1,6.46,3.83,53.86,53.86,0,0,1,7.12,9.39,63.62,63.62,0,0,1,7.75,19.67c.78,3.63,1.63,7.24,2.32,10.89a19.39,19.39,0,0,1,.28,4.5c-.12,2.55-1.51,3.28-3.71,1.87a38,38,0,0,1-5.85-4.36c-8.11-7.78-15-16.49-19.07-27.11A28.73,28.73,0,0,1,348.66,158.41Z"/><path class="cls-5" d="M226.18,436.44a10.58,10.58,0,0,1,0-1.49,86.38,86.38,0,0,1,7.44-27,134.22,134.22,0,0,0,6.06-14.51,2.66,2.66,0,0,1,.56.49c3.2,4.78,7.62,8.31,12.16,11.69A209.35,209.35,0,0,0,275.2,421c.88.49,1.76,1,2.67,1.38.44.19,1.16.42,1.43.21,1.76-1.33,3,0,4.42.67a107.11,107.11,0,0,0,30.14,10.4c1.73.31,3.49.42,5.23.62,1.41.81,2.78,1.68,4.22,2.43a120.54,120.54,0,0,1,16.37,10.05,62.28,62.28,0,0,0,6.35,4c6.35,3.57,12.79,7,19.1,10.63,2.56,1.48,5.48,2.59,7.14,5.34.17.29.6.43.93.62a14.73,14.73,0,0,1,7,9.29c.2.73.43,1.44.64,2.17a63.16,63.16,0,0,1,1.66,29.08c-1.45,7.78-2.84,15.58-3.62,23.47-.26,2.74-.7,5.48-1.19,8.2-.15.8-.55,1.92-1.16,2.21-1.42.67-1.58,1.81-1.81,3C373.85,549.87,373,555,372,560c-2.14,10.72-4.38,21.42-6.54,32.14-1.31,6.52-2.47,13.08-3.86,19.59a18.29,18.29,0,0,0-.25,8.44l-1.92,1.9c-2.43-2.18-3.6-2.65-7-2.77.65,2,1.3,3.81,1.89,5.69A28.58,28.58,0,0,1,356,632.7c.08,2.31-1.57,3.33-3.42,2.61a16.36,16.36,0,0,1-4.22-2.41c-6.68-5.28-11.73-11.67-13.19-20.37l-4.7-1.67c-1.16.06-1.58,1.31-2.57.85-1.63-2.7-1.44-5.59-1.16-8.47.42-4.26.85-8.51,1.34-12.75.52-4.49,1.05-9,1.68-13.47,1.14-8.09,2.25-16.17,2.81-24.33.3-4.51.81-9,1.26-13.51.4-4,.85-8,1.25-12,.22-2.08-.06-2.7-1.94-3.57-2.61-1.22-5.29-2.32-7.95-3.44s-5.63-2.18-8.33-3.51c-4.42-2.17-9.21-3.27-13.8-4.93-.16-.06-.42.16-.8.31-.2,1.65-.47,3.39-.62,5.14-.75,8.89-1.39,17.79-2.23,26.67q-1.78,19.15-3.81,38.27a351.74,351.74,0,0,1-5.82,38.31,97.72,97.72,0,0,0-2.42,17.15q-.33,8.1-1.06,16.18c-.48,5.37-1,10.76-1.89,16.09-1.21,7.43-2.71,14.82-4.14,22.22-.82,4.25-1.4,5.37-3.88,8.06a24.42,24.42,0,0,1,5.78,6.34,13.76,13.76,0,0,0,2.15,2.09c1.25,1.22,2.55,2.41,3.73,3.71a1.8,1.8,0,0,1-.44,2.64,3.7,3.7,0,0,1-1.71.65A11.3,11.3,0,0,1,279.4,714a54.19,54.19,0,0,1-17.61-15.7l-4.9-.53c-1.12-.11-2.26-.12-3.37-.33-1.27-.23-1.56-.85-1.58-2.75l3-.51c0-5.35,0-10.49,0-15.64a8.5,8.5,0,0,1,.28-3.33c.92-2,.82-4.17.94-6.29.26-4.89.48-9.79.76-14.68.21-3.52.66-7,.71-10.53.2-14,.48-27.92.35-41.87-.16-17-.51-33.95-1.16-50.91-.42-10.92-1.57-21.81-2.3-32.72-.63-9.53-1.22-19.07-1.17-28.63,0-1-.1-2-.12-2.42L240.4,477.07a3.2,3.2,0,0,0-3.2-2.85l-.7-.66c.14-1.47-.91-2.27-1.81-3.11a20.68,20.68,0,0,1-3.59-4.76c-.72-1.27-1.24-2.33-.72-3.81.21-.61-.28-1.16-1-1.33-.12-.52-.23-1-.35-1.54-.32-1.71-.65-3.41-1-5.38l-2.1.21c-.15-.95-.32-1.9-.44-2.86s-.16-1.69-.23-2.53c.26-3.52.53-7,.79-10.54C226.68,437.47,226.85,437,226.18,436.44ZM271.49,703c-.06-.08-.13-.15-.2-.23l-.12-.17.15.13C271.38,702.86,271.44,703,271.49,703Zm5.49,4.78-.09-.78a6.72,6.72,0,0,0-3.91-3.4c.86,2.14.86,2.14,3.47,3.84Z"/><path class="cls-3" d="M236.57,305.83c.2-.59.35-1.23,1.15-1.28l1.48,1.26c1.73-1.18,2.36-3,3.13-4.65a41.55,41.55,0,0,1,2.6-5.42c2.61-4,5.37-7.9,8.17-11.76a30.87,30.87,0,0,1,7.92-7.45,8.22,8.22,0,0,1,5.65-1.67c1,.12,2,0,3,.17a158,158,0,0,1,23.54,5.11,33.23,33.23,0,0,0,4.76,1,5.15,5.15,0,0,1,3.34,1.51,7.85,7.85,0,0,0,3.9,2.15c.12,1.45-1.34,1.18-2.16,1.75a19.18,19.18,0,0,0,5.7,7c7.78,5.81,16.47,8.93,26.25,8.52a36.13,36.13,0,0,0,12.78-2.72,28.62,28.62,0,0,1,3.56-1.06c2,2.42,4,4.83,5.93,7.29a14,14,0,0,1,1.27,2.28c.57,1.1,1,2.26,1.69,3.32,3.67,6,7.47,11.89,11,17.95a55.92,55.92,0,0,1,4.18,8.81,28.62,28.62,0,0,1,2,12.54c-.21,2.49-.29,5-.37,7.49a3.86,3.86,0,0,1-1,2.74c-.52.54-1,1.12-1.5,1.68a11.29,11.29,0,0,0-1.44.39,50.87,50.87,0,0,1-14.53,3.56c-3.1.34-6.16,1.1-9.22,1.71a3.2,3.2,0,0,0-2.77,2.7c-.11.61-.37,1.2-.53,1.8q-1.87,7.06-3.74,14.13c-1,2.82-1.91,5.63-2.87,8.44-.26-.26-.69-.47-.77-.78a74.5,74.5,0,0,1-2.49-10.21c-.66-5-1.37-9.91-1.64-14.93A125.86,125.86,0,0,0,333,356.49a5.62,5.62,0,0,0-2-3.91,6.49,6.49,0,0,1-1.47-2.51c-.3-.67-.33-1.47-.64-2.15a2.92,2.92,0,0,0-4.36-1.44,20.72,20.72,0,0,0-3.14,2.06c-4.77,3.88-9.5,7.8-14.24,11.71-6.48,5.34-13.08,10.55-20,15.37l-3.9,2.69c-.44-.52-1-.91-1.14-1.4a37.23,37.23,0,0,1-.9-4.8c-.6-5-.72-10-1-15-.32-5.89-.58-11.77-.57-17.67a5.79,5.79,0,0,0-.18-1.49,2.35,2.35,0,0,0-3.61-1.29A19.81,19.81,0,0,0,272.8,340a93.85,93.85,0,0,1-11.25,13.13,93.79,93.79,0,0,1-9.58,7.57c-1-.18-1-.86-1.13-1.46-.21-1.36-.48-2.71-.59-4.08-.32-4-.47-8-.91-12a21.37,21.37,0,0,0-1.42-4.64c-.24-.69-.9-.79-1.57-.71-1.21-4.08-2.45-8.15-3.65-12.24-1.41-4.82-2.76-9.65-4.2-14.46a12.1,12.1,0,0,0-1.22-2.26c-.07-.44-.14-.88-.22-1.31A1.32,1.32,0,0,0,236.57,305.83Zm118.81,58.79c5.12-.3,10.22-.69,15.08-2.52a13.39,13.39,0,0,0,2.67-1.35,1.35,1.35,0,0,0,.45-1.21c-.14-.36-.7-.63-1.13-.78a1.92,1.92,0,0,0-1.11.06c-5,1.5-10.24,2.41-15.11,4.47-.43.18-.83.46-1.71,1A4.73,4.73,0,0,0,355.38,364.62Z"/><path class="cls-3" d="M239.68,393.46a2.66,2.66,0,0,1,.56.49c3.2,4.78,7.62,8.31,12.16,11.69A209.35,209.35,0,0,0,275.2,421c.88.49,1.76,1,2.67,1.38.44.19,1.16.42,1.43.21,1.76-1.33,3,0,4.42.67a107.11,107.11,0,0,0,30.14,10.4c1.73.31,3.49.42,5.23.62,2.68.18,4.35-1.14,5.71-3.39a113.35,113.35,0,0,0,7.78-16.17c1.12-2.77,2.08-5.61,3.11-8.42l-2.27-3.37c-1.05.2-2.11.54-2.76-.57a17.21,17.21,0,0,1-2.8-7.7c-.22-4.13-.47-8.25-.72-12.38a17,17,0,0,0-.2-1.87q-.65-4.26-1.31-8.53c-.25-1.6-.52-3.21-.72-4.82a2.72,2.72,0,0,1,1.26-2.92,3.65,3.65,0,0,0,1.65-3.2c.23-3.45-.84-6.59-2.11-9.87a6.41,6.41,0,0,0-1.58.5c-1.32.95-2.6,2-3.86,3-2.33,1.9-4.62,3.85-7,5.74-2.91,2.38-5.9,4.66-8.77,7.09A233.42,233.42,0,0,1,284,382.63c-2.76,1.85-4.21,1.18-5.17-2a56.85,56.85,0,0,1-2.1-12.58c-.44-6.24-1.21-12.48-.9-18.77.07-1.25,0-2.51,0-3.77,0-.45.14-1-.67-1.33-3.71,4.08-7.23,8.46-11.28,12.28a93.7,93.7,0,0,1-13.61,10.29,3.89,3.89,0,0,1-2.67-2.76,35.85,35.85,0,0,1-1.08-5.12c-.21-2-.07-4-.18-6a16.16,16.16,0,0,0-.56-2.51c-.61,1.23-1.31,2.43-1.81,3.7-3.57,9.1-7.13,18.21-10,27.55-.37,1.2-.64,2.42-1,3.61-.86,2.56.54,4.29,2.15,5.89a2.28,2.28,0,0,0,1.68.62C238.29,391.43,239,392.32,239.68,393.46Z"/><path class="cls-6" d="M374.58,362.34a11.29,11.29,0,0,0-1.44.39,50.87,50.87,0,0,1-14.53,3.56c-3.1.34-6.16,1.1-9.22,1.71a3.2,3.2,0,0,0-2.77,2.7c-.11.61-.37,1.2-.53,1.8q-1.87,7.06-3.74,14.13a2.15,2.15,0,0,1,1.33,2.11c-.17,2.45,1.13,3.82,3,5.16a42.2,42.2,0,0,0,5.44,3.34c4.5,2.23,9,4.55,13.5,6.68a112.8,112.8,0,0,0,10.41,4.37c4.14,1.45,8.34,1.66,12.37-.63a4.66,4.66,0,0,1,2.13-.63,5,5,0,0,0,3.59-1.76,23.08,23.08,0,0,0,4.41-6.07,103.05,103.05,0,0,0,7.25-16.53,25.52,25.52,0,0,1,2.91-6.91,10.87,10.87,0,0,0,1.26-3.52c1.44-5.45,2.89-10.91,4.22-16.39,1.28-5.23,2.41-10.49,3.61-15.73a14,14,0,0,1,.42-1.44c2.06-5.55,2.77-11.45,4.42-17.1a3,3,0,0,0-1.41-3.83,36.9,36.9,0,0,0-10.94-4.91,6.21,6.21,0,0,0-1.49-.19c-2.22-.12-3,.54-3.11,2.72s0,4.27,0,6.41c0,1-.12,2-.18,2.94-1.22,1-2.42.65-3.66.4-1.84-.36-2.25-.22-3,1.33s-1.87,3-2.13,4.8c1.07,2,3.76,1.47,5.12,3.39a9.22,9.22,0,0,1-.8,2.23q-2.31,3.44-4.83,6.72c-2.14,2.78-4.46,5.43-6.54,8.25-2.39,3.23-4.66,6.54-6.88,9.89-1.31,2-2.43,4.09-3.58,6.18-.79,1.42-1.48,2.9-3.19,3.91C374.69,368.7,374.68,365.51,374.58,362.34Z"/><path class="cls-6" d="M246.35,337.78c-1.21-4.08-2.45-8.15-3.65-12.24-1.41-4.82-2.76-9.65-4.2-14.46a12.1,12.1,0,0,0-1.22-2.26c-1.71.76-3.41,1.55-5.14,2.27-.77.32-1.61.51-2.54.8a50.42,50.42,0,0,1-3.5-10.48c-.67-4-1.38-7.88-1.75-11.89-.31-3.26-.42-6.5-.66-9.75s-.73-6.21-1.15-9.59h1.78a24.06,24.06,0,0,0,4.49,0c2.56-.47,4-1.87,4.07-4.59a19,19,0,0,0-2.06-9.82,8.37,8.37,0,0,0-5.42-4.3,58.33,58.33,0,0,1-7.1-2.44,3,3,0,0,0-3.73.74,9.22,9.22,0,0,0-2.6,3.65,17,17,0,0,1-2.82,5.29,7.1,7.1,0,0,0-1.27,3.45c-.41,3-1,5.92-1.62,8.87-.63,3.2-1.08,6.41-1.47,9.65-.62,5.09-1.6,10.14-2.48,15.2-.3,1.73-.74,3.43-1.13,5.14a11.68,11.68,0,0,0-.25,5.91,9.8,9.8,0,0,1-.29,4.44c-1.09,5-2.39,10-3.44,15a55.06,55.06,0,0,0-1.1,8.18c-.11,2.08,1.1,3.8,2.45,5.34a22.84,22.84,0,0,0,6,4.55c3.92,2.24,7.92,4.36,11.79,6.7A15.85,15.85,0,0,0,229,352.85a40.77,40.77,0,0,0,11.87-5.55l4.8-3Q246,341,246.35,337.78Z"/><path class="cls-6" d="M308.74,282.16a33.3,33.3,0,0,1,2.44-2.85,65.73,65.73,0,0,0,9.55-12.06,15.86,15.86,0,0,0,1.07-2.41c-.92-.55-1.67-1-2.41-1.44a5.77,5.77,0,0,1-2.51-3.19,10.87,10.87,0,0,1-.3-7.34c.57-1.59,1.46-2.23,3.06-2.07a10,10,0,0,0-1.58,6,6.58,6.58,0,0,0,6.84,5.94,4.48,4.48,0,0,0,3.77-4,15.44,15.44,0,0,0-.88-6.6c3.33,1.15,3.33,1.15,5.8,6.12,1.17-1,1.33-1.52,1-5.35-.15-1.86-.64-3.69-1.07-6a18.6,18.6,0,0,1,1.91-2.57,28.55,28.55,0,0,0,6.6-10.81,22.21,22.21,0,0,1,12.7,3.72,26.21,26.21,0,0,0,3.13,2c2.67,1.26,4.6,3.38,6.56,5.46a10.25,10.25,0,0,1,1.22,2.24c-1.6.06-2.31-1.29-3.35-2.12-.69-.56-1.39-1.09-2.5-.16,1,4.55.89,9.38,2.26,14l-3.6,1.45a8.71,8.71,0,0,0,2.81,3.1c.57.48,1.25.83,1.83,1.31s.88.91.24,1.9a20.47,20.47,0,0,1-6.09-.09c-2.09-.38-4.18-.82-6.23-1.38s-3.94-1.27-6-1.94c0,6.35,2.56,7.13,7.08,8a20.78,20.78,0,0,0,2.63.08c.72.05,1.44.19,2.1.28a5.37,5.37,0,0,1,.41,1.25,18.13,18.13,0,0,1-2.06,9.07c-1.78,3.49-4.68,4.59-8.56,3.51-.6-.16-1.15-.5-1.74-.7-.95-.33-1.91-.62-2.86-.92A3.62,3.62,0,0,0,340.8,280c-1.93-1.57-3.79-3.23-5.61-4.93-1.29-1.2-2.49-2.41-4.4-2.61a11.27,11.27,0,0,1-2.74-1.21,20.44,20.44,0,0,0,.68,2.21A63.39,63.39,0,0,0,336,284.75a15.38,15.38,0,0,0,2.41,2.36,3,3,0,0,0,2.85.43c1.11-.3.89-1.36,1.12-2.16.23.09.55.11.69.27,2.17,2.57,4.42,5.09,6.43,7.78a7.39,7.39,0,0,1,1.86,4.81,28.62,28.62,0,0,0-3.56,1.06A36.13,36.13,0,0,1,335,302c-9.78.41-18.47-2.71-26.25-8.52a19.18,19.18,0,0,1-5.7-7c.82-.57,2.28-.3,2.16-1.75C306.84,284.52,307.77,283.32,308.74,282.16Zm46.69-37.78c.26,1.25-.41,2-1.62,1.76-.73-.12-1.43-.42-2.16-.55a8.48,8.48,0,0,0-1.53,0c.38,1.7,1.64,2,2.82,2.29a3.54,3.54,0,0,0,3.21-.38,2.65,2.65,0,0,0,1-1.5c.33-2.21-.11-4.16-2.83-5.85C354.82,242,355.18,243.19,355.43,244.38Zm-8.67,4.34a2.18,2.18,0,0,1-.18.71c-1.69.55-1.69.55-4.2.32a.73.73,0,0,0,.28,1.2,8.25,8.25,0,0,0,2,1,3,3,0,0,0,4-3.11c-.07-1.61-.28-3.23-2.62-4.14C346.33,246.35,346.57,247.53,346.76,248.72Z"/><path class="cls-7" d="M327.79,252.15c3.33,1.15,3.33,1.15,5.8,6.12,1.17-1,1.33-1.52,1-5.35-.15-1.86-.64-3.69-1.07-6a18.6,18.6,0,0,1,1.91-2.57,28.55,28.55,0,0,0,6.6-10.81c0-.5.07-1,.08-1.49a5,5,0,0,0-3.42-5.2c-2-.72-3.38-.4-4.59,1.33a38.89,38.89,0,0,0-2.36,4.24c-.79,1.51-1.26,3.17-2.19,4.74-1.89-2.48-1.89-2.48-4-3.48a16.35,16.35,0,0,0-2.28,5,29.89,29.89,0,0,1-1.66,5.35,5.37,5.37,0,0,0,.55,6A9.45,9.45,0,0,1,327.79,252.15Z"/><path class="cls-6" d="M327.79,252.15a9.45,9.45,0,0,0-5.63-2.2l-2.52.85a10,10,0,0,0-1.58,6,6.58,6.58,0,0,0,6.84,5.94,4.48,4.48,0,0,0,3.77-4A15.44,15.44,0,0,0,327.79,252.15Z"/><path class="cls-6" d="M365.67,247c-1.6.06-2.31-1.29-3.35-2.12-.69-.56-1.39-1.09-2.5-.16,1,4.55.89,9.38,2.26,14,3.11-.65,6.18-1.44,9.12-2.36C371.18,252.81,370,250.81,365.67,247Z"/><path class="cls-6" d="M342.06,283.64A3.62,3.62,0,0,0,340.8,280c-1.93-1.57-3.79-3.23-5.61-4.93-1.29-1.2-2.49-2.41-4.4-2.61a11.27,11.27,0,0,1-2.74-1.21,20.44,20.44,0,0,0,.68,2.21A63.39,63.39,0,0,0,336,284.75a15.38,15.38,0,0,0,2.41,2.36,3,3,0,0,0,2.85.43c1.11-.3.89-1.36,1.12-2.16Z"/><path class="cls-8" d="M229,459c-.32-1.71-.65-3.41-1-5.38l-2.1.21c-.17.52.3,1.24-.75,1.7-.5-2.37-1-4.66-1.47-7-1.68.41-2.07.71-2,2a17.13,17.13,0,0,0,1.58,7.27c1.66,3.15,10.13,13.23,13.22,15.66.14-1.47-.91-2.27-1.81-3.11a20.68,20.68,0,0,1-3.59-4.76c-.72-1.27-1.24-2.33-.72-3.81.21-.61-.28-1.16-1-1.33-1.41.13-1.79-.91-2.21-1.91l-.78-1.09a2.53,2.53,0,0,1-.19-.62c.51-.29.63.07.7.48.22.28.43.57.65.86Z"/><path class="cls-9" d="M223.7,448.59c.49,2.29,1,4.58,1.47,7,1.05-.46.58-1.18.75-1.7-.15-.95-.32-1.9-.44-2.86s-.16-1.69-.23-2.53Z"/><path class="cls-8" d="M240.4,477.07a3.2,3.2,0,0,0-3.2-2.85A6.92,6.92,0,0,0,240.4,477.07Z"/><path class="cls-6" d="M237.06,307.51a1.32,1.32,0,0,0-.49-1.68C235.83,306.78,235.87,306.9,237.06,307.51Z"/><path class="cls-8" d="M226,437.91c.64-.44.81-.91.14-1.47C226.13,436.93,226.09,437.42,226,437.91Z"/><path class="cls-6" d="M354.52,364.25a4.73,4.73,0,0,0,.86.37c5.12-.3,10.22-.69,15.08-2.52a13.39,13.39,0,0,0,2.67-1.35,1.35,1.35,0,0,0,.45-1.21c-.14-.36-.7-.63-1.13-.78a1.92,1.92,0,0,0-1.11.06c-5,1.5-10.24,2.41-15.11,4.47C355.8,363.47,355.4,363.75,354.52,364.25Z"/><path class="cls-10" d="M354.32,240.13c.5,1.89.86,3.06,1.11,4.25s-.41,2-1.62,1.76c-.73-.12-1.43-.42-2.16-.55a8.48,8.48,0,0,0-1.53,0c.38,1.7,1.64,2,2.82,2.29a3.54,3.54,0,0,0,3.21-.38,2.65,2.65,0,0,0,1-1.5C357.48,243.77,357,241.82,354.32,240.13Z"/><path class="cls-10" d="M346,244.65c.32,1.7.56,2.88.75,4.07a2.18,2.18,0,0,1-.18.71c-1.69.55-1.69.55-4.2.32a.73.73,0,0,0,.28,1.2,8.25,8.25,0,0,0,2,1,3,3,0,0,0,4-3.11C348.56,247.18,348.35,245.56,346,244.65Z"/><path class="cls-9" d="M226.91,457.41c-.07-.41-.19-.77-.7-.48a2.53,2.53,0,0,0,.19.62l.31.11Z"/><path class="cls-11" d="M526.4,637.71a139.11,139.11,0,0,0-19.58.26,50.61,50.61,0,0,1-6.4.08,18,18,0,0,1-3.7-.6,4.06,4.06,0,0,1-3.46-3.91c-.13-2.13-.39-4.26-.41-6.39-.09-9.3.46-18.57,1.16-27.84.41-5.39.67-10.78.93-16.17q.78-16.18,1.49-32.37c.34-7.78.51-15.56.95-23.34.79-14,1.69-28.08,2.62-42.11q.86-13,1.94-25.92c.51-6.13,1.22-12.24,1.8-18.37q1.06-11.25,2.08-22.5c1.05-2.26,2.12-4.52,3.15-6.79.52-1.14.73-2.52,1.51-3.41a12,12,0,0,0,2.77-6.46c.46-3,1-5.92,1.27-8.9.38-4.48,1.13-9,.88-13.48a13.08,13.08,0,0,1,.28-2.23c.14-1.12.34-2.23.37-3.35.24-8.64-.42-17.31.76-25.92,2.88-.13,5.78-.14,8.64-.43,6.1-.6,12.17-1.52,18.27-2,5.49-.42,11-.93,16.43-1.64a11.26,11.26,0,0,1,1.18,1.87c1.58,4.08,3.07,8.2,4.64,12.29a87.89,87.89,0,0,0,7.37,15.18,63.19,63.19,0,0,1,5.91,10.84,28.41,28.41,0,0,0,2,3.61c1.1,1.95,2.18,3.91,3.28,5.86a137.58,137.58,0,0,0,1.69,16.47,62.73,62.73,0,0,0,5.62,18.68,12.41,12.41,0,0,0,.74,1.16c1.55.68,2.83.12,4.11-.4,1.86-.76,3.71-1.53,5.59-2.26,3.63-1.41,5.05-.32,6.81,2s4,4.51,6,6.76a1.86,1.86,0,0,0,2,.67,8.83,8.83,0,0,0,2.61,6.34,73.2,73.2,0,0,0,5.47,4.94,4.72,4.72,0,0,0,3.46,1c-.15.59-.49,1.19,0,1.77,3.49,4.24,6,9.31,10.61,12.61a3.54,3.54,0,0,1,1.43,3.28c-.11,3-.12,6-.29,9a205.65,205.65,0,0,1-3.05,24.62c-.91,5.06-1.77,10.13-2.9,15.13a49.3,49.3,0,0,1-7.76,18.23,60,60,0,0,1-11.69,12.17,95.5,95.5,0,0,1-17.07,11,14.68,14.68,0,0,1-8.74,1.58,19.31,19.31,0,0,1-2.84-.86c.2-1.22.4-2.44.61-3.76-.81-.64-1.58-1.26-2.37-1.86s-1.43-1-2.12-1.55c-1.54-1.2-2.17-3-3.29-4.54a9.55,9.55,0,0,1-1.92-6.7,11.58,11.58,0,0,0-.09-3c-.26-1.32-.63-2.69-2.29-3.12a6.27,6.27,0,0,0-2,3.65c-.43,3-.68,6-.88,9a15.6,15.6,0,0,0,.14,4.88c.95,3.61.46,7.25.55,10.87a4.82,4.82,0,0,1-.64,2.49A13.21,13.21,0,0,0,570.4,571c.05,8.55,0,17.09,0,25.64a17.73,17.73,0,0,1-.49,5.22,6.19,6.19,0,0,0,.06,3,17.27,17.27,0,0,1,0,8.18,3.55,3.55,0,0,0-.09,1.85c.86,2.58.48,5.23.55,7.85.07,2.26-.1,4.51.59,6.73a7.18,7.18,0,0,1-.22,2.57c-1.1.1-1.95.2-2.81.26a13.38,13.38,0,0,0-3,.24,16.45,16.45,0,0,1-5.22.52c-5.9,0-11.81,0-17.71,0-.94,0-2-.27-2.76.5.22,1.26,1.16.9,1.81,1,1.12.18,1.38.92,1.42,1.88a77.17,77.17,0,0,1-9-.06,8.66,8.66,0,0,0-4.72.51C528,637.18,527.2,637.42,526.4,637.71Zm9.66-240.57a20.6,20.6,0,0,0,8,.19c4.52-.65,4.51-.75,4.52,4,0,1.38,0,2.77,0,4.15a9.09,9.09,0,0,0,.19,2.62,20.44,20.44,0,0,1,.55,6c.12,4.13-.41,8.29.71,12.37a4.7,4.7,0,0,1,0,1.13,103,103,0,0,0,1.42,15.68c.37,2.48.58,5,.85,7.46.31,2.86.57,5.73.9,8.58.26,2.24.61,4.46.91,6.69.41,3,.84,5.94,1.2,8.92s.52,5.73.93,8.58c.63,4.46,1.39,8.89,2.09,13.34.82,5.19,1.43,10.42,2.51,15.56,1.53,7.35,3.4,14.64,5.13,21.95.16.67.55,1.23,1.26,1.16a2.21,2.21,0,0,0,1.56-.74,7.88,7.88,0,0,0,.84-2.82c.3-3-.63-6-1.06-8.93-.94-6.31-2.92-12.42-3.62-18.8-.6-5.46-1.8-10.85-2.7-16.28-.35-2.1-.59-4.22-.87-6.33-.59-4.46-1.16-8.92-1.76-13.39-.66-4.82-1.35-9.65-2-14.48-.26-1.85-.57-3.71-.74-5.57-.33-3.62-.5-7.25-.88-10.86s-1-7.18-1.36-10.78c-.4-4.11-1.14-8.2-.83-12.37a3.74,3.74,0,0,0-.15-1.49c-.69-1.82-.5-3.71-.58-5.59-.15-3.75.42-7.54-.56-11.26a1.55,1.55,0,0,1,1.12-1.76c.46-.19,1-.18,1.46-.36,1.86-.75,3.72-1.5,5.52-2.35.29-.14.43-.84.4-1.27,0-.24-.5-.65-.78-.65a54.52,54.52,0,0,0-6,.13,3.09,3.09,0,0,1-2.47-.42,2,2,0,0,0-3,.36c-1.85,2.12-4.32,2.93-6.92,3.53-1.1.26-2.19.56-3.29.79C536.75,394.15,536.2,395.36,536.06,397.14ZM528.9,633.81c2.11.6,2.11.6,3.24-.14C530.85,633.05,530.85,633.05,528.9,633.81Z"/><path class="cls-4" d="M584.53,393.58c-1.1-1.95-2.18-3.91-3.28-5.86a28.41,28.41,0,0,1-2-3.61,63.19,63.19,0,0,0-5.91-10.84A87.89,87.89,0,0,1,566,358.09c-1.57-4.09-3.06-8.21-4.64-12.29a10.7,10.7,0,0,0-1.19-1.87c-.38-1.44-.68-2.92-1.14-4.33q-3-9.25-6.18-18.48a30.4,30.4,0,0,0-1.38-3,2.94,2.94,0,0,0-.67-2.62,28.2,28.2,0,0,0-.56-2.91c-2-6.82-4-13.63-6-20.42-.61-2-.92-4.16-2.44-5.78v-.07a18.81,18.81,0,0,0-.44-2.93q-2.4-7.49-4.94-14.93a16.35,16.35,0,0,0-1.46-2.56H535a1.92,1.92,0,0,0-.79-1.94l0,.06a18.81,18.81,0,0,0-.38-2.92c-.47-1.67-1.13-3.28-1.69-4.93-1.37-4-3.45-7.72-3.49-12.07a6.4,6.4,0,0,0-.57-1.77,7.34,7.34,0,0,1,3.85-2.43,5.94,5.94,0,0,0,1.54-.83,14.52,14.52,0,0,0,1.47-.24,2.72,2.72,0,0,1,3.22,1.21c1.25,1.72,2.7,3.3,4,5a2.18,2.18,0,0,0,2.65.81c.82-.29,1.67-.53,2.48-.87,7.37-3.14,14.72-6.33,22.12-9.42a14.64,14.64,0,0,0,8.71-8.77A3.88,3.88,0,0,1,580.5,224c.34-.11.83-.34.9-.6.74-2.66,2.88-2.32,4.86-2.38.94,1.29,2.37,1.74,3.78,2.31,3.49,1.4,7,2.78,10.38,4.41a147.26,147.26,0,0,0,14.52,6.06v0l.81.74,0,0,.72.64,7.28,3.81c1.77.93,3.56,1.83,5.31,2.78a4.14,4.14,0,0,1,2,3,10.08,10.08,0,0,1-1.39,7.56c-1.78,3-3.87,5.79-5.83,8.68-1.27.17-1.33,1.14-1.4,2.11l-.07.1a6.34,6.34,0,0,0-1.66.78c-3.6,3.25-6.65,7.09-10.62,9.95-3.21,4.12-6.54,8.16-9,12.79a8.83,8.83,0,0,0-.48,2.16c-.78.79-1.55,1.59-2.36,2.36s-1.65,1.46-2.49,2.21a55.15,55.15,0,0,0,3.32,9c3.69,8.53,7.4,17.05,11.26,25.5,1.82,4,4,7.82,6,11.72.75,1.45,1.58,2.86,2.3,4.32.27.55.65,1.36.44,1.77-1,1.87.16,3.39.61,5,.87,3.15,1.84,6.27,2.48,9.46a23.06,23.06,0,0,1,.36,6.37,48.21,48.21,0,0,1-4.68,18.11,19.49,19.49,0,0,1-2.56,4.14,18.47,18.47,0,0,0-3.11,5.1,16.31,16.31,0,0,1-6.27,7.33,10.84,10.84,0,0,1-10.44.82,20.23,20.23,0,0,1-6.17-4.24C587.74,396.36,586.12,395,584.53,393.58Z"/><path class="cls-4" d="M516.81,348c-1.18,8.61-.52,17.28-.76,25.92,0,1.12-.23,2.23-.37,3.35a13.08,13.08,0,0,0-.28,2.23c.25,4.53-.5,9-.88,13.48-.25,3-.81,5.94-1.27,8.9a12,12,0,0,1-2.77,6.46c-.78.89-1,2.27-1.51,3.41-1,2.27-2.1,4.53-3.15,6.79a14.62,14.62,0,0,1-3.36.1c-4.18-.87-8.34-1.81-12.47-2.89a16.53,16.53,0,0,1-7.55-4.08,8,8,0,0,0-2.25-1.29c-.68-.32-1.43-.5-2.13-.78a5.65,5.65,0,0,1-4-5.75c.11-6.15-.29-12.31.35-18.46.39-3.75.62-7.51.8-11.27.38-7.82,2.06-15.43,3.51-23.08.19-1,.34-2,.52-3A26.13,26.13,0,0,1,481,342a13.2,13.2,0,0,0,1-8.91,5.93,5.93,0,0,0-1.48-.2A244.23,244.23,0,0,1,453.07,335a25.2,25.2,0,0,0-5.58.79,15.31,15.31,0,0,1-8.54-.31,24.5,24.5,0,0,0-2.53-.75c-4.27-1-6.54-4-7.78-7.93a17.21,17.21,0,0,1-.72-3.69c-.32-3.75-.56-7.52-.8-11.28-.21-3.26-.42-6.52-.57-9.78a94.35,94.35,0,0,1,1.55-24c1.17-5.52,2.08-11.1,3.09-16.66a57,57,0,0,0,1-5.94,9.13,9.13,0,0,1,1.83-4.84,3.65,3.65,0,0,0,1-.52,32.35,32.35,0,0,1,9.51-6.48c1.88,0,3.76,0,5.64.07a3.5,3.5,0,0,1,2.53,1.39,20.06,20.06,0,0,1,4.14,7.52c1.44,4.55,2.78,9.13,4.28,13.66,1.39,4.17,2.92,8.29,4.41,12.42a16.84,16.84,0,0,0,.93,1.86c.78-.32,1.47-.53,2.08-.86,6-3.27,11.33-7.46,16.72-11.58,2.49-1.9,4.87-4,7.37-5.86,1.72-1.3,2.85-2.78,2.45-5.07a7.3,7.3,0,0,1,.2-1.73l8.61-5.11.9.08c.17.17.34.35.53.51a9.17,9.17,0,0,1,3.37,7.45,55.59,55.59,0,0,0,1,8.47c.26,1.82.68,3.62,1,5.42q.46,3.66.95,7.32c.07,1.49.08,3,.24,4.47.37,3.46.8,6.91,1.23,10.37.29,2.32.37,4.7,1.41,6.87,0,1.07.07,2.13.11,3.2-.2,3.25.39,6.46.55,9.68.4,8.33,1.22,16.66,1,25-.06,2,0,4,.05,6A19.37,19.37,0,0,0,516.81,348Z"/><path class="cls-12" d="M483.79,196.64c-2-2.24-2.09-3-.61-5.21a11.83,11.83,0,0,1,7.62-5.12,20.41,20.41,0,0,1,5.6-.5c4.8.37,9.46-.79,14.37-.73.3-1.31.58-2.38.79-3.46,1.18-6,4.76-9.76,10.59-11.51a21.32,21.32,0,0,1,15.41,1.08c8.19,3.73,11.39,15.3,3,22.45a17.37,17.37,0,0,1-12.19,4.13c-1.25,0-2.49-.15-3.64-.22a2.32,2.32,0,0,0-.77,2.79c.63,2.63.27,5.23,0,7.86a8.33,8.33,0,0,1-3,5.85l-1.41,1.24a10.92,10.92,0,0,1-6.36,1.58l-2.26-1.18c-3.11-4.41-3.19-9-.95-13.81.56-.26,1.09-.55,1.7,0a10.21,10.21,0,0,0,1.44.87c2.81-3.35,3.48-6.32,1.94-8.63a9.34,9.34,0,0,0-4.57-3.76c-1.3-.47-2.62-.85-3.91,0-.31,1.38-.6,2.71-.9,4.05a1.8,1.8,0,0,1-2.66.28,7.54,7.54,0,0,1-2.39-3.75c-.12-.3-.45-.52-.71-.82l-2.63,1.61s0,.23.06.45l1.45,1.58-4.18.6c-.6-.32-1.19-.8-1.86-.13-1.26.55-2.53,1.09-3.79,1.65A8.52,8.52,0,0,1,483.79,196.64Z"/><path class="cls-6" d="M614.94,233.79a147.26,147.26,0,0,1-14.52-6.06c-3.39-1.63-6.89-3-10.38-4.41-1.41-.57-2.84-1-3.78-2.31-1.91-8.68-3.92-17.34-5.67-26-1.28-6.37-2.25-12.81-3.26-19.24a37.89,37.89,0,0,1-.14-4.89,14.39,14.39,0,0,0-.06-2.63c-.75-3.82.82-7.1,2.28-10.41a4.81,4.81,0,0,1,.89-1.19,1.12,1.12,0,0,1,1.62.28,6.77,6.77,0,0,1,.52,2.15c.07,2.25,0,4.52,0,6.78,0,.46.08.93.12,1.36.84.15.92-.48,1.17-.85,1.22-1.9,2.42-3.81,3.61-5.71.4-.64.79-1.28,1.16-1.92a13.66,13.66,0,0,1,.71-1.31,2.64,2.64,0,0,1,3.29-1.07,2.39,2.39,0,0,1,.94,3.27c-.69,1.61-1.56,3.15-2.39,4.69-1.06,2-2.14,4-3.28,5.93a4.56,4.56,0,0,0-.19,4.65c.38.79.63,1.64,1,2.44,4,8.91,8.16,17.78,12.14,26.72a236,236,0,0,0,11.12,22.21,52.88,52.88,0,0,1,2.55,5A12.2,12.2,0,0,1,614.94,233.79Z"/><path class="cls-9" d="M542.52,636.38c0-1-.3-1.7-1.42-1.88-.65-.11-1.59.25-1.81-1,.77-.77,1.82-.49,2.76-.5,5.9,0,11.81,0,17.71,0a16.45,16.45,0,0,0,5.22-.52,13.38,13.38,0,0,1,3-.24c.86-.06,1.71-.16,2.81-.26a7.18,7.18,0,0,0,.22-2.57c-.69-2.22-.52-4.47-.59-6.73-.07-2.62.31-5.27-.55-7.85A3.55,3.55,0,0,1,570,613a17.27,17.27,0,0,0,0-8.18,6.19,6.19,0,0,1-.06-3,17.73,17.73,0,0,0,.49-5.22c0-8.55,0-17.09,0-25.64a13.21,13.21,0,0,1,1.61-7.23,4.82,4.82,0,0,0,.64-2.49c-.09-3.62.4-7.26-.55-10.87a15.6,15.6,0,0,1-.14-4.88c.2-3,.45-6,.88-9a6.27,6.27,0,0,1,2-3.65c1.66.43,2,1.8,2.29,3.12a11.58,11.58,0,0,1,.09,3,9.55,9.55,0,0,0,1.92,6.7c1.12,1.49,1.75,3.34,3.29,4.54.69.53,1.42,1,2.12,1.55s1.56,1.22,2.37,1.86c-.21,1.32-.41,2.54-.61,3.76-3-.44-5.26-2.23-7.32-4.29a4.13,4.13,0,0,0-2.18-1.39,4.69,4.69,0,0,0-.34,1.18q.13,7.15.34,14.31c.05,1.76.16,3.51.21,5.27.43,13.06,1.32,26.1,1,39.17,0,1.38.26,2.75.3,4.13.13,4.27.39,8.54.26,12.8-.16,5.15-2,6.9-7.12,7.35a21.61,21.61,0,0,0-5.88,1.12,11.45,11.45,0,0,1-3.71.45c-3.64.08-7.29.09-10.93.09a5.51,5.51,0,0,0-3.59.81C546.13,636.82,544.35,636.55,542.52,636.38Z"/><path class="cls-6" d="M513.15,216.87a10.92,10.92,0,0,0,6.36-1.58c1.51,2.15,3,4.32,4.53,6.44a77.07,77.07,0,0,1,8.54,14.11,6.17,6.17,0,0,1,.87,3.21,5.94,5.94,0,0,1-1.54.83,7.34,7.34,0,0,0-3.85,2.43,76.16,76.16,0,0,0-16.66,4.57,69.89,69.89,0,0,0-6.64,3.47l-.9-.08a13.32,13.32,0,0,1-.56-2.51c-.06-2.73,0-5.47.05-8.19a7.34,7.34,0,0,1,.69-2,2.8,2.8,0,0,0,2.89-1.33,35.24,35.24,0,0,0,2.3-3.85C511.43,227.42,513.41,222.42,513.15,216.87Z"/><path class="cls-6" d="M509.94,201.88c-2.24,4.78-2.16,9.4.95,13.81a17.6,17.6,0,0,1-.12,3,16.19,16.19,0,0,1-1.41,4.6,67.79,67.79,0,0,1-4.09,5.82c-.57.81-1.06,1.67-1.59,2.51-1.38,0-2.76-.16-4.14-.1a12.35,12.35,0,0,1-5.51-1c-5.92-2.59-10.2-6.75-12.1-13.06a22.32,22.32,0,0,1-.48-3.68c1.33.68,2.66,1.35,4.23.89a18.57,18.57,0,0,0,2.57.16c1.35-.08,2.17-.92,2.85-2.4l-2.14-.57,2.13-6.1a15.34,15.34,0,0,0,1.19,6.59,1.27,1.27,0,0,0,2.17.2,7.34,7.34,0,0,0,1.33-5c4.46,1.19,7.13-.56,7.61-5,.24-2.18.06-4.24-1.66-5.86l.06,0-.8-1.88-1.06-.4-1.23-.83.06.08-1.45-1.58c0-.22-.1-.42-.06-.45l2.63-1.61c.26.3.59.52.71.82a7.54,7.54,0,0,0,2.39,3.75,1.8,1.8,0,0,0,2.66-.28c.42.59,1.11,1.13,1.2,1.76A10.61,10.61,0,0,0,509.94,201.88Zm-8.24,13.26c1.15-.52,1-1.56.95-2.51a1.32,1.32,0,0,0-1.43-1.31c-.83,0-.82.75-1.05,1.27a3.65,3.65,0,0,0-2.7,1c-1.4,1.21-2.89,2.31-4.28,3.54a32.39,32.39,0,0,0-2.23,2.45c-1.39,0-2,.76-2.18,2-.14,1.09.35,1.43,1.87,1.27,3.14,2,6.19,1.31,9.23-.29a3,3,0,0,0,1.9-3C501.73,218.15,501.72,216.64,501.7,215.14Z"/><path class="cls-6" d="M444.5,243.56A32.35,32.35,0,0,0,435,250a3.65,3.65,0,0,1-1,.52,5.46,5.46,0,0,1-.8-1.65c-.36-3.23-.58-6.48-.91-9.71-.4-3.86-.9-7.7-1.27-11.55a17.17,17.17,0,0,1,.11-3.36c.06-.74.37-1.46.44-2.2a2.09,2.09,0,0,0-1.7-2.52c-4.19-1.32-6.06-4.5-7-8.5-.39-1.75,1.2-2.57,2.57-2a9.55,9.55,0,0,1,2.1,1.53l5.83,4.72c.08.06.23,0,.59.06.94-.81.74-2.21,1.13-3.32a6.31,6.31,0,0,1,2.66-3.51,2,2,0,0,1,1.72,0,1.89,1.89,0,0,1,.86,1.5c-.88,4.23-.26,8.51-.49,12.76a24.73,24.73,0,0,0,1.39,8.86q1.44,4.47,2.73,9A26.48,26.48,0,0,1,444.5,243.56Z"/><path class="cls-12" d="M628.6,448.91a4.72,4.72,0,0,1-3.46-1,73.2,73.2,0,0,1-5.47-4.94,8.83,8.83,0,0,1-2.61-6.34c2.31-3.13,5.41-4.34,8.71-3.19,2.71.95,5.39,2,8,3.16a18.18,18.18,0,0,1,9.48,10.14c.64,1.53-.08,2.86-1.71,2.9a54,54,0,0,1-6.35-.36c-1.37-.13-2.71-.52-4.07-.63A13,13,0,0,0,628.6,448.91Z"/><path class="cls-13" d="M542.52,636.38c1.83.17,3.61.44,4.85,2a3.06,3.06,0,0,0-.35.67c-.71,3-2.94,4.2-5.65,4.78-6,1.28-12,2.54-18,3.7a25.45,25.45,0,0,1-4.87.24,5.9,5.9,0,0,1-2.16-.52,1.78,1.78,0,0,1-.69-2.81,10.21,10.21,0,0,1,2.29-1.91c2.79-1.67,5.64-3.24,8.47-4.85.8-.29,1.62-.53,2.4-.88a8.66,8.66,0,0,1,4.72-.51A77.17,77.17,0,0,0,542.52,636.38Z"/><path class="cls-10" d="M501.73,196.77c1.72,1.62,1.9,3.68,1.66,5.86-.48,4.4-3.15,6.15-7.61,5l-2.55-2.69-2.14.86-2.13,6.1-3.28,2.81c-1.57.46-2.9-.21-4.23-.89a28.13,28.13,0,0,1-2.19-2c-2-2.4-2.1-5.31-.71-8.31.92-2,2.1-3.34,4.23-3.83,1.16.2,2.34.35,3.49.62a.69.69,0,0,1,.42,1.1c-.73,0-1.45-.14-2.17-.13a3.52,3.52,0,0,0-3.16,1.43c-2.49,2.92-2.51,5-.11,8.7.6,1.38,1.83,1.6,3.1,1.58a3.62,3.62,0,0,0,3.11-1.77,7.33,7.33,0,0,0,.9-7.09c-.24-.63-.92-1.26-.2-2,1.43,0,1.24,1.76,2.56,2.3l2.08-1.2c-1.55-3.09-1-6-.08-8.9.67-.67,1.26-.19,1.86.13-2.43,3.81-1.63,7.41.87,10.78a3.32,3.32,0,0,0,5.68-.15,6.17,6.17,0,0,0,1.1-5C502,199,501.89,197.86,501.73,196.77Z"/><path class="cls-14" d="M600.6,288.83a8.83,8.83,0,0,1,.48-2.16c2.47-4.63,5.8-8.67,9-12.79,4-2.86,7-6.7,10.62-9.95a6.34,6.34,0,0,1,1.66-.78,6.93,6.93,0,0,1-.57,1.37A147.06,147.06,0,0,1,603,287.09,18.35,18.35,0,0,1,600.6,288.83Z"/><path class="cls-6" d="M503.68,231.62c.53-.84,1-1.7,1.59-2.51a67.79,67.79,0,0,0,4.09-5.82,16.19,16.19,0,0,0,1.41-4.6,17.6,17.6,0,0,0,.12-3l2.26,1.18c.26,5.55-1.72,10.55-3.92,15.48a35.24,35.24,0,0,1-2.3,3.85,2.8,2.8,0,0,1-2.89,1.33Z"/><path class="cls-6" d="M492.72,194.26c-.94,2.9-1.47,5.81.08,8.9l-2.08,1.2c-1.32-.54-1.13-2.27-2.56-2.3h0c-.42-1.14-.75-1.3-1.54-.76l.05,0a.69.69,0,0,0-.42-1.1c-1.15-.27-2.33-.42-3.49-.62.33-1,.67-2,1-3a8.52,8.52,0,0,0,5.14-.73C490.19,195.35,491.46,194.81,492.72,194.26Z"/><path class="cls-6" d="M615.74,234.51l-.81-.74Z"/><path class="cls-6" d="M616.43,235.13l-.72-.64Z"/><path class="cls-2" d="M516.81,348a19.37,19.37,0,0,1-.59-2.88c-.1-2-.11-4-.05-6,.24-8.36-.58-16.69-1-25-.16-3.22-.75-6.43-.55-9.68.87.71,1.69,1.49,2.62,2.12,2.65,1.81,5,.8,6.53-1.31a14.31,14.31,0,0,0,1.66-3.74c.78-2.37,1.41-4.78,2.15-7.16a9.58,9.58,0,0,1,1-1.71c.53,1.34,1,2.24,1.25,3.18.39,1.32.64,2.67,1,4a39,39,0,0,0,1.42,4.65c.8,1.93,2.58,2.69,4.49,3a3.82,3.82,0,0,0,4.11-3.55,24.34,24.34,0,0,0-.25-8.59c-.4-1.94-.69-3.91-1-5.83l2.12-1.14v-1.95c1.52,1.63,1.83,3.8,2.44,5.79,2.08,6.79,4.06,13.6,6,20.42a28.2,28.2,0,0,1,.56,2.91A7.19,7.19,0,0,0,546,316a2.78,2.78,0,0,1-1.37.4c-1.77-.18-2.49,1-2.93,2.33a9.24,9.24,0,0,0-.44,3c0,2.76.21,5.52.33,8.28.07,1.63.23,3.26.21,4.89a2.13,2.13,0,0,1-1.65,2.23,2.21,2.21,0,0,1-2.51-1.23,11.7,11.7,0,0,1-1.15-3.15c-.36-1.85-.43-3.75-.76-5.6-.42-2.34-.94-4.66-1.52-7a8.9,8.9,0,0,0-1.09-2.39c-.93-1.51-2.22-2.14-3.42-1.72s-1.39,1.64-1.5,2.78c-.23,2.5-.42,5-.72,7.5a14.85,14.85,0,0,1-.77,3.29c-.86,2.33-2.45,2.67-4.32.94a13.56,13.56,0,0,1-1.61-2.06c-.42-.58-.82-1.18-1.28-1.85-1.28.9-.84,1.88-.52,2.79.9,2.59,3.56,4.66,5.85,4.6s4.08-1.75,4.93-4.93a14.86,14.86,0,0,0,.43-1.84c.19-1.36.27-2.75.51-4.11a9.09,9.09,0,0,1,1-2c.45,2.25.83,3.83,1.09,5.42s.43,3.49.68,5.24a13.49,13.49,0,0,0,2,5.62,4.82,4.82,0,0,0,5.29,2,4,4,0,0,0,3.37-3.59,30.3,30.3,0,0,0,.13-4.86c-.07-3-.26-6-.33-9a6.46,6.46,0,0,1,1-4.27,15.28,15.28,0,0,1,6.4.33,30.4,30.4,0,0,1,1.38,3Q556,330.35,559,339.6c.46,1.41.76,2.89,1.14,4.33-5.45.71-10.93,1.22-16.42,1.64-6.1.47-12.17,1.39-18.27,2C522.59,347.85,519.69,347.86,516.81,348Z"/><path class="cls-10" d="M536.06,397.14c.14-1.78.69-3,2.48-3.37,1.1-.23,2.19-.53,3.29-.79,2.6-.6,5.07-1.41,6.92-3.53a2,2,0,0,1,3-.36,3.09,3.09,0,0,0,2.47.42,54.52,54.52,0,0,1,6-.13c.28,0,.77.41.78.65,0,.43-.11,1.13-.4,1.27-1.8.85-3.66,1.6-5.52,2.35-.46.18-1,.17-1.46.36a1.55,1.55,0,0,0-1.12,1.76c1,3.72.41,7.51.56,11.26.08,1.88-.11,3.77.58,5.59a3.74,3.74,0,0,1,.15,1.49c-.31,4.17.43,8.26.83,12.37.35,3.6,1,7.18,1.36,10.78s.55,7.24.88,10.86c.17,1.86.48,3.72.74,5.57.67,4.83,1.36,9.66,2,14.48.6,4.47,1.17,8.93,1.76,13.39.28,2.11.52,4.23.87,6.33.9,5.43,2.1,10.82,2.7,16.28.7,6.38,2.68,12.49,3.62,18.8.43,3,1.36,5.89,1.06,8.93a7.88,7.88,0,0,1-.84,2.82,2.21,2.21,0,0,1-1.56.74c-.71.07-1.1-.49-1.26-1.16-1.73-7.31-3.6-14.6-5.13-21.95-1.08-5.14-1.69-10.37-2.51-15.56-.7-4.45-1.46-8.88-2.09-13.34-.41-2.85-.59-5.72-.93-8.58s-.79-5.95-1.2-8.92c-.3-2.23-.65-4.45-.91-6.69-.33-2.85-.59-5.72-.9-8.58-.27-2.49-.48-5-.85-7.46A103,103,0,0,1,550,427.54a4.7,4.7,0,0,0,0-1.13c-1.12-4.08-.59-8.24-.71-12.37a20.44,20.44,0,0,0-.55-6,9.09,9.09,0,0,1-.19-2.62c0-1.38,0-2.77,0-4.15,0-4.71,0-4.61-4.52-4A20.6,20.6,0,0,1,536.06,397.14Z"/><path class="cls-9" d="M528.9,633.81c2-.76,2-.76,3.24-.14C531,634.41,531,634.41,528.9,633.81Z"/><path class="cls-2" d="M514.53,301.23c-1-2.17-1.12-4.55-1.41-6.87-.43-3.46-.86-6.91-1.23-10.37-.16-1.48-.17-3-.24-4.47A1.37,1.37,0,0,0,513,278c.08-1.75.13-3.51.1-5.26a8.2,8.2,0,0,1,1.48-4.95c.92-1.33,2.12-1.41,3-.14a20.84,20.84,0,0,1,1.51,2.59c.57,1.12,1,2.3,1.61,3.39a39.15,39.15,0,0,0,2.76,4.47,2.46,2.46,0,0,0,4.32-.32,10.66,10.66,0,0,0,1.07-3.93,40.16,40.16,0,0,0-.26-5.24c-.09-1.37-.23-2.74-.25-4.11a4.29,4.29,0,0,1,.56-1.37,7.37,7.37,0,0,1,3.12,3.46c.35.8.65,1.63,1.05,2.41a1.09,1.09,0,0,0,1.68.49c0-1.15.08-2.38.13-3.62a16.35,16.35,0,0,1,1.46,2.56q2.55,7.44,4.94,14.93a18.81,18.81,0,0,1,.44,2.93,2.58,2.58,0,0,0-3.42-.46,3.2,3.2,0,0,0-1.5,2.87,9.09,9.09,0,0,0,.16,1.87c.34,2,.76,3.93,1,5.91.38,2.7.64,5.42-.44,8.12a2.79,2.79,0,0,1-3.21-2.18,23.18,23.18,0,0,1-.83-4,22.07,22.07,0,0,0-2.49-7.45c-1.22-2.39-3.47-2.52-5.12-.4a4.91,4.91,0,0,0-.86,1.65c-.76,2.77-1.51,5.55-2.18,8.34-.42,1.74-.87,3.4-2.5,4.39-2.88-.63-2.9-.64-4.29-2.07C515.56,302.31,515,301.77,514.53,301.23Z"/><path class="cls-2" d="M504.76,250.35a69.89,69.89,0,0,1,6.64-3.47,76.16,76.16,0,0,1,16.66-4.57,6.4,6.4,0,0,1,.57,1.77c0,4.35,2.12,8.11,3.49,12.07.56,1.65,1.22,3.26,1.69,4.93a18.81,18.81,0,0,1,.38,2.92,11.31,11.31,0,0,1-1.16-.87c-.91-.87-1.72-1.84-2.68-2.63a2.36,2.36,0,0,0-3.61.45,5.3,5.3,0,0,0-1.08,3.89c.26,2.36.44,4.73.69,7.1.16,1.59.42,3.19-.73,4.57-.33-.18-.63-.24-.75-.41-.47-.74-.93-1.48-1.33-2.26-1.2-2.34-2.35-4.71-3.55-7-1.78-3.46-5-4.38-7.71,0a12.09,12.09,0,0,0-1.58,5.36c-.35-1.8-.77-3.6-1-5.42a55.59,55.59,0,0,1-1-8.47,9.17,9.17,0,0,0-3.37-7.45C505.1,250.7,504.93,250.52,504.76,250.35Z"/><path class="cls-15" d="M535,265.88a2,2,0,0,1-.79-1.94A1.92,1.92,0,0,1,535,265.88Z"/><path class="cls-6" d="M509.94,201.88a10.61,10.61,0,0,1-3.1-5.68c-.09-.63-.78-1.17-1.2-1.76.3-1.34.59-2.67.9-4.05,1.29-.9,2.61-.52,3.91,0A9.34,9.34,0,0,1,515,194.1c1.54,2.31.87,5.28-1.94,8.63a10.21,10.21,0,0,1-1.44-.87C511,201.33,510.5,201.62,509.94,201.88Z"/><path class="cls-6" d="M501.73,196.77c.16,1.09.28,2.19.5,3.27a6.17,6.17,0,0,1-1.1,5,3.32,3.32,0,0,1-5.68.15c-2.5-3.37-3.3-7-.87-10.78l4.18-.6-.06-.08c.08.77.71.71,1.23.83l1.06.4c-.67,1.05-.58,1.27.8,1.88Zm-2.33,3.16c-1.36.56-.64,2.91-2.65,2.52,0,.24-.06.53.06.7a1.39,1.39,0,0,0,2.43.2A3.5,3.5,0,0,0,499.4,199.93Z"/><path class="cls-16" d="M491,219.59a32.39,32.39,0,0,1,2.23-2.45c1.39-1.23,2.88-2.33,4.28-3.54a3.65,3.65,0,0,1,2.7-1c0,1.18,0,2.28,1.53,2.55,0,1.5,0,3,.08,4.52a3,3,0,0,1-1.9,3c-3,1.6-6.09,2.25-9.23.28C490.93,221.82,491.48,220.75,491,219.59Z"/><path class="cls-6" d="M491.09,205.77l2.14-.86,2.55,2.69a7.32,7.32,0,0,1-1.33,5,1.27,1.27,0,0,1-2.17-.2A15.34,15.34,0,0,1,491.09,205.77Z"/><path class="cls-6" d="M485.68,214.68l3.28-2.81,2.14.57c-.68,1.48-1.5,2.32-2.85,2.4A18.57,18.57,0,0,1,485.68,214.68Z"/><path class="cls-10" d="M501.7,215.14c-1.49-.27-1.57-1.37-1.53-2.55.23-.52.22-1.27,1.05-1.27a1.32,1.32,0,0,1,1.43,1.31C502.72,213.58,502.85,214.62,501.7,215.14Z"/><path class="cls-10" d="M491,219.59c.52,1.16,0,2.23-.31,3.31-1.52.17-2-.17-1.87-1.26C488.94,220.35,489.57,219.57,491,219.59Z"/><path class="cls-10" d="M501.79,196.82c-1.38-.61-1.47-.83-.8-1.88Z"/><path class="cls-12" d="M499.93,194.54c-.52-.12-1.15-.06-1.23-.83Z"/><path class="cls-6" d="M481.36,202.64a3.52,3.52,0,0,1,3.16-1.43c.72,0,1.44.09,2.17.13l-.05,0c.57,1.11.83,1.24,1.54.76h0c-.72.74,0,1.37.2,2a7.33,7.33,0,0,1-.9,7.09,3.62,3.62,0,0,1-3.11,1.77c-1.27,0-2.5-.2-3.1-1.58C481.29,208.44,481.32,205.54,481.36,202.64Zm3,4.74a5,5,0,0,0,0-.67c0-.11-.12-.2-.19-.3-.1.17-.32.39-.27.49s.32.3.5.44c1.06,2.09,1.54,2.14,2.75.3a2.22,2.22,0,0,0,0-2.66c-.18.16-.44.28-.47.44a17.39,17.39,0,0,0-.18,1.77Z"/><path class="cls-10" d="M488.18,202.07c-.71.48-1,.35-1.54-.76C487.43,200.77,487.76,200.93,488.18,202.07Z"/><path class="cls-8" d="M499.4,199.93a3.5,3.5,0,0,1-.16,3.42,1.39,1.39,0,0,1-2.43-.2c-.12-.17-.05-.46-.06-.7C498.76,202.84,498,200.49,499.4,199.93Z"/><path class="cls-10" d="M484.36,207.38l2.12-.19.69.45c-1.22,1.84-1.7,1.79-2.76-.3Z"/><path class="cls-10" d="M486.48,207.19a17.39,17.39,0,0,1,.18-1.77c0-.16.29-.28.47-.44a2.24,2.24,0,0,1,0,2.66Z"/><path class="cls-10" d="M484.41,207.34c-.18-.14-.42-.25-.5-.44s.17-.32.27-.49c.07.1.18.19.19.3a5,5,0,0,1,0,.67Z"/></g></svg>