<svg id="Capa_1" data-name="Capa 1" xmlns="http://www.w3.org/2000/svg" viewBox="0 0 239.63 222.92"><defs><style>.cls-1{fill:#bcedea;}.cls-2{fill:#10cfc9;}.cls-3{fill:#1d224c;}</style></defs><title>HOTELES</title><circle class="cls-1" cx="114.2" cy="117.27" r="79.6"/><path class="cls-2" d="M112.81,151.67c-12.48,0-25,0-37.43,0a4.54,4.54,0,0,1-3-1.1,5.83,5.83,0,0,1-2.12-3.35A6.42,6.42,0,0,1,70,145.8q0-25.2,0-50.38a6,6,0,0,1,2.1-4.65,5.78,5.78,0,0,1,3.69-1.45l1,0q35.85,0,71.72,0a10.49,10.49,0,0,1,2.56.31,5.66,5.66,0,0,1,3.51,2.69,11.3,11.3,0,0,1,.7,1.39,1.35,1.35,0,0,1,.05.57v10.8c0,13.84,0,27.68,0,41.53a4.84,4.84,0,0,1-1.34,3.32,7.44,7.44,0,0,1-2.45,1.7,1.53,1.53,0,0,1-.61,0H112.81ZM148.7,129a3.65,3.65,0,0,0-.1-.65c-.23-.66-.49-1.31-.74-2-.56-1.48-1.1-3-1.69-4.43a2.92,2.92,0,0,0-3.92-1.66c-.91.44-1.89.74-2.84,1.1l-3,1.12-3.57,1.37-3.55,1.33c-1.24.47-2.48,1-3.73,1.42a4.52,4.52,0,0,0-2.36,1.5,2.41,2.41,0,0,0-.55,2.08c.2.71.5,1.39.76,2.09.47,1.24,1,2.48,1.41,3.74a4.11,4.11,0,0,0,1.42,2.12,2.4,2.4,0,0,0,2.43.42c1.09-.45,2.2-.84,3.31-1.26l3.73-1.41,3.5-1.33,2.93-1.1c1.44-.55,2.86-1.13,4.31-1.65A3.46,3.46,0,0,0,148.7,129Zm-19.62-21.64a8.2,8.2,0,1,0-8.17,8.21A8.08,8.08,0,0,0,129.08,107.33Z"/><path class="cls-2" d="M113.69,79.45c-1.57,0-3.15,0-4.72,0a1.59,1.59,0,0,0-1.81,1.68c0,.32,0,.63,0,1v3.27c0,.58,0,.64-.64.64h-5.41c-.51,0-.54,0-.54-.55,0-1.2,0-2.39,0-3.59a8.94,8.94,0,0,1,9.07-9c2.81,0,5.62,0,8.44,0a8.8,8.8,0,0,1,8.76,8.59c0,1.37,0,2.73,0,4.1,0,.32-.12.44-.44.44h-5.66c-.35,0-.5-.14-.5-.5q0-1.69,0-3.39a10.32,10.32,0,0,0-.08-1.24,1.47,1.47,0,0,0-1.54-1.4c-1.64,0-3.28,0-4.92,0Z"/><path class="cls-2" d="M149.7,129a3.46,3.46,0,0,1-2.21,2.84c-1.45.52-2.87,1.1-4.31,1.65l-2.93,1.1-3.5,1.33L133,137.3c-1.11.42-2.22.81-3.31,1.26a2.4,2.4,0,0,1-2.43-.42,4.11,4.11,0,0,1-1.42-2.12c-.46-1.26-.94-2.5-1.41-3.74-.26-.7-.56-1.38-.76-2.09a2.41,2.41,0,0,1,.55-2.08,4.52,4.52,0,0,1,2.36-1.5c1.25-.46,2.49-1,3.73-1.42l3.55-1.33,3.57-1.37,3-1.12c1-.36,1.93-.66,2.84-1.1a2.92,2.92,0,0,1,3.92,1.66c.59,1.47,1.13,2.95,1.69,4.43.25.65.51,1.3.74,2A3.65,3.65,0,0,1,149.7,129Z"/><path class="cls-2" d="M130.08,107.33a8.2,8.2,0,1,1-8.19-8.19A8.12,8.12,0,0,1,130.08,107.33Z"/><polygon class="cls-2" points="100.63 85.92 102.62 87.91 103.32 86.82 103.5 85.21 102.31 85.21 100.63 85.92"/><polygon class="cls-2" points="120.4 85.9 122.34 87.86 123.34 87.01 124.01 84.69 122.06 84.6 120.4 85.9"/><path class="cls-2" d="M71.73,148.66s1.61,2.94,3.61,3.93l2.1-2.35-2.06-4.46Z"/><path class="cls-3" d="M115.81,153.67c-12.48,0-25,0-37.43,0a4.54,4.54,0,0,1-3-1.1,5.83,5.83,0,0,1-2.12-3.35A6.42,6.42,0,0,1,73,147.8q0-25.2,0-50.38a6,6,0,0,1,2.1-4.65,5.78,5.78,0,0,1,3.69-1.45l1,0q35.85,0,71.72,0a10.49,10.49,0,0,1,2.56.31,5.66,5.66,0,0,1,3.51,2.69,11.3,11.3,0,0,1,.7,1.39,1.35,1.35,0,0,1,.05.57v10.8c0,13.84,0,27.68,0,41.53a4.84,4.84,0,0,1-1.34,3.32,7.44,7.44,0,0,1-2.45,1.7,1.53,1.53,0,0,1-.61,0H115.81ZM151.7,131a3.65,3.65,0,0,0-.1-.65c-.23-.66-.49-1.31-.74-2-.56-1.48-1.1-3-1.69-4.43a2.92,2.92,0,0,0-3.92-1.66c-.91.44-1.89.74-2.84,1.1l-3,1.12-3.57,1.37-3.55,1.33c-1.24.47-2.48,1-3.73,1.42a4.52,4.52,0,0,0-2.36,1.5,2.41,2.41,0,0,0-.55,2.08c.2.71.5,1.39.76,2.09.47,1.24,1,2.48,1.41,3.74a4.11,4.11,0,0,0,1.42,2.12,2.4,2.4,0,0,0,2.43.42c1.09-.45,2.2-.84,3.31-1.26l3.73-1.41,3.5-1.33,2.93-1.1c1.44-.55,2.86-1.13,4.31-1.65A3.46,3.46,0,0,0,151.7,131Zm-19.62-21.64a8.2,8.2,0,1,0-8.17,8.21A8.08,8.08,0,0,0,132.08,109.33Z"/><path class="cls-3" d="M115.69,81.45c-1.57,0-3.15,0-4.72,0a1.59,1.59,0,0,0-1.81,1.68c0,.32,0,.63,0,1v3.27c0,.58,0,.64-.64.64h-5.41c-.51,0-.54,0-.54-.55,0-1.2,0-2.39,0-3.59a8.94,8.94,0,0,1,9.07-9c2.81,0,5.62,0,8.44,0a8.8,8.8,0,0,1,8.76,8.59c0,1.37,0,2.73,0,4.1,0,.32-.12.44-.44.44h-5.66c-.35,0-.5-.14-.5-.5q0-1.69,0-3.39a10.32,10.32,0,0,0-.08-1.24,1.47,1.47,0,0,0-1.54-1.4c-1.64,0-3.28,0-4.92,0Z"/><path class="cls-1" d="M151.7,131a3.46,3.46,0,0,1-2.21,2.84c-1.45.52-2.87,1.1-4.31,1.65l-2.93,1.1-3.5,1.33L135,139.3c-1.11.42-2.22.81-3.31,1.26a2.4,2.4,0,0,1-2.43-.42,4.11,4.11,0,0,1-1.42-2.12c-.46-1.26-.94-2.5-1.41-3.74-.26-.7-.56-1.38-.76-2.09a2.41,2.41,0,0,1,.55-2.08,4.52,4.52,0,0,1,2.36-1.5c1.25-.46,2.49-1,3.73-1.42l3.55-1.33,3.57-1.37,3-1.12c1-.36,1.93-.66,2.84-1.1a2.92,2.92,0,0,1,3.92,1.66c.59,1.47,1.13,2.95,1.69,4.43.25.65.51,1.3.74,2A3.65,3.65,0,0,1,151.7,131Z"/><path class="cls-1" d="M132.08,109.33a8.2,8.2,0,1,1-8.19-8.19A8.12,8.12,0,0,1,132.08,109.33Z"/></svg>