<svg id="Capa_1" data-name="Capa 1" xmlns="http://www.w3.org/2000/svg" viewBox="0 0 239.63 222.92"><defs><style>.cls-1{fill:#bcedea;}.cls-2{fill:#10cfc9;}.cls-3{fill:#1d224c;}</style></defs><title>IMPRENTAS</title><circle class="cls-1" cx="117.07" cy="115.08" r="79.6"/><path class="cls-2" d="M115,154.78H95.83a9.7,9.7,0,0,1-6-2.58,9.57,9.57,0,0,1-2.42-3.67,10.42,10.42,0,0,1-.55-3.67v-8.24c0-.56,0-.59-.61-.61-1.26,0-2.53,0-3.78-.15a8.33,8.33,0,0,1-4.15-1.65,9.26,9.26,0,0,1-3.11-3.87c-.26-.58-.37-1.23-.57-1.83a8.15,8.15,0,0,1-.21-2.69c0-6.11,0-12.23,0-18.34a8.83,8.83,0,0,1,2.24-5.73,9.23,9.23,0,0,1,4.59-3,9.49,9.49,0,0,1,2-.31c1,0,2,0,3.08,0,.46,0,.52,0,.53-.52V83.38a11,11,0,0,1,.37-3.23A9.5,9.5,0,0,1,89.73,76a9,9,0,0,1,2.69-1.81c.57-.24,1.17-.39,1.76-.58a10,10,0,0,1,3-.23q18.21,0,36.43,0a9.49,9.49,0,0,1,8.92,6.21,10.26,10.26,0,0,1,.59,3.55q0,7.21,0,14.43V98c0,.34.1.49.47.48.91,0,1.82,0,2.72,0a9.16,9.16,0,0,1,8.37,5.12,16.71,16.71,0,0,1,.84,2.44,7,7,0,0,1,.19,2.42c0,6,0,12.09,0,18.13a9.3,9.3,0,0,1-2,5.79,9.1,9.1,0,0,1-4.23,3.07,10.74,10.74,0,0,1-3.36.58c-.83,0-1.66,0-2.48,0-.5,0-.54,0-.54.54,0,2.87,0,5.74,0,8.6a9.39,9.39,0,0,1-2.8,6.88,9.6,9.6,0,0,1-4.81,2.58,10.81,10.81,0,0,1-2.26.17Zm0-34.44H93.41c-.24,0-.33.11-.34.33v24.17c0,.26,0,.53,0,.79a3.08,3.08,0,0,0,1,2,3.51,3.51,0,0,0,2.62.86h34.14c.89,0,1.79,0,2.68,0a3.44,3.44,0,0,0,2.27-.73,3.33,3.33,0,0,0,1.12-2.7q0-12.06,0-24.13c0-.63,0-.63-.65-.63Zm0-21.88h21.25c.66,0,.66,0,.66-.65V85.59c0-1,0-2,0-3.07a2.89,2.89,0,0,0-1-2.07,3.53,3.53,0,0,0-2.57-.8H96.58a3.5,3.5,0,0,0-2.11.52A3.16,3.16,0,0,0,93.06,83q0,7.45,0,14.9c0,.6,0,.61.6.61Zm31.39,11a4.68,4.68,0,1,0-9.35,0,4.68,4.68,0,1,0,9.35,0Z"/><path class="cls-2" d="M115,120.34h21.25c.64,0,.65,0,.65.63q0,12.06,0,24.13a3.33,3.33,0,0,1-1.12,2.7,3.44,3.44,0,0,1-2.27.73c-.89,0-1.79,0-2.68,0H96.67a3.51,3.51,0,0,1-2.62-.86,3.08,3.08,0,0,1-1-2c0-.26,0-.53,0-.79V120.67c0-.22.1-.34.34-.33H115Zm.12,6.28H100c-.39,0-.53.1-.52.51,0,1.75,0,3.49,0,5.24,0,.38.12.5.5.5h30.28c.38,0,.51-.12.5-.5,0-1.73,0-3.47,0-5.2,0-.54,0-.54-.56-.54Zm-4.73,15.63h10.37c.59,0,.59,0,.59-.6v-5.09c0-.5,0-.55-.53-.55H99.93c-.38,0-.5.13-.5.5,0,1.71,0,3.42,0,5.13,0,.61,0,.61.59.61Z"/><path class="cls-2" d="M115,98.46H93.67c-.6,0-.6,0-.6-.61q0-7.45,0-14.9a3.16,3.16,0,0,1,1.41-2.78,3.5,3.5,0,0,1,2.11-.52h36.7a3.53,3.53,0,0,1,2.57.8,2.89,2.89,0,0,1,1,2.07c0,1,0,2,0,3.07V97.81c0,.64,0,.65-.66.65Z"/><path class="cls-2" d="M146.35,109.41a4.68,4.68,0,1,1-4.67-4.71A4.63,4.63,0,0,1,146.35,109.41Z"/><path class="cls-2" d="M115.09,126.62h15.06c.56,0,.56,0,.56.54,0,1.73,0,3.47,0,5.2,0,.38-.12.5-.5.5H99.93c-.38,0-.5-.12-.5-.5,0-1.75,0-3.49,0-5.24,0-.41.13-.51.52-.51Z"/><path class="cls-2" d="M110.36,142.25H100c-.59,0-.59,0-.59-.61,0-1.71,0-3.42,0-5.13,0-.37.12-.5.5-.5h20.86c.48,0,.53.05.53.55v5.09c0,.59,0,.6-.59.6Z"/><path class="cls-3" d="M117,156.78H97.83a9.7,9.7,0,0,1-6-2.58,9.57,9.57,0,0,1-2.42-3.67,10.42,10.42,0,0,1-.55-3.67v-8.24c0-.56,0-.59-.61-.61-1.26,0-2.53,0-3.78-.15a8.33,8.33,0,0,1-4.15-1.65,9.26,9.26,0,0,1-3.11-3.87c-.26-.58-.37-1.23-.57-1.83a8.15,8.15,0,0,1-.21-2.69c0-6.11,0-12.23,0-18.34a8.83,8.83,0,0,1,2.24-5.73,9.23,9.23,0,0,1,4.59-3,9.49,9.49,0,0,1,2-.31c1,0,2,0,3.08,0,.46,0,.52,0,.53-.52V85.38a11,11,0,0,1,.37-3.23A9.5,9.5,0,0,1,91.73,78a9,9,0,0,1,2.69-1.81c.57-.24,1.17-.39,1.76-.58a10,10,0,0,1,3-.23q18.21,0,36.43,0a9.49,9.49,0,0,1,8.92,6.21,10.26,10.26,0,0,1,.59,3.55q0,7.21,0,14.43v.4c0,.34.1.49.47.48.91,0,1.82,0,2.72,0a9.16,9.16,0,0,1,8.37,5.12,16.71,16.71,0,0,1,.84,2.44,7,7,0,0,1,.19,2.42c0,6,0,12.09,0,18.13a9.3,9.3,0,0,1-2,5.79,9.1,9.1,0,0,1-4.23,3.07,10.74,10.74,0,0,1-3.36.58c-.83,0-1.66,0-2.48,0-.5,0-.54,0-.54.54,0,2.87,0,5.74,0,8.6a9.39,9.39,0,0,1-2.8,6.88,9.6,9.6,0,0,1-4.81,2.58,10.81,10.81,0,0,1-2.26.17Zm0-34.44H95.41c-.24,0-.33.11-.34.33v24.17c0,.26,0,.53,0,.79a3.08,3.08,0,0,0,1,2,3.51,3.51,0,0,0,2.62.86h34.14c.89,0,1.79,0,2.68,0a3.44,3.44,0,0,0,2.27-.73,3.33,3.33,0,0,0,1.12-2.7q0-12.06,0-24.13c0-.63,0-.63-.65-.63Zm0-21.88h21.25c.66,0,.66,0,.66-.65V87.59c0-1,0-2,0-3.07a2.89,2.89,0,0,0-1-2.07,3.53,3.53,0,0,0-2.57-.8H98.58a3.5,3.5,0,0,0-2.11.52A3.16,3.16,0,0,0,95.06,85q0,7.45,0,14.9c0,.6,0,.61.6.61Zm31.39,11a4.68,4.68,0,1,0-9.35,0,4.68,4.68,0,1,0,9.35,0Z"/><path class="cls-1" d="M117,122.34h21.25c.64,0,.65,0,.65.63q0,12.06,0,24.13a3.33,3.33,0,0,1-1.12,2.7,3.44,3.44,0,0,1-2.27.73c-.89,0-1.79,0-2.68,0H98.67a3.51,3.51,0,0,1-2.62-.86,3.08,3.08,0,0,1-1-2c0-.26,0-.53,0-.79V122.67c0-.22.1-.34.34-.33H117Zm.12,6.28H102c-.39,0-.53.1-.52.51,0,1.75,0,3.49,0,5.24,0,.38.12.5.5.5h30.28c.38,0,.51-.12.5-.5,0-1.73,0-3.47,0-5.2,0-.54,0-.54-.56-.54Zm-4.73,15.63h10.37c.59,0,.59,0,.59-.6v-5.09c0-.5,0-.55-.53-.55H101.93c-.38,0-.5.13-.5.5,0,1.71,0,3.42,0,5.13,0,.61,0,.61.59.61Z"/><path class="cls-1" d="M117,100.46H95.67c-.6,0-.6,0-.6-.61q0-7.45,0-14.9a3.16,3.16,0,0,1,1.41-2.78,3.5,3.5,0,0,1,2.11-.52h36.7a3.53,3.53,0,0,1,2.57.8,2.89,2.89,0,0,1,1,2.07c0,1,0,2,0,3.07V99.81c0,.64,0,.65-.66.65Z"/><path class="cls-1" d="M148.35,111.41a4.68,4.68,0,1,1-4.67-4.71A4.63,4.63,0,0,1,148.35,111.41Z"/><path class="cls-3" d="M117.09,128.62h15.06c.56,0,.56,0,.56.54,0,1.73,0,3.47,0,5.2,0,.38-.12.5-.5.5H101.93c-.38,0-.5-.12-.5-.5,0-1.75,0-3.49,0-5.24,0-.41.13-.51.52-.51Z"/><path class="cls-3" d="M112.36,144.25H102c-.59,0-.59,0-.59-.61,0-1.71,0-3.42,0-5.13,0-.37.12-.5.5-.5h20.86c.48,0,.53.05.53.55v5.09c0,.59,0,.6-.59.6Z"/></svg>