<svg id="Capa_1" data-name="Capa 1" xmlns="http://www.w3.org/2000/svg" viewBox="0 0 500 500"><defs><style>.cls-1{fill:#1d224c;}.cls-2{fill:#10cfc9;}.cls-3{fill:#fff;}.cls-4{fill:#ffc600;}.cls-5{fill:#f5333f;}</style></defs><title>B</title><rect class="cls-1" width="501.07" height="500.03"/><path class="cls-2" d="M138.26,413.83h-4.09c-38.11,0-60.3-4.88-67.85-14.94-2.28-3.18-3.71-9.86-4.54-21.07-.39-4.69-.59-21.19-.59-50.4l-.58-49.61V231.06c0-36.56,1-65.32,2.93-85.49C65.13,128,68,115.89,72.33,108.69S84,96.39,93.89,93.91c3.36-.83,11.37-1.24,24.51-1.24,35.75,0,68.79,2.47,98.2,7.34s53,11.54,69.84,19.77A91.75,91.75,0,0,1,311.36,139c7.42,8,12.4,16.19,14.83,24.27,2,8.16,3,14.26,3,18.77,0,18.49-8.11,35.37-24.11,50.17L294.93,241l3.13,1.43c20,8,33.28,26.26,39.27,54.18,2,10,3,17.43,3,22.68,0,20.85-7.83,38.14-23.29,51.39-15.21,13-39.21,23.62-71.33,31.45C212.56,409.88,176.42,413.83,138.26,413.83ZM118.4,97.3c-15.67,0-21.37.6-23.39,1.1-8.67,2.17-15,6.43-18.72,12.67-3.89,6.5-6.64,18.25-8.15,34.93-1.93,20-2.91,48.65-2.91,85.06v46.72l.59,49.62c0,28.7.19,45.53.57,50.05,1,13.19,2.71,17.38,3.67,18.7,6.48,8.65,28.06,13.06,64.11,13.06h4.09c37.81,0,73.59-3.91,106.34-11.62,31.39-7.66,54.75-17.9,69.4-30.46,14.38-12.33,21.68-28.44,21.68-47.88,0-4.88-1-12.19-2.88-21.74-5.64-26.29-17.94-43.42-36.55-50.87l-9.81-4.45L302,228.73c15-13.83,22.56-29.57,22.56-46.72,0-4.07-1-10-2.85-17.55-2.19-7.29-6.83-14.85-13.76-22.35a87.6,87.6,0,0,0-23.61-18.21c-16.39-8-39.46-14.51-68.52-19.33S153.9,97.3,118.4,97.3Zm74.75,226h-4.67l-12-.7-1.41-12.12v-7c0-15.18,2.79-23,8.77-24.44l.32-.06,11.92-1.18a55.75,55.75,0,0,1,20.71,3.67c10.28,4.29,15.47,10.31,15.47,17.92,0,5.43-2.48,10-7.38,13.55C216.84,319.79,206.12,323.31,193.15,323.31Zm-12.52-5.09,8,.47h4.53c11.84,0,21.55-3.16,28.87-9.38,3.82-2.79,5.61-6,5.61-9.92,0-5.64-4.12-10.1-12.59-13.63a50.73,50.73,0,0,0-18.85-3.33l-11.37,1.14c-1.64.51-5.12,3.54-5.12,19.91v6.87ZM192,215.85H176.83v-14c0-9.38,1.11-15,3.52-17.62s7.64-4,16.31-4c21.7,0,26.25,9.2,26.25,16.92C222.91,209.57,212.51,215.85,192,215.85Zm-10.54-4.62H192c26.3,0,26.3-10.57,26.3-14,0-3,0-12.29-21.63-12.29-9.62,0-12.22,1.72-12.89,2.46s-2.32,3.71-2.32,14.5Z"/><path class="cls-3" d="M126.28,86.2q53.73,0,97.82,7.3t69.21,19.56a89,89,0,0,1,24.24,18.69q10.79,11.69,14.3,23.36,2.92,11.69,2.92,18.1,0,26.86-23.36,48.48l-12.84,11.09L305,235.7q29.19,11.69,38,52.56,2.91,14.61,2.92,22.19,0,30.38-22.48,49.64t-70.38,31q-49.65,11.68-106.87,11.68h-4.09q-55.49,0-66-14-2.93-4.08-4.09-19.85-.59-7-.58-50.23L70.8,269V222.27q0-54.89,2.92-85.27,2.32-25.68,8.47-35.91t20.15-13.73Q107,86.21,126.28,86.2ZM204,271.33l-11.68,1.17q-7,1.74-7,22.19v7l1.17,9.92,9.92.59H201q18.68,0,30.37-9.93,6.42-4.66,6.42-11.68,0-9.93-14-15.77A53.21,53.21,0,0,0,204,271.33Zm.58-97.53q-11.68,0-14.6,3.21T187,193.07v11.68h12.85q28.6,0,28.61-16.35Q228.48,173.8,204.54,173.8Z"/><path class="cls-4" d="M411.22,159.36c-4.65,14.59-15.5,26.54-26.26,37-11.75,11.45-20.59,24.69-30.32,37.85s-14.07-4.78-13.88-13.52c.27-12.73,4.08-24.53,9.2-36,5-11.08,11.42-21.13,20.78-29.09a62.69,62.69,0,0,1,17.55-10.85c4.22-1.68,8.57-2.8,13.19-2.18C412.35,144.05,413.89,151,411.22,159.36Z"/><path class="cls-5" d="M389.25,265.75c13.76,2.34,24.83,5.52,35.2,10.92a43,43,0,0,1,13,9.58,28.22,28.22,0,0,1,3.87,5.49c2.88,5.59,3.23,11.28-.51,16.64s-9.24,7.44-15.69,7c-4.83-.35-9-2.53-12.64-5.47-5.36-4.34-10.49-9-15.7-13.51s-10.23-9.27-15.58-13.63c-7-5.66-14.72-9.81-23.67-11.44a2.93,2.93,0,0,1-1.29-.34,4.63,4.63,0,0,1-1.64-1.82c-.13-.45.53-1.48,1.07-1.73a20,20,0,0,1,5-1.78C371,263.93,381.29,263.94,389.25,265.75Z"/><path class="cls-2" d="M422.75,214.12a24,24,0,0,1,3.25,1.12c3.57,1.7,5.27,5,3.65,8.55a21.85,21.85,0,0,1-5.72,7.88,69.56,69.56,0,0,1-13,8.07,82.44,82.44,0,0,1-26.3,7.66c-4.78.57-9.55,1.24-14.34,1.7a24.83,24.83,0,0,1-5.84-.17c-3.27-.46-4-2.34-2-5a49.85,49.85,0,0,1,6.32-7c11-9.54,23.06-17.36,37.26-21.38A37.36,37.36,0,0,1,422.75,214.12Z"/></svg>